<?xml version="1.0" encoding="utf-8" standalone="no"?>
<!DOCTYPE svg PUBLIC "-//W3C//DTD SVG 1.1//EN"
  "http://www.w3.org/Graphics/SVG/1.1/DTD/svg11.dtd">
<svg xmlns:xlink="http://www.w3.org/1999/xlink" width="856.8pt" height="423.924292pt" viewBox="0 0 856.8 423.924292" xmlns="http://www.w3.org/2000/svg" version="1.1">
 <metadata>
  <rdf:RDF xmlns:dc="http://purl.org/dc/elements/1.1/" xmlns:cc="http://creativecommons.org/ns#" xmlns:rdf="http://www.w3.org/1999/02/22-rdf-syntax-ns#">
   <cc:Work>
    <dc:type rdf:resource="http://purl.org/dc/dcmitype/StillImage"/>
    <dc:date>2024-06-30T22:00:15.743393</dc:date>
    <dc:format>image/svg+xml</dc:format>
    <dc:creator>
     <cc:Agent>
      <dc:title>Matplotlib v3.8.4, https://matplotlib.org/</dc:title>
     </cc:Agent>
    </dc:creator>
   </cc:Work>
  </rdf:RDF>
 </metadata>
 <defs>
  <style type="text/css">*{stroke-linejoin: round; stroke-linecap: butt}</style>
 </defs>
 <g id="figure_1">
  <g id="patch_1">
   <path d="M 0 423.924292 
L 856.8 423.924292 
L 856.8 0 
L 0 0 
z
" style="fill: #ffffff"/>
  </g>
  <g id="axes_1">
   <g id="patch_2">
    <path d="M 10.7 357.715484 
L 849.6 357.715484 
L 849.6 7.2 
L 10.7 7.2 
z
" style="fill: #ffffff"/>
   </g>
   <g id="patch_3">
    <path d="M 48.831818 357.715484 
L 76.818474 357.715484 
L 76.818474 357.715484 
L 48.831818 357.715484 
z
" clip-path="url(#pef7143578b)" style="fill: #1f77b4"/>
   </g>
   <g id="patch_4">
    <path d="M 83.815138 357.715484 
L 111.801793 357.715484 
L 111.801793 347.283475 
L 83.815138 347.283475 
z
" clip-path="url(#pef7143578b)" style="fill: #1f77b4"/>
   </g>
   <g id="patch_5">
    <path d="M 118.798457 357.715484 
L 146.785113 357.715484 
L 146.785113 357.715484 
L 118.798457 357.715484 
z
" clip-path="url(#pef7143578b)" style="fill: #1f77b4"/>
   </g>
   <g id="patch_6">
    <path d="M 153.781776 357.715484 
L 181.768432 357.715484 
L 181.768432 347.283475 
L 153.781776 347.283475 
z
" clip-path="url(#pef7143578b)" style="fill: #1f77b4"/>
   </g>
   <g id="patch_7">
    <path d="M 188.765096 357.715484 
L 216.751751 357.715484 
L 216.751751 357.715484 
L 188.765096 357.715484 
z
" clip-path="url(#pef7143578b)" style="fill: #1f77b4"/>
   </g>
   <g id="patch_8">
    <path d="M 223.748415 357.715484 
L 251.735071 357.715484 
L 251.735071 357.715484 
L 223.748415 357.715484 
z
" clip-path="url(#pef7143578b)" style="fill: #1f77b4"/>
   </g>
   <g id="patch_9">
    <path d="M 258.731735 357.715484 
L 286.71839 357.715484 
L 286.71839 357.715484 
L 258.731735 357.715484 
z
" clip-path="url(#pef7143578b)" style="fill: #1f77b4"/>
   </g>
   <g id="patch_10">
    <path d="M 293.715054 357.715484 
L 321.70171 357.715484 
L 321.70171 357.715484 
L 293.715054 357.715484 
z
" clip-path="url(#pef7143578b)" style="fill: #1f77b4"/>
   </g>
   <g id="patch_11">
    <path d="M 328.698374 357.715484 
L 356.685029 357.715484 
L 356.685029 357.715484 
L 328.698374 357.715484 
z
" clip-path="url(#pef7143578b)" style="fill: #1f77b4"/>
   </g>
   <g id="patch_12">
    <path d="M 363.681693 357.715484 
L 391.668349 357.715484 
L 391.668349 357.715484 
L 363.681693 357.715484 
z
" clip-path="url(#pef7143578b)" style="fill: #1f77b4"/>
   </g>
   <g id="patch_13">
    <path d="M 398.665013 357.715484 
L 426.651668 357.715484 
L 426.651668 357.715484 
L 398.665013 357.715484 
z
" clip-path="url(#pef7143578b)" style="fill: #1f77b4"/>
   </g>
   <g id="patch_14">
    <path d="M 433.648332 357.715484 
L 461.634987 357.715484 
L 461.634987 357.715484 
L 433.648332 357.715484 
z
" clip-path="url(#pef7143578b)" style="fill: #1f77b4"/>
   </g>
   <g id="patch_15">
    <path d="M 468.631651 357.715484 
L 496.618307 357.715484 
L 496.618307 357.715484 
L 468.631651 357.715484 
z
" clip-path="url(#pef7143578b)" style="fill: #1f77b4"/>
   </g>
   <g id="patch_16">
    <path d="M 503.614971 357.715484 
L 531.601626 357.715484 
L 531.601626 357.715484 
L 503.614971 357.715484 
z
" clip-path="url(#pef7143578b)" style="fill: #1f77b4"/>
   </g>
   <g id="patch_17">
    <path d="M 538.59829 357.715484 
L 566.584946 357.715484 
L 566.584946 357.715484 
L 538.59829 357.715484 
z
" clip-path="url(#pef7143578b)" style="fill: #1f77b4"/>
   </g>
   <g id="patch_18">
    <path d="M 573.58161 357.715484 
L 601.568265 357.715484 
L 601.568265 357.715484 
L 573.58161 357.715484 
z
" clip-path="url(#pef7143578b)" style="fill: #1f77b4"/>
   </g>
   <g id="patch_19">
    <path d="M 608.564929 357.715484 
L 636.551585 357.715484 
L 636.551585 357.715484 
L 608.564929 357.715484 
z
" clip-path="url(#pef7143578b)" style="fill: #1f77b4"/>
   </g>
   <g id="patch_20">
    <path d="M 643.548249 357.715484 
L 671.534904 357.715484 
L 671.534904 357.715484 
L 643.548249 357.715484 
z
" clip-path="url(#pef7143578b)" style="fill: #1f77b4"/>
   </g>
   <g id="patch_21">
    <path d="M 678.531568 357.715484 
L 706.518224 357.715484 
L 706.518224 357.715484 
L 678.531568 357.715484 
z
" clip-path="url(#pef7143578b)" style="fill: #1f77b4"/>
   </g>
   <g id="patch_22">
    <path d="M 713.514887 357.715484 
L 741.501543 357.715484 
L 741.501543 357.715484 
L 713.514887 357.715484 
z
" clip-path="url(#pef7143578b)" style="fill: #1f77b4"/>
   </g>
   <g id="patch_23">
    <path d="M 748.498207 357.715484 
L 776.484862 357.715484 
L 776.484862 357.715484 
L 748.498207 357.715484 
z
" clip-path="url(#pef7143578b)" style="fill: #1f77b4"/>
   </g>
   <g id="patch_24">
    <path d="M 783.481526 357.715484 
L 811.468182 357.715484 
L 811.468182 357.715484 
L 783.481526 357.715484 
z
" clip-path="url(#pef7143578b)" style="fill: #1f77b4"/>
   </g>
   <g id="patch_25">
    <path d="M 48.831818 357.715484 
L 76.818474 357.715484 
L 76.818474 23.891214 
L 48.831818 23.891214 
z
" clip-path="url(#pef7143578b)" style="fill: #ff7f0e"/>
   </g>
   <g id="patch_26">
    <path d="M 83.815138 347.283475 
L 111.801793 347.283475 
L 111.801793 232.531382 
L 83.815138 232.531382 
z
" clip-path="url(#pef7143578b)" style="fill: #ff7f0e"/>
   </g>
   <g id="patch_27">
    <path d="M 118.798457 357.715484 
L 146.785113 357.715484 
L 146.785113 253.395399 
L 118.798457 253.395399 
z
" clip-path="url(#pef7143578b)" style="fill: #ff7f0e"/>
   </g>
   <g id="patch_28">
    <path d="M 153.781776 347.283475 
L 181.768432 347.283475 
L 181.768432 284.691425 
L 153.781776 284.691425 
z
" clip-path="url(#pef7143578b)" style="fill: #ff7f0e"/>
   </g>
   <g id="patch_29">
    <path d="M 188.765096 357.715484 
L 216.751751 357.715484 
L 216.751751 305.555442 
L 188.765096 305.555442 
z
" clip-path="url(#pef7143578b)" style="fill: #ff7f0e"/>
   </g>
   <g id="patch_30">
    <path d="M 223.748415 357.715484 
L 251.735071 357.715484 
L 251.735071 305.555442 
L 223.748415 305.555442 
z
" clip-path="url(#pef7143578b)" style="fill: #ff7f0e"/>
   </g>
   <g id="patch_31">
    <path d="M 258.731735 357.715484 
L 286.71839 357.715484 
L 286.71839 315.98745 
L 258.731735 315.98745 
z
" clip-path="url(#pef7143578b)" style="fill: #ff7f0e"/>
   </g>
   <g id="patch_32">
    <path d="M 293.715054 357.715484 
L 321.70171 357.715484 
L 321.70171 326.419458 
L 293.715054 326.419458 
z
" clip-path="url(#pef7143578b)" style="fill: #ff7f0e"/>
   </g>
   <g id="patch_33">
    <path d="M 328.698374 357.715484 
L 356.685029 357.715484 
L 356.685029 336.851467 
L 328.698374 336.851467 
z
" clip-path="url(#pef7143578b)" style="fill: #ff7f0e"/>
   </g>
   <g id="patch_34">
    <path d="M 363.681693 357.715484 
L 391.668349 357.715484 
L 391.668349 336.851467 
L 363.681693 336.851467 
z
" clip-path="url(#pef7143578b)" style="fill: #ff7f0e"/>
   </g>
   <g id="patch_35">
    <path d="M 398.665013 357.715484 
L 426.651668 357.715484 
L 426.651668 336.851467 
L 398.665013 336.851467 
z
" clip-path="url(#pef7143578b)" style="fill: #ff7f0e"/>
   </g>
   <g id="patch_36">
    <path d="M 433.648332 357.715484 
L 461.634987 357.715484 
L 461.634987 336.851467 
L 433.648332 336.851467 
z
" clip-path="url(#pef7143578b)" style="fill: #ff7f0e"/>
   </g>
   <g id="patch_37">
    <path d="M 468.631651 357.715484 
L 496.618307 357.715484 
L 496.618307 336.851467 
L 468.631651 336.851467 
z
" clip-path="url(#pef7143578b)" style="fill: #ff7f0e"/>
   </g>
   <g id="patch_38">
    <path d="M 503.614971 357.715484 
L 531.601626 357.715484 
L 531.601626 336.851467 
L 503.614971 336.851467 
z
" clip-path="url(#pef7143578b)" style="fill: #ff7f0e"/>
   </g>
   <g id="patch_39">
    <path d="M 538.59829 357.715484 
L 566.584946 357.715484 
L 566.584946 336.851467 
L 538.59829 336.851467 
z
" clip-path="url(#pef7143578b)" style="fill: #ff7f0e"/>
   </g>
   <g id="patch_40">
    <path d="M 573.58161 357.715484 
L 601.568265 357.715484 
L 601.568265 336.851467 
L 573.58161 336.851467 
z
" clip-path="url(#pef7143578b)" style="fill: #ff7f0e"/>
   </g>
   <g id="patch_41">
    <path d="M 608.564929 357.715484 
L 636.551585 357.715484 
L 636.551585 347.283475 
L 608.564929 347.283475 
z
" clip-path="url(#pef7143578b)" style="fill: #ff7f0e"/>
   </g>
   <g id="patch_42">
    <path d="M 643.548249 357.715484 
L 671.534904 357.715484 
L 671.534904 347.283475 
L 643.548249 347.283475 
z
" clip-path="url(#pef7143578b)" style="fill: #ff7f0e"/>
   </g>
   <g id="patch_43">
    <path d="M 678.531568 357.715484 
L 706.518224 357.715484 
L 706.518224 347.283475 
L 678.531568 347.283475 
z
" clip-path="url(#pef7143578b)" style="fill: #ff7f0e"/>
   </g>
   <g id="patch_44">
    <path d="M 713.514887 357.715484 
L 741.501543 357.715484 
L 741.501543 347.283475 
L 713.514887 347.283475 
z
" clip-path="url(#pef7143578b)" style="fill: #ff7f0e"/>
   </g>
   <g id="patch_45">
    <path d="M 748.498207 357.715484 
L 776.484862 357.715484 
L 776.484862 347.283475 
L 748.498207 347.283475 
z
" clip-path="url(#pef7143578b)" style="fill: #ff7f0e"/>
   </g>
   <g id="patch_46">
    <path d="M 783.481526 357.715484 
L 811.468182 357.715484 
L 811.468182 347.283475 
L 783.481526 347.283475 
z
" clip-path="url(#pef7143578b)" style="fill: #ff7f0e"/>
   </g>
   <g id="matplotlib.axis_1">
    <g id="xtick_1">
     <g id="line2d_1">
      <defs>
       <path id="mbab1840de4" d="M 0 0 
L 0 3.5 
" style="stroke: #000000; stroke-width: 0.8"/>
      </defs>
      <g>
       <use xlink:href="#mbab1840de4" x="62.825146" y="357.715484" style="stroke: #000000; stroke-width: 0.8"/>
      </g>
     </g>
     <g id="text_1">
      <!-- DE -->
      <g transform="translate(53.809534 410.572463) rotate(-45) scale(0.3 -0.3)">
       <defs>
        <path id="DejaVuSans-44" d="M 1259 4147 
L 1259 519 
L 2022 519 
Q 2988 519 3436 956 
Q 3884 1394 3884 2338 
Q 3884 3275 3436 3711 
Q 2988 4147 2022 4147 
L 1259 4147 
z
M 628 4666 
L 1925 4666 
Q 3281 4666 3915 4102 
Q 4550 3538 4550 2338 
Q 4550 1131 3912 565 
Q 3275 0 1925 0 
L 628 0 
L 628 4666 
z
" transform="scale(0.015625)"/>
        <path id="DejaVuSans-45" d="M 628 4666 
L 3578 4666 
L 3578 4134 
L 1259 4134 
L 1259 2753 
L 3481 2753 
L 3481 2222 
L 1259 2222 
L 1259 531 
L 3634 531 
L 3634 0 
L 628 0 
L 628 4666 
z
" transform="scale(0.015625)"/>
       </defs>
       <use xlink:href="#DejaVuSans-44"/>
       <use xlink:href="#DejaVuSans-45" x="77.001953"/>
      </g>
     </g>
    </g>
    <g id="xtick_2">
     <g id="line2d_2">
      <g>
       <use xlink:href="#mbab1840de4" x="97.808465" y="357.715484" style="stroke: #000000; stroke-width: 0.8"/>
      </g>
     </g>
     <g id="text_2">
      <!-- FR -->
      <g transform="translate(90.1916 407.774972) rotate(-45) scale(0.3 -0.3)">
       <defs>
        <path id="DejaVuSans-46" d="M 628 4666 
L 3309 4666 
L 3309 4134 
L 1259 4134 
L 1259 2759 
L 3109 2759 
L 3109 2228 
L 1259 2228 
L 1259 0 
L 628 0 
L 628 4666 
z
" transform="scale(0.015625)"/>
        <path id="DejaVuSans-52" d="M 2841 2188 
Q 3044 2119 3236 1894 
Q 3428 1669 3622 1275 
L 4263 0 
L 3584 0 
L 2988 1197 
Q 2756 1666 2539 1819 
Q 2322 1972 1947 1972 
L 1259 1972 
L 1259 0 
L 628 0 
L 628 4666 
L 2053 4666 
Q 2853 4666 3247 4331 
Q 3641 3997 3641 3322 
Q 3641 2881 3436 2590 
Q 3231 2300 2841 2188 
z
M 1259 4147 
L 1259 2491 
L 2053 2491 
Q 2509 2491 2742 2702 
Q 2975 2913 2975 3322 
Q 2975 3731 2742 3939 
Q 2509 4147 2053 4147 
L 1259 4147 
z
" transform="scale(0.015625)"/>
       </defs>
       <use xlink:href="#DejaVuSans-46"/>
       <use xlink:href="#DejaVuSans-52" x="57.519531"/>
      </g>
     </g>
    </g>
    <g id="xtick_3">
     <g id="line2d_3">
      <g>
       <use xlink:href="#mbab1840de4" x="132.791785" y="357.715484" style="stroke: #000000; stroke-width: 0.8"/>
      </g>
     </g>
     <g id="text_3">
      <!-- RU -->
      <g transform="translate(123.512666 411.099479) rotate(-45) scale(0.3 -0.3)">
       <defs>
        <path id="DejaVuSans-55" d="M 556 4666 
L 1191 4666 
L 1191 1831 
Q 1191 1081 1462 751 
Q 1734 422 2344 422 
Q 2950 422 3222 751 
Q 3494 1081 3494 1831 
L 3494 4666 
L 4128 4666 
L 4128 1753 
Q 4128 841 3676 375 
Q 3225 -91 2344 -91 
Q 1459 -91 1007 375 
Q 556 841 556 1753 
L 556 4666 
z
" transform="scale(0.015625)"/>
       </defs>
       <use xlink:href="#DejaVuSans-52"/>
       <use xlink:href="#DejaVuSans-55" x="69.482422"/>
      </g>
     </g>
    </g>
    <g id="xtick_4">
     <g id="line2d_4">
      <g>
       <use xlink:href="#mbab1840de4" x="167.775104" y="357.715484" style="stroke: #000000; stroke-width: 0.8"/>
      </g>
     </g>
     <g id="text_4">
      <!-- IT -->
      <g transform="translate(164.021362 400.048726) rotate(-45) scale(0.3 -0.3)">
       <defs>
        <path id="DejaVuSans-49" d="M 628 4666 
L 1259 4666 
L 1259 0 
L 628 0 
L 628 4666 
z
" transform="scale(0.015625)"/>
        <path id="DejaVuSans-54" d="M -19 4666 
L 3928 4666 
L 3928 4134 
L 2272 4134 
L 2272 0 
L 1638 0 
L 1638 4134 
L -19 4134 
L -19 4666 
z
" transform="scale(0.015625)"/>
       </defs>
       <use xlink:href="#DejaVuSans-49"/>
       <use xlink:href="#DejaVuSans-54" x="29.492188"/>
      </g>
     </g>
    </g>
    <g id="xtick_5">
     <g id="line2d_5">
      <g>
       <use xlink:href="#mbab1840de4" x="202.758424" y="357.715484" style="stroke: #000000; stroke-width: 0.8"/>
      </g>
     </g>
     <g id="text_5">
      <!-- NL -->
      <g transform="translate(194.767012 408.524063) rotate(-45) scale(0.3 -0.3)">
       <defs>
        <path id="DejaVuSans-4e" d="M 628 4666 
L 1478 4666 
L 3547 763 
L 3547 4666 
L 4159 4666 
L 4159 0 
L 3309 0 
L 1241 3903 
L 1241 0 
L 628 0 
L 628 4666 
z
" transform="scale(0.015625)"/>
        <path id="DejaVuSans-4c" d="M 628 4666 
L 1259 4666 
L 1259 531 
L 3531 531 
L 3531 0 
L 628 0 
L 628 4666 
z
" transform="scale(0.015625)"/>
       </defs>
       <use xlink:href="#DejaVuSans-4e"/>
       <use xlink:href="#DejaVuSans-4c" x="74.804688"/>
      </g>
     </g>
    </g>
    <g id="xtick_6">
     <g id="line2d_6">
      <g>
       <use xlink:href="#mbab1840de4" x="237.741743" y="357.715484" style="stroke: #000000; stroke-width: 0.8"/>
      </g>
     </g>
     <g id="text_6">
      <!-- PL -->
      <g transform="translate(231.289946 405.444834) rotate(-45) scale(0.3 -0.3)">
       <defs>
        <path id="DejaVuSans-50" d="M 1259 4147 
L 1259 2394 
L 2053 2394 
Q 2494 2394 2734 2622 
Q 2975 2850 2975 3272 
Q 2975 3691 2734 3919 
Q 2494 4147 2053 4147 
L 1259 4147 
z
M 628 4666 
L 2053 4666 
Q 2838 4666 3239 4311 
Q 3641 3956 3641 3272 
Q 3641 2581 3239 2228 
Q 2838 1875 2053 1875 
L 1259 1875 
L 1259 0 
L 628 0 
L 628 4666 
z
" transform="scale(0.015625)"/>
       </defs>
       <use xlink:href="#DejaVuSans-50"/>
       <use xlink:href="#DejaVuSans-4c" x="60.302734"/>
      </g>
     </g>
    </g>
    <g id="xtick_7">
     <g id="line2d_7">
      <g>
       <use xlink:href="#mbab1840de4" x="272.725063" y="357.715484" style="stroke: #000000; stroke-width: 0.8"/>
      </g>
     </g>
     <g id="text_7">
      <!-- BG -->
      <g transform="translate(263.268614 411.454137) rotate(-45) scale(0.3 -0.3)">
       <defs>
        <path id="DejaVuSans-42" d="M 1259 2228 
L 1259 519 
L 2272 519 
Q 2781 519 3026 730 
Q 3272 941 3272 1375 
Q 3272 1813 3026 2020 
Q 2781 2228 2272 2228 
L 1259 2228 
z
M 1259 4147 
L 1259 2741 
L 2194 2741 
Q 2656 2741 2882 2914 
Q 3109 3088 3109 3444 
Q 3109 3797 2882 3972 
Q 2656 4147 2194 4147 
L 1259 4147 
z
M 628 4666 
L 2241 4666 
Q 2963 4666 3353 4366 
Q 3744 4066 3744 3513 
Q 3744 3084 3544 2831 
Q 3344 2578 2956 2516 
Q 3422 2416 3680 2098 
Q 3938 1781 3938 1306 
Q 3938 681 3513 340 
Q 3088 0 2303 0 
L 628 0 
L 628 4666 
z
" transform="scale(0.015625)"/>
        <path id="DejaVuSans-47" d="M 3809 666 
L 3809 1919 
L 2778 1919 
L 2778 2438 
L 4434 2438 
L 4434 434 
Q 4069 175 3628 42 
Q 3188 -91 2688 -91 
Q 1594 -91 976 548 
Q 359 1188 359 2328 
Q 359 3472 976 4111 
Q 1594 4750 2688 4750 
Q 3144 4750 3555 4637 
Q 3966 4525 4313 4306 
L 4313 3634 
Q 3963 3931 3569 4081 
Q 3175 4231 2741 4231 
Q 1884 4231 1454 3753 
Q 1025 3275 1025 2328 
Q 1025 1384 1454 906 
Q 1884 428 2741 428 
Q 3075 428 3337 486 
Q 3600 544 3809 666 
z
" transform="scale(0.015625)"/>
       </defs>
       <use xlink:href="#DejaVuSans-42"/>
       <use xlink:href="#DejaVuSans-47" x="66.853516"/>
      </g>
     </g>
    </g>
    <g id="xtick_8">
     <g id="line2d_8">
      <g>
       <use xlink:href="#mbab1840de4" x="307.708382" y="357.715484" style="stroke: #000000; stroke-width: 0.8"/>
      </g>
     </g>
     <g id="text_8">
      <!-- TR -->
      <g transform="translate(299.713656 408.530693) rotate(-45) scale(0.3 -0.3)">
       <use xlink:href="#DejaVuSans-54"/>
       <use xlink:href="#DejaVuSans-52" x="61.083984"/>
      </g>
     </g>
    </g>
    <g id="xtick_9">
     <g id="line2d_9">
      <g>
       <use xlink:href="#mbab1840de4" x="342.691701" y="357.715484" style="stroke: #000000; stroke-width: 0.8"/>
      </g>
     </g>
     <g id="text_9">
      <!-- BE -->
      <g transform="translate(334.56605 408.792543) rotate(-45) scale(0.3 -0.3)">
       <use xlink:href="#DejaVuSans-42"/>
       <use xlink:href="#DejaVuSans-45" x="68.603516"/>
      </g>
     </g>
    </g>
    <g id="xtick_10">
     <g id="line2d_10">
      <g>
       <use xlink:href="#mbab1840de4" x="377.675021" y="357.715484" style="stroke: #000000; stroke-width: 0.8"/>
      </g>
     </g>
     <g id="text_10">
      <!-- HU -->
      <g transform="translate(367.789337 412.312609) rotate(-45) scale(0.3 -0.3)">
       <defs>
        <path id="DejaVuSans-48" d="M 628 4666 
L 1259 4666 
L 1259 2753 
L 3553 2753 
L 3553 4666 
L 4184 4666 
L 4184 0 
L 3553 0 
L 3553 2222 
L 1259 2222 
L 1259 0 
L 628 0 
L 628 4666 
z
" transform="scale(0.015625)"/>
       </defs>
       <use xlink:href="#DejaVuSans-48"/>
       <use xlink:href="#DejaVuSans-55" x="75.195312"/>
      </g>
     </g>
    </g>
    <g id="xtick_11">
     <g id="line2d_11">
      <g>
       <use xlink:href="#mbab1840de4" x="412.65834" y="357.715484" style="stroke: #000000; stroke-width: 0.8"/>
      </g>
     </g>
     <g id="text_11">
      <!-- CZ -->
      <g transform="translate(403.839945 410.17803) rotate(-45) scale(0.3 -0.3)">
       <defs>
        <path id="DejaVuSans-43" d="M 4122 4306 
L 4122 3641 
Q 3803 3938 3442 4084 
Q 3081 4231 2675 4231 
Q 1875 4231 1450 3742 
Q 1025 3253 1025 2328 
Q 1025 1406 1450 917 
Q 1875 428 2675 428 
Q 3081 428 3442 575 
Q 3803 722 4122 1019 
L 4122 359 
Q 3791 134 3420 21 
Q 3050 -91 2638 -91 
Q 1578 -91 968 557 
Q 359 1206 359 2328 
Q 359 3453 968 4101 
Q 1578 4750 2638 4750 
Q 3056 4750 3426 4639 
Q 3797 4528 4122 4306 
z
" transform="scale(0.015625)"/>
        <path id="DejaVuSans-5a" d="M 359 4666 
L 4025 4666 
L 4025 4184 
L 1075 531 
L 4097 531 
L 4097 0 
L 288 0 
L 288 481 
L 3238 4134 
L 359 4134 
L 359 4666 
z
" transform="scale(0.015625)"/>
       </defs>
       <use xlink:href="#DejaVuSans-43"/>
       <use xlink:href="#DejaVuSans-5a" x="69.824219"/>
      </g>
     </g>
    </g>
    <g id="xtick_12">
     <g id="line2d_12">
      <g>
       <use xlink:href="#mbab1840de4" x="447.64166" y="357.715484" style="stroke: #000000; stroke-width: 0.8"/>
      </g>
     </g>
     <g id="text_12">
      <!-- RO -->
      <g transform="translate(437.775863 412.272834) rotate(-45) scale(0.3 -0.3)">
       <defs>
        <path id="DejaVuSans-4f" d="M 2522 4238 
Q 1834 4238 1429 3725 
Q 1025 3213 1025 2328 
Q 1025 1447 1429 934 
Q 1834 422 2522 422 
Q 3209 422 3611 934 
Q 4013 1447 4013 2328 
Q 4013 3213 3611 3725 
Q 3209 4238 2522 4238 
z
M 2522 4750 
Q 3503 4750 4090 4092 
Q 4678 3434 4678 2328 
Q 4678 1225 4090 567 
Q 3503 -91 2522 -91 
Q 1538 -91 948 565 
Q 359 1222 359 2328 
Q 359 3434 948 4092 
Q 1538 4750 2522 4750 
z
" transform="scale(0.015625)"/>
       </defs>
       <use xlink:href="#DejaVuSans-52"/>
       <use xlink:href="#DejaVuSans-4f" x="69.482422"/>
      </g>
     </g>
    </g>
    <g id="xtick_13">
     <g id="line2d_13">
      <g>
       <use xlink:href="#mbab1840de4" x="482.624979" y="357.715484" style="stroke: #000000; stroke-width: 0.8"/>
      </g>
     </g>
     <g id="text_13">
      <!-- GB -->
      <g transform="translate(472.982915 411.825368) rotate(-45) scale(0.3 -0.3)">
       <use xlink:href="#DejaVuSans-47"/>
       <use xlink:href="#DejaVuSans-42" x="77.490234"/>
      </g>
     </g>
    </g>
    <g id="xtick_14">
     <g id="line2d_14">
      <g>
       <use xlink:href="#mbab1840de4" x="517.608299" y="357.715484" style="stroke: #000000; stroke-width: 0.8"/>
      </g>
     </g>
     <g id="text_14">
      <!-- UA -->
      <g transform="translate(508.443532 410.870774) rotate(-45) scale(0.3 -0.3)">
       <defs>
        <path id="DejaVuSans-41" d="M 2188 4044 
L 1331 1722 
L 3047 1722 
L 2188 4044 
z
M 1831 4666 
L 2547 4666 
L 4325 0 
L 3669 0 
L 3244 1197 
L 1141 1197 
L 716 0 
L 50 0 
L 1831 4666 
z
" transform="scale(0.015625)"/>
       </defs>
       <use xlink:href="#DejaVuSans-55"/>
       <use xlink:href="#DejaVuSans-41" x="73.193359"/>
      </g>
     </g>
    </g>
    <g id="xtick_15">
     <g id="line2d_15">
      <g>
       <use xlink:href="#mbab1840de4" x="552.591618" y="357.715484" style="stroke: #000000; stroke-width: 0.8"/>
      </g>
     </g>
     <g id="text_15">
      <!-- SK -->
      <g transform="translate(544.755991 408.212495) rotate(-45) scale(0.3 -0.3)">
       <defs>
        <path id="DejaVuSans-53" d="M 3425 4513 
L 3425 3897 
Q 3066 4069 2747 4153 
Q 2428 4238 2131 4238 
Q 1616 4238 1336 4038 
Q 1056 3838 1056 3469 
Q 1056 3159 1242 3001 
Q 1428 2844 1947 2747 
L 2328 2669 
Q 3034 2534 3370 2195 
Q 3706 1856 3706 1288 
Q 3706 609 3251 259 
Q 2797 -91 1919 -91 
Q 1588 -91 1214 -16 
Q 841 59 441 206 
L 441 856 
Q 825 641 1194 531 
Q 1563 422 1919 422 
Q 2459 422 2753 634 
Q 3047 847 3047 1241 
Q 3047 1584 2836 1778 
Q 2625 1972 2144 2069 
L 1759 2144 
Q 1053 2284 737 2584 
Q 422 2884 422 3419 
Q 422 4038 858 4394 
Q 1294 4750 2059 4750 
Q 2388 4750 2728 4690 
Q 3069 4631 3425 4513 
z
" transform="scale(0.015625)"/>
        <path id="DejaVuSans-4b" d="M 628 4666 
L 1259 4666 
L 1259 2694 
L 3353 4666 
L 4166 4666 
L 1850 2491 
L 4331 0 
L 3500 0 
L 1259 2247 
L 1259 0 
L 628 0 
L 628 4666 
z
" transform="scale(0.015625)"/>
       </defs>
       <use xlink:href="#DejaVuSans-53"/>
       <use xlink:href="#DejaVuSans-4b" x="63.476562"/>
      </g>
     </g>
    </g>
    <g id="xtick_16">
     <g id="line2d_16">
      <g>
       <use xlink:href="#mbab1840de4" x="587.574937" y="357.715484" style="stroke: #000000; stroke-width: 0.8"/>
      </g>
     </g>
     <g id="text_16">
      <!-- DZ -->
      <g transform="translate(577.99585 411.699415) rotate(-45) scale(0.3 -0.3)">
       <use xlink:href="#DejaVuSans-44"/>
       <use xlink:href="#DejaVuSans-5a" x="77.001953"/>
      </g>
     </g>
    </g>
    <g id="xtick_17">
     <g id="line2d_17">
      <g>
       <use xlink:href="#mbab1840de4" x="622.558257" y="357.715484" style="stroke: #000000; stroke-width: 0.8"/>
      </g>
     </g>
     <g id="text_17">
      <!-- ES -->
      <g transform="translate(614.976194 407.705366) rotate(-45) scale(0.3 -0.3)">
       <use xlink:href="#DejaVuSans-45"/>
       <use xlink:href="#DejaVuSans-53" x="63.183594"/>
      </g>
     </g>
    </g>
    <g id="xtick_18">
     <g id="line2d_18">
      <g>
       <use xlink:href="#mbab1840de4" x="657.541576" y="357.715484" style="stroke: #000000; stroke-width: 0.8"/>
      </g>
     </g>
     <g id="text_18">
      <!-- BY -->
      <g transform="translate(650.223021 407.178351) rotate(-45) scale(0.3 -0.3)">
       <defs>
        <path id="DejaVuSans-59" d="M -13 4666 
L 666 4666 
L 1959 2747 
L 3244 4666 
L 3922 4666 
L 2272 2222 
L 2272 0 
L 1638 0 
L 1638 2222 
L -13 4666 
z
" transform="scale(0.015625)"/>
       </defs>
       <use xlink:href="#DejaVuSans-42"/>
       <use xlink:href="#DejaVuSans-59" x="63.103516"/>
      </g>
     </g>
    </g>
    <g id="xtick_19">
     <g id="line2d_19">
      <g>
       <use xlink:href="#mbab1840de4" x="692.524896" y="357.715484" style="stroke: #000000; stroke-width: 0.8"/>
      </g>
     </g>
     <g id="text_19">
      <!-- AT -->
      <g transform="translate(685.466534 406.657965) rotate(-45) scale(0.3 -0.3)">
       <use xlink:href="#DejaVuSans-41"/>
       <use xlink:href="#DejaVuSans-54" x="60.658203"/>
      </g>
     </g>
    </g>
    <g id="xtick_20">
     <g id="line2d_20">
      <g>
       <use xlink:href="#mbab1840de4" x="727.508215" y="357.715484" style="stroke: #000000; stroke-width: 0.8"/>
      </g>
     </g>
     <g id="text_20">
      <!-- LT -->
      <g transform="translate(722.431962 402.693747) rotate(-45) scale(0.3 -0.3)">
       <use xlink:href="#DejaVuSans-4c"/>
       <use xlink:href="#DejaVuSans-54" x="41.962891"/>
      </g>
     </g>
    </g>
    <g id="xtick_21">
     <g id="line2d_21">
      <g>
       <use xlink:href="#mbab1840de4" x="762.491535" y="357.715484" style="stroke: #000000; stroke-width: 0.8"/>
      </g>
     </g>
     <g id="text_21">
      <!-- GE -->
      <g transform="translate(753.424547 410.675215) rotate(-45) scale(0.3 -0.3)">
       <use xlink:href="#DejaVuSans-47"/>
       <use xlink:href="#DejaVuSans-45" x="77.490234"/>
      </g>
     </g>
    </g>
    <g id="xtick_22">
     <g id="line2d_22">
      <g>
       <use xlink:href="#mbab1840de4" x="797.474854" y="357.715484" style="stroke: #000000; stroke-width: 0.8"/>
      </g>
     </g>
     <g id="text_22">
      <!-- AZ -->
      <g transform="translate(788.807272 409.876405) rotate(-45) scale(0.3 -0.3)">
       <use xlink:href="#DejaVuSans-41"/>
       <use xlink:href="#DejaVuSans-5a" x="68.408203"/>
      </g>
     </g>
    </g>
   </g>
   <g id="matplotlib.axis_2">
    <g id="ytick_1">
     <g id="line2d_23">
      <path d="M 10.7 357.715484 
L 849.6 357.715484 
" clip-path="url(#pef7143578b)" style="fill: none; stroke: #b0b0b0; stroke-width: 0.8; stroke-linecap: square"/>
     </g>
     <g id="line2d_24">
      <defs>
       <path id="m41ff842bb4" d="M 0 0 
L -3.5 0 
" style="stroke: #000000; stroke-width: 0.8"/>
      </defs>
      <g>
       <use xlink:href="#m41ff842bb4" x="10.7" y="357.715484" style="stroke: #000000; stroke-width: 0.8"/>
      </g>
     </g>
    </g>
    <g id="ytick_2">
     <g id="line2d_25">
      <path d="M 10.7 305.555442 
L 849.6 305.555442 
" clip-path="url(#pef7143578b)" style="fill: none; stroke: #b0b0b0; stroke-width: 0.8; stroke-linecap: square"/>
     </g>
     <g id="line2d_26">
      <g>
       <use xlink:href="#m41ff842bb4" x="10.7" y="305.555442" style="stroke: #000000; stroke-width: 0.8"/>
      </g>
     </g>
    </g>
    <g id="ytick_3">
     <g id="line2d_27">
      <path d="M 10.7 253.395399 
L 849.6 253.395399 
" clip-path="url(#pef7143578b)" style="fill: none; stroke: #b0b0b0; stroke-width: 0.8; stroke-linecap: square"/>
     </g>
     <g id="line2d_28">
      <g>
       <use xlink:href="#m41ff842bb4" x="10.7" y="253.395399" style="stroke: #000000; stroke-width: 0.8"/>
      </g>
     </g>
    </g>
    <g id="ytick_4">
     <g id="line2d_29">
      <path d="M 10.7 201.235357 
L 849.6 201.235357 
" clip-path="url(#pef7143578b)" style="fill: none; stroke: #b0b0b0; stroke-width: 0.8; stroke-linecap: square"/>
     </g>
     <g id="line2d_30">
      <g>
       <use xlink:href="#m41ff842bb4" x="10.7" y="201.235357" style="stroke: #000000; stroke-width: 0.8"/>
      </g>
     </g>
    </g>
    <g id="ytick_5">
     <g id="line2d_31">
      <path d="M 10.7 149.075315 
L 849.6 149.075315 
" clip-path="url(#pef7143578b)" style="fill: none; stroke: #b0b0b0; stroke-width: 0.8; stroke-linecap: square"/>
     </g>
     <g id="line2d_32">
      <g>
       <use xlink:href="#m41ff842bb4" x="10.7" y="149.075315" style="stroke: #000000; stroke-width: 0.8"/>
      </g>
     </g>
    </g>
    <g id="ytick_6">
     <g id="line2d_33">
      <path d="M 10.7 96.915273 
L 849.6 96.915273 
" clip-path="url(#pef7143578b)" style="fill: none; stroke: #b0b0b0; stroke-width: 0.8; stroke-linecap: square"/>
     </g>
     <g id="line2d_34">
      <g>
       <use xlink:href="#m41ff842bb4" x="10.7" y="96.915273" style="stroke: #000000; stroke-width: 0.8"/>
      </g>
     </g>
    </g>
    <g id="ytick_7">
     <g id="line2d_35">
      <path d="M 10.7 44.75523 
L 849.6 44.75523 
" clip-path="url(#pef7143578b)" style="fill: none; stroke: #b0b0b0; stroke-width: 0.8; stroke-linecap: square"/>
     </g>
     <g id="line2d_36">
      <g>
       <use xlink:href="#m41ff842bb4" x="10.7" y="44.75523" style="stroke: #000000; stroke-width: 0.8"/>
      </g>
     </g>
    </g>
   </g>
   <g id="patch_47">
    <path d="M 10.7 357.715484 
L 10.7 7.2 
" style="fill: none; stroke: #000000; stroke-width: 0.8; stroke-linejoin: miter; stroke-linecap: square"/>
   </g>
   <g id="patch_48">
    <path d="M 849.6 357.715484 
L 849.6 7.2 
" style="fill: none; stroke: #000000; stroke-width: 0.8; stroke-linejoin: miter; stroke-linecap: square"/>
   </g>
   <g id="patch_49">
    <path d="M 10.7 357.715484 
L 849.6 357.715484 
" style="fill: none; stroke: #000000; stroke-width: 0.8; stroke-linejoin: miter; stroke-linecap: square"/>
   </g>
   <g id="patch_50">
    <path d="M 10.7 7.2 
L 849.6 7.2 
" style="fill: none; stroke: #000000; stroke-width: 0.8; stroke-linejoin: miter; stroke-linecap: square"/>
   </g>
   <g id="text_23">
    <!-- 10 -->
    <g style="opacity: 0.4" transform="translate(224.650146 261.673524) scale(0.3 -0.3)">
     <defs>
      <path id="DejaVuSans-31" d="M 794 531 
L 1825 531 
L 1825 4091 
L 703 3866 
L 703 4441 
L 1819 4666 
L 2450 4666 
L 2450 531 
L 3481 531 
L 3481 0 
L 794 0 
L 794 531 
z
" transform="scale(0.015625)"/>
      <path id="DejaVuSans-30" d="M 2034 4250 
Q 1547 4250 1301 3770 
Q 1056 3291 1056 2328 
Q 1056 1369 1301 889 
Q 1547 409 2034 409 
Q 2525 409 2770 889 
Q 3016 1369 3016 2328 
Q 3016 3291 2770 3770 
Q 2525 4250 2034 4250 
z
M 2034 4750 
Q 2819 4750 3233 4129 
Q 3647 3509 3647 2328 
Q 3647 1150 3233 529 
Q 2819 -91 2034 -91 
Q 1250 -91 836 529 
Q 422 1150 422 2328 
Q 422 3509 836 4129 
Q 1250 4750 2034 4750 
z
" transform="scale(0.015625)"/>
     </defs>
     <use xlink:href="#DejaVuSans-31"/>
     <use xlink:href="#DejaVuSans-30" x="63.623047"/>
    </g>
   </g>
   <g id="text_24">
    <!-- 20 -->
    <g style="opacity: 0.4" transform="translate(224.650146 157.35344) scale(0.3 -0.3)">
     <defs>
      <path id="DejaVuSans-32" d="M 1228 531 
L 3431 531 
L 3431 0 
L 469 0 
L 469 531 
Q 828 903 1448 1529 
Q 2069 2156 2228 2338 
Q 2531 2678 2651 2914 
Q 2772 3150 2772 3378 
Q 2772 3750 2511 3984 
Q 2250 4219 1831 4219 
Q 1534 4219 1204 4116 
Q 875 4013 500 3803 
L 500 4441 
Q 881 4594 1212 4672 
Q 1544 4750 1819 4750 
Q 2544 4750 2975 4387 
Q 3406 4025 3406 3419 
Q 3406 3131 3298 2873 
Q 3191 2616 2906 2266 
Q 2828 2175 2409 1742 
Q 1991 1309 1228 531 
z
" transform="scale(0.015625)"/>
     </defs>
     <use xlink:href="#DejaVuSans-32"/>
     <use xlink:href="#DejaVuSans-30" x="63.623047"/>
    </g>
   </g>
   <g id="legend_1">
    <g id="patch_51">
     <path d="M 383.442187 175.303125 
L 818.1 175.303125 
Q 827.1 175.303125 827.1 166.303125 
L 827.1 38.7 
Q 827.1 29.7 818.1 29.7 
L 383.442187 29.7 
Q 374.442187 29.7 374.442187 38.7 
L 374.442187 166.303125 
Q 374.442187 175.303125 383.442187 175.303125 
z
" style="fill: #ffffff; opacity: 0.8; stroke: #cccccc; stroke-linejoin: miter"/>
    </g>
    <g id="patch_52">
     <path d="M 392.442187 81.892969 
L 482.442187 81.892969 
L 482.442187 50.392969 
L 392.442187 50.392969 
z
" style="fill: #1f77b4"/>
    </g>
    <g id="text_25">
     <!-- Sink -->
     <g transform="translate(518.442187 81.892969) scale(0.45 -0.45)">
      <defs>
       <path id="DejaVuSans-69" d="M 603 3500 
L 1178 3500 
L 1178 0 
L 603 0 
L 603 3500 
z
M 603 4863 
L 1178 4863 
L 1178 4134 
L 603 4134 
L 603 4863 
z
" transform="scale(0.015625)"/>
       <path id="DejaVuSans-6e" d="M 3513 2113 
L 3513 0 
L 2938 0 
L 2938 2094 
Q 2938 2591 2744 2837 
Q 2550 3084 2163 3084 
Q 1697 3084 1428 2787 
Q 1159 2491 1159 1978 
L 1159 0 
L 581 0 
L 581 3500 
L 1159 3500 
L 1159 2956 
Q 1366 3272 1645 3428 
Q 1925 3584 2291 3584 
Q 2894 3584 3203 3211 
Q 3513 2838 3513 2113 
z
" transform="scale(0.015625)"/>
       <path id="DejaVuSans-6b" d="M 581 4863 
L 1159 4863 
L 1159 1991 
L 2875 3500 
L 3609 3500 
L 1753 1863 
L 3688 0 
L 2938 0 
L 1159 1709 
L 1159 0 
L 581 0 
L 581 4863 
z
" transform="scale(0.015625)"/>
      </defs>
      <use xlink:href="#DejaVuSans-53"/>
      <use xlink:href="#DejaVuSans-69" x="63.476562"/>
      <use xlink:href="#DejaVuSans-6e" x="91.259766"/>
      <use xlink:href="#DejaVuSans-6b" x="154.638672"/>
     </g>
    </g>
    <g id="patch_53">
     <path d="M 392.442187 147.944531 
L 482.442187 147.944531 
L 482.442187 116.444531 
L 392.442187 116.444531 
z
" style="fill: #ff7f0e"/>
    </g>
    <g id="text_26">
     <!-- Transmission -->
     <g transform="translate(518.442187 147.944531) scale(0.45 -0.45)">
      <defs>
       <path id="DejaVuSans-72" d="M 2631 2963 
Q 2534 3019 2420 3045 
Q 2306 3072 2169 3072 
Q 1681 3072 1420 2755 
Q 1159 2438 1159 1844 
L 1159 0 
L 581 0 
L 581 3500 
L 1159 3500 
L 1159 2956 
Q 1341 3275 1631 3429 
Q 1922 3584 2338 3584 
Q 2397 3584 2469 3576 
Q 2541 3569 2628 3553 
L 2631 2963 
z
" transform="scale(0.015625)"/>
       <path id="DejaVuSans-61" d="M 2194 1759 
Q 1497 1759 1228 1600 
Q 959 1441 959 1056 
Q 959 750 1161 570 
Q 1363 391 1709 391 
Q 2188 391 2477 730 
Q 2766 1069 2766 1631 
L 2766 1759 
L 2194 1759 
z
M 3341 1997 
L 3341 0 
L 2766 0 
L 2766 531 
Q 2569 213 2275 61 
Q 1981 -91 1556 -91 
Q 1019 -91 701 211 
Q 384 513 384 1019 
Q 384 1609 779 1909 
Q 1175 2209 1959 2209 
L 2766 2209 
L 2766 2266 
Q 2766 2663 2505 2880 
Q 2244 3097 1772 3097 
Q 1472 3097 1187 3025 
Q 903 2953 641 2809 
L 641 3341 
Q 956 3463 1253 3523 
Q 1550 3584 1831 3584 
Q 2591 3584 2966 3190 
Q 3341 2797 3341 1997 
z
" transform="scale(0.015625)"/>
       <path id="DejaVuSans-73" d="M 2834 3397 
L 2834 2853 
Q 2591 2978 2328 3040 
Q 2066 3103 1784 3103 
Q 1356 3103 1142 2972 
Q 928 2841 928 2578 
Q 928 2378 1081 2264 
Q 1234 2150 1697 2047 
L 1894 2003 
Q 2506 1872 2764 1633 
Q 3022 1394 3022 966 
Q 3022 478 2636 193 
Q 2250 -91 1575 -91 
Q 1294 -91 989 -36 
Q 684 19 347 128 
L 347 722 
Q 666 556 975 473 
Q 1284 391 1588 391 
Q 1994 391 2212 530 
Q 2431 669 2431 922 
Q 2431 1156 2273 1281 
Q 2116 1406 1581 1522 
L 1381 1569 
Q 847 1681 609 1914 
Q 372 2147 372 2553 
Q 372 3047 722 3315 
Q 1072 3584 1716 3584 
Q 2034 3584 2315 3537 
Q 2597 3491 2834 3397 
z
" transform="scale(0.015625)"/>
       <path id="DejaVuSans-6d" d="M 3328 2828 
Q 3544 3216 3844 3400 
Q 4144 3584 4550 3584 
Q 5097 3584 5394 3201 
Q 5691 2819 5691 2113 
L 5691 0 
L 5113 0 
L 5113 2094 
Q 5113 2597 4934 2840 
Q 4756 3084 4391 3084 
Q 3944 3084 3684 2787 
Q 3425 2491 3425 1978 
L 3425 0 
L 2847 0 
L 2847 2094 
Q 2847 2600 2669 2842 
Q 2491 3084 2119 3084 
Q 1678 3084 1418 2786 
Q 1159 2488 1159 1978 
L 1159 0 
L 581 0 
L 581 3500 
L 1159 3500 
L 1159 2956 
Q 1356 3278 1631 3431 
Q 1906 3584 2284 3584 
Q 2666 3584 2933 3390 
Q 3200 3197 3328 2828 
z
" transform="scale(0.015625)"/>
       <path id="DejaVuSans-6f" d="M 1959 3097 
Q 1497 3097 1228 2736 
Q 959 2375 959 1747 
Q 959 1119 1226 758 
Q 1494 397 1959 397 
Q 2419 397 2687 759 
Q 2956 1122 2956 1747 
Q 2956 2369 2687 2733 
Q 2419 3097 1959 3097 
z
M 1959 3584 
Q 2709 3584 3137 3096 
Q 3566 2609 3566 1747 
Q 3566 888 3137 398 
Q 2709 -91 1959 -91 
Q 1206 -91 779 398 
Q 353 888 353 1747 
Q 353 2609 779 3096 
Q 1206 3584 1959 3584 
z
" transform="scale(0.015625)"/>
      </defs>
      <use xlink:href="#DejaVuSans-54"/>
      <use xlink:href="#DejaVuSans-72" x="46.333984"/>
      <use xlink:href="#DejaVuSans-61" x="87.447266"/>
      <use xlink:href="#DejaVuSans-6e" x="148.726562"/>
      <use xlink:href="#DejaVuSans-73" x="212.105469"/>
      <use xlink:href="#DejaVuSans-6d" x="264.205078"/>
      <use xlink:href="#DejaVuSans-69" x="361.617188"/>
      <use xlink:href="#DejaVuSans-73" x="389.400391"/>
      <use xlink:href="#DejaVuSans-73" x="441.5"/>
      <use xlink:href="#DejaVuSans-69" x="493.599609"/>
      <use xlink:href="#DejaVuSans-6f" x="521.382812"/>
      <use xlink:href="#DejaVuSans-6e" x="582.564453"/>
     </g>
    </g>
   </g>
  </g>
 </g>
 <defs>
  <clipPath id="pef7143578b">
   <rect x="10.7" y="7.2" width="838.9" height="350.515484"/>
  </clipPath>
 </defs>
</svg>
