<?xml version="1.0" encoding="utf-8" standalone="no"?>
<!DOCTYPE svg PUBLIC "-//W3C//DTD SVG 1.1//EN"
  "http://www.w3.org/Graphics/SVG/1.1/DTD/svg11.dtd">
<svg xmlns:xlink="http://www.w3.org/1999/xlink" width="712.714687pt" height="424.113437pt" viewBox="0 0 712.714687 424.113437" xmlns="http://www.w3.org/2000/svg" version="1.1">
 <metadata>
  <rdf:RDF xmlns:dc="http://purl.org/dc/elements/1.1/" xmlns:cc="http://creativecommons.org/ns#" xmlns:rdf="http://www.w3.org/1999/02/22-rdf-syntax-ns#">
   <cc:Work>
    <dc:type rdf:resource="http://purl.org/dc/dcmitype/StillImage"/>
    <dc:date>2024-06-30T14:48:38.870876</dc:date>
    <dc:format>image/svg+xml</dc:format>
    <dc:creator>
     <cc:Agent>
      <dc:title>Matplotlib v3.8.4, https://matplotlib.org/</dc:title>
     </cc:Agent>
    </dc:creator>
   </cc:Work>
  </rdf:RDF>
 </metadata>
 <defs>
  <style type="text/css">*{stroke-linejoin: round; stroke-linecap: butt}</style>
 </defs>
 <g id="figure_1">
  <g id="patch_1">
   <path d="M 0 424.113437 
L 712.714687 424.113437 
L 712.714687 0 
L 0 0 
z
" style="fill: #ffffff"/>
  </g>
  <g id="axes_1">
   <g id="patch_2">
    <path d="M 38.054688 372.04 
L 705.514688 372.04 
L 705.514688 7.2 
L 38.054688 7.2 
z
" style="fill: #ffffff"/>
   </g>
   <g id="matplotlib.axis_1">
    <g id="xtick_1">
     <g id="line2d_1">
      <path d="M 68.393778 372.04 
L 68.393778 7.2 
" clip-path="url(#p48e437297a)" style="fill: none; stroke: #b0b0b0; stroke-opacity: 0.2; stroke-width: 0.8; stroke-linecap: square"/>
     </g>
     <g id="line2d_2">
      <defs>
       <path id="m5073b58751" d="M 0 0 
L 0 3.5 
" style="stroke: #000000; stroke-width: 0.8"/>
      </defs>
      <g>
       <use xlink:href="#m5073b58751" x="68.393778" y="372.04" style="stroke: #000000; stroke-width: 0.8"/>
      </g>
     </g>
     <g id="text_1">
      <!-- 0 -->
      <g transform="translate(63.621903 390.437656) scale(0.15 -0.15)">
       <defs>
        <path id="DejaVuSans-30" d="M 2034 4250 
Q 1547 4250 1301 3770 
Q 1056 3291 1056 2328 
Q 1056 1369 1301 889 
Q 1547 409 2034 409 
Q 2525 409 2770 889 
Q 3016 1369 3016 2328 
Q 3016 3291 2770 3770 
Q 2525 4250 2034 4250 
z
M 2034 4750 
Q 2819 4750 3233 4129 
Q 3647 3509 3647 2328 
Q 3647 1150 3233 529 
Q 2819 -91 2034 -91 
Q 1250 -91 836 529 
Q 422 1150 422 2328 
Q 422 3509 836 4129 
Q 1250 4750 2034 4750 
z
" transform="scale(0.015625)"/>
       </defs>
       <use xlink:href="#DejaVuSans-30"/>
      </g>
     </g>
    </g>
    <g id="xtick_2">
     <g id="line2d_3">
      <path d="M 189.750142 372.04 
L 189.750142 7.2 
" clip-path="url(#p48e437297a)" style="fill: none; stroke: #b0b0b0; stroke-opacity: 0.2; stroke-width: 0.8; stroke-linecap: square"/>
     </g>
     <g id="line2d_4">
      <g>
       <use xlink:href="#m5073b58751" x="189.750142" y="372.04" style="stroke: #000000; stroke-width: 0.8"/>
      </g>
     </g>
     <g id="text_2">
      <!-- 20 -->
      <g transform="translate(180.206392 390.437656) scale(0.15 -0.15)">
       <defs>
        <path id="DejaVuSans-32" d="M 1228 531 
L 3431 531 
L 3431 0 
L 469 0 
L 469 531 
Q 828 903 1448 1529 
Q 2069 2156 2228 2338 
Q 2531 2678 2651 2914 
Q 2772 3150 2772 3378 
Q 2772 3750 2511 3984 
Q 2250 4219 1831 4219 
Q 1534 4219 1204 4116 
Q 875 4013 500 3803 
L 500 4441 
Q 881 4594 1212 4672 
Q 1544 4750 1819 4750 
Q 2544 4750 2975 4387 
Q 3406 4025 3406 3419 
Q 3406 3131 3298 2873 
Q 3191 2616 2906 2266 
Q 2828 2175 2409 1742 
Q 1991 1309 1228 531 
z
" transform="scale(0.015625)"/>
       </defs>
       <use xlink:href="#DejaVuSans-32"/>
       <use xlink:href="#DejaVuSans-30" x="63.623047"/>
      </g>
     </g>
    </g>
    <g id="xtick_3">
     <g id="line2d_5">
      <path d="M 311.106506 372.04 
L 311.106506 7.2 
" clip-path="url(#p48e437297a)" style="fill: none; stroke: #b0b0b0; stroke-opacity: 0.2; stroke-width: 0.8; stroke-linecap: square"/>
     </g>
     <g id="line2d_6">
      <g>
       <use xlink:href="#m5073b58751" x="311.106506" y="372.04" style="stroke: #000000; stroke-width: 0.8"/>
      </g>
     </g>
     <g id="text_3">
      <!-- 40 -->
      <g transform="translate(301.562756 390.437656) scale(0.15 -0.15)">
       <defs>
        <path id="DejaVuSans-34" d="M 2419 4116 
L 825 1625 
L 2419 1625 
L 2419 4116 
z
M 2253 4666 
L 3047 4666 
L 3047 1625 
L 3713 1625 
L 3713 1100 
L 3047 1100 
L 3047 0 
L 2419 0 
L 2419 1100 
L 313 1100 
L 313 1709 
L 2253 4666 
z
" transform="scale(0.015625)"/>
       </defs>
       <use xlink:href="#DejaVuSans-34"/>
       <use xlink:href="#DejaVuSans-30" x="63.623047"/>
      </g>
     </g>
    </g>
    <g id="xtick_4">
     <g id="line2d_7">
      <path d="M 432.462869 372.04 
L 432.462869 7.2 
" clip-path="url(#p48e437297a)" style="fill: none; stroke: #b0b0b0; stroke-opacity: 0.2; stroke-width: 0.8; stroke-linecap: square"/>
     </g>
     <g id="line2d_8">
      <g>
       <use xlink:href="#m5073b58751" x="432.462869" y="372.04" style="stroke: #000000; stroke-width: 0.8"/>
      </g>
     </g>
     <g id="text_4">
      <!-- 60 -->
      <g transform="translate(422.919119 390.437656) scale(0.15 -0.15)">
       <defs>
        <path id="DejaVuSans-36" d="M 2113 2584 
Q 1688 2584 1439 2293 
Q 1191 2003 1191 1497 
Q 1191 994 1439 701 
Q 1688 409 2113 409 
Q 2538 409 2786 701 
Q 3034 994 3034 1497 
Q 3034 2003 2786 2293 
Q 2538 2584 2113 2584 
z
M 3366 4563 
L 3366 3988 
Q 3128 4100 2886 4159 
Q 2644 4219 2406 4219 
Q 1781 4219 1451 3797 
Q 1122 3375 1075 2522 
Q 1259 2794 1537 2939 
Q 1816 3084 2150 3084 
Q 2853 3084 3261 2657 
Q 3669 2231 3669 1497 
Q 3669 778 3244 343 
Q 2819 -91 2113 -91 
Q 1303 -91 875 529 
Q 447 1150 447 2328 
Q 447 3434 972 4092 
Q 1497 4750 2381 4750 
Q 2619 4750 2861 4703 
Q 3103 4656 3366 4563 
z
" transform="scale(0.015625)"/>
       </defs>
       <use xlink:href="#DejaVuSans-36"/>
       <use xlink:href="#DejaVuSans-30" x="63.623047"/>
      </g>
     </g>
    </g>
    <g id="xtick_5">
     <g id="line2d_9">
      <path d="M 553.819233 372.04 
L 553.819233 7.2 
" clip-path="url(#p48e437297a)" style="fill: none; stroke: #b0b0b0; stroke-opacity: 0.2; stroke-width: 0.8; stroke-linecap: square"/>
     </g>
     <g id="line2d_10">
      <g>
       <use xlink:href="#m5073b58751" x="553.819233" y="372.04" style="stroke: #000000; stroke-width: 0.8"/>
      </g>
     </g>
     <g id="text_5">
      <!-- 80 -->
      <g transform="translate(544.275483 390.437656) scale(0.15 -0.15)">
       <defs>
        <path id="DejaVuSans-38" d="M 2034 2216 
Q 1584 2216 1326 1975 
Q 1069 1734 1069 1313 
Q 1069 891 1326 650 
Q 1584 409 2034 409 
Q 2484 409 2743 651 
Q 3003 894 3003 1313 
Q 3003 1734 2745 1975 
Q 2488 2216 2034 2216 
z
M 1403 2484 
Q 997 2584 770 2862 
Q 544 3141 544 3541 
Q 544 4100 942 4425 
Q 1341 4750 2034 4750 
Q 2731 4750 3128 4425 
Q 3525 4100 3525 3541 
Q 3525 3141 3298 2862 
Q 3072 2584 2669 2484 
Q 3125 2378 3379 2068 
Q 3634 1759 3634 1313 
Q 3634 634 3220 271 
Q 2806 -91 2034 -91 
Q 1263 -91 848 271 
Q 434 634 434 1313 
Q 434 1759 690 2068 
Q 947 2378 1403 2484 
z
M 1172 3481 
Q 1172 3119 1398 2916 
Q 1625 2713 2034 2713 
Q 2441 2713 2670 2916 
Q 2900 3119 2900 3481 
Q 2900 3844 2670 4047 
Q 2441 4250 2034 4250 
Q 1625 4250 1398 4047 
Q 1172 3844 1172 3481 
z
" transform="scale(0.015625)"/>
       </defs>
       <use xlink:href="#DejaVuSans-38"/>
       <use xlink:href="#DejaVuSans-30" x="63.623047"/>
      </g>
     </g>
    </g>
    <g id="xtick_6">
     <g id="line2d_11">
      <path d="M 675.175597 372.04 
L 675.175597 7.2 
" clip-path="url(#p48e437297a)" style="fill: none; stroke: #b0b0b0; stroke-opacity: 0.2; stroke-width: 0.8; stroke-linecap: square"/>
     </g>
     <g id="line2d_12">
      <g>
       <use xlink:href="#m5073b58751" x="675.175597" y="372.04" style="stroke: #000000; stroke-width: 0.8"/>
      </g>
     </g>
     <g id="text_6">
      <!-- 100 -->
      <g transform="translate(660.859972 390.437656) scale(0.15 -0.15)">
       <defs>
        <path id="DejaVuSans-31" d="M 794 531 
L 1825 531 
L 1825 4091 
L 703 3866 
L 703 4441 
L 1819 4666 
L 2450 4666 
L 2450 531 
L 3481 531 
L 3481 0 
L 794 0 
L 794 531 
z
" transform="scale(0.015625)"/>
       </defs>
       <use xlink:href="#DejaVuSans-31"/>
       <use xlink:href="#DejaVuSans-30" x="63.623047"/>
       <use xlink:href="#DejaVuSans-30" x="127.246094"/>
      </g>
     </g>
    </g>
    <g id="text_7">
     <!-- k edge removals -->
     <g transform="translate(288.701875 412.754062) scale(0.2 -0.2)">
      <defs>
       <path id="DejaVuSans-6b" d="M 581 4863 
L 1159 4863 
L 1159 1991 
L 2875 3500 
L 3609 3500 
L 1753 1863 
L 3688 0 
L 2938 0 
L 1159 1709 
L 1159 0 
L 581 0 
L 581 4863 
z
" transform="scale(0.015625)"/>
       <path id="DejaVuSans-20" transform="scale(0.015625)"/>
       <path id="DejaVuSans-65" d="M 3597 1894 
L 3597 1613 
L 953 1613 
Q 991 1019 1311 708 
Q 1631 397 2203 397 
Q 2534 397 2845 478 
Q 3156 559 3463 722 
L 3463 178 
Q 3153 47 2828 -22 
Q 2503 -91 2169 -91 
Q 1331 -91 842 396 
Q 353 884 353 1716 
Q 353 2575 817 3079 
Q 1281 3584 2069 3584 
Q 2775 3584 3186 3129 
Q 3597 2675 3597 1894 
z
M 3022 2063 
Q 3016 2534 2758 2815 
Q 2500 3097 2075 3097 
Q 1594 3097 1305 2825 
Q 1016 2553 972 2059 
L 3022 2063 
z
" transform="scale(0.015625)"/>
       <path id="DejaVuSans-64" d="M 2906 2969 
L 2906 4863 
L 3481 4863 
L 3481 0 
L 2906 0 
L 2906 525 
Q 2725 213 2448 61 
Q 2172 -91 1784 -91 
Q 1150 -91 751 415 
Q 353 922 353 1747 
Q 353 2572 751 3078 
Q 1150 3584 1784 3584 
Q 2172 3584 2448 3432 
Q 2725 3281 2906 2969 
z
M 947 1747 
Q 947 1113 1208 752 
Q 1469 391 1925 391 
Q 2381 391 2643 752 
Q 2906 1113 2906 1747 
Q 2906 2381 2643 2742 
Q 2381 3103 1925 3103 
Q 1469 3103 1208 2742 
Q 947 2381 947 1747 
z
" transform="scale(0.015625)"/>
       <path id="DejaVuSans-67" d="M 2906 1791 
Q 2906 2416 2648 2759 
Q 2391 3103 1925 3103 
Q 1463 3103 1205 2759 
Q 947 2416 947 1791 
Q 947 1169 1205 825 
Q 1463 481 1925 481 
Q 2391 481 2648 825 
Q 2906 1169 2906 1791 
z
M 3481 434 
Q 3481 -459 3084 -895 
Q 2688 -1331 1869 -1331 
Q 1566 -1331 1297 -1286 
Q 1028 -1241 775 -1147 
L 775 -588 
Q 1028 -725 1275 -790 
Q 1522 -856 1778 -856 
Q 2344 -856 2625 -561 
Q 2906 -266 2906 331 
L 2906 616 
Q 2728 306 2450 153 
Q 2172 0 1784 0 
Q 1141 0 747 490 
Q 353 981 353 1791 
Q 353 2603 747 3093 
Q 1141 3584 1784 3584 
Q 2172 3584 2450 3431 
Q 2728 3278 2906 2969 
L 2906 3500 
L 3481 3500 
L 3481 434 
z
" transform="scale(0.015625)"/>
       <path id="DejaVuSans-72" d="M 2631 2963 
Q 2534 3019 2420 3045 
Q 2306 3072 2169 3072 
Q 1681 3072 1420 2755 
Q 1159 2438 1159 1844 
L 1159 0 
L 581 0 
L 581 3500 
L 1159 3500 
L 1159 2956 
Q 1341 3275 1631 3429 
Q 1922 3584 2338 3584 
Q 2397 3584 2469 3576 
Q 2541 3569 2628 3553 
L 2631 2963 
z
" transform="scale(0.015625)"/>
       <path id="DejaVuSans-6d" d="M 3328 2828 
Q 3544 3216 3844 3400 
Q 4144 3584 4550 3584 
Q 5097 3584 5394 3201 
Q 5691 2819 5691 2113 
L 5691 0 
L 5113 0 
L 5113 2094 
Q 5113 2597 4934 2840 
Q 4756 3084 4391 3084 
Q 3944 3084 3684 2787 
Q 3425 2491 3425 1978 
L 3425 0 
L 2847 0 
L 2847 2094 
Q 2847 2600 2669 2842 
Q 2491 3084 2119 3084 
Q 1678 3084 1418 2786 
Q 1159 2488 1159 1978 
L 1159 0 
L 581 0 
L 581 3500 
L 1159 3500 
L 1159 2956 
Q 1356 3278 1631 3431 
Q 1906 3584 2284 3584 
Q 2666 3584 2933 3390 
Q 3200 3197 3328 2828 
z
" transform="scale(0.015625)"/>
       <path id="DejaVuSans-6f" d="M 1959 3097 
Q 1497 3097 1228 2736 
Q 959 2375 959 1747 
Q 959 1119 1226 758 
Q 1494 397 1959 397 
Q 2419 397 2687 759 
Q 2956 1122 2956 1747 
Q 2956 2369 2687 2733 
Q 2419 3097 1959 3097 
z
M 1959 3584 
Q 2709 3584 3137 3096 
Q 3566 2609 3566 1747 
Q 3566 888 3137 398 
Q 2709 -91 1959 -91 
Q 1206 -91 779 398 
Q 353 888 353 1747 
Q 353 2609 779 3096 
Q 1206 3584 1959 3584 
z
" transform="scale(0.015625)"/>
       <path id="DejaVuSans-76" d="M 191 3500 
L 800 3500 
L 1894 563 
L 2988 3500 
L 3597 3500 
L 2284 0 
L 1503 0 
L 191 3500 
z
" transform="scale(0.015625)"/>
       <path id="DejaVuSans-61" d="M 2194 1759 
Q 1497 1759 1228 1600 
Q 959 1441 959 1056 
Q 959 750 1161 570 
Q 1363 391 1709 391 
Q 2188 391 2477 730 
Q 2766 1069 2766 1631 
L 2766 1759 
L 2194 1759 
z
M 3341 1997 
L 3341 0 
L 2766 0 
L 2766 531 
Q 2569 213 2275 61 
Q 1981 -91 1556 -91 
Q 1019 -91 701 211 
Q 384 513 384 1019 
Q 384 1609 779 1909 
Q 1175 2209 1959 2209 
L 2766 2209 
L 2766 2266 
Q 2766 2663 2505 2880 
Q 2244 3097 1772 3097 
Q 1472 3097 1187 3025 
Q 903 2953 641 2809 
L 641 3341 
Q 956 3463 1253 3523 
Q 1550 3584 1831 3584 
Q 2591 3584 2966 3190 
Q 3341 2797 3341 1997 
z
" transform="scale(0.015625)"/>
       <path id="DejaVuSans-6c" d="M 603 4863 
L 1178 4863 
L 1178 0 
L 603 0 
L 603 4863 
z
" transform="scale(0.015625)"/>
       <path id="DejaVuSans-73" d="M 2834 3397 
L 2834 2853 
Q 2591 2978 2328 3040 
Q 2066 3103 1784 3103 
Q 1356 3103 1142 2972 
Q 928 2841 928 2578 
Q 928 2378 1081 2264 
Q 1234 2150 1697 2047 
L 1894 2003 
Q 2506 1872 2764 1633 
Q 3022 1394 3022 966 
Q 3022 478 2636 193 
Q 2250 -91 1575 -91 
Q 1294 -91 989 -36 
Q 684 19 347 128 
L 347 722 
Q 666 556 975 473 
Q 1284 391 1588 391 
Q 1994 391 2212 530 
Q 2431 669 2431 922 
Q 2431 1156 2273 1281 
Q 2116 1406 1581 1522 
L 1381 1569 
Q 847 1681 609 1914 
Q 372 2147 372 2553 
Q 372 3047 722 3315 
Q 1072 3584 1716 3584 
Q 2034 3584 2315 3537 
Q 2597 3491 2834 3397 
z
" transform="scale(0.015625)"/>
      </defs>
      <use xlink:href="#DejaVuSans-6b"/>
      <use xlink:href="#DejaVuSans-20" x="57.910156"/>
      <use xlink:href="#DejaVuSans-65" x="89.697266"/>
      <use xlink:href="#DejaVuSans-64" x="151.220703"/>
      <use xlink:href="#DejaVuSans-67" x="214.697266"/>
      <use xlink:href="#DejaVuSans-65" x="278.173828"/>
      <use xlink:href="#DejaVuSans-20" x="339.697266"/>
      <use xlink:href="#DejaVuSans-72" x="371.484375"/>
      <use xlink:href="#DejaVuSans-65" x="410.347656"/>
      <use xlink:href="#DejaVuSans-6d" x="471.871094"/>
      <use xlink:href="#DejaVuSans-6f" x="569.283203"/>
      <use xlink:href="#DejaVuSans-76" x="630.464844"/>
      <use xlink:href="#DejaVuSans-61" x="689.644531"/>
      <use xlink:href="#DejaVuSans-6c" x="750.923828"/>
      <use xlink:href="#DejaVuSans-73" x="778.707031"/>
     </g>
    </g>
   </g>
   <g id="matplotlib.axis_2">
    <g id="ytick_1">
     <g id="line2d_13">
      <path d="M 38.054688 319.618111 
L 705.514688 319.618111 
" clip-path="url(#p48e437297a)" style="fill: none; stroke: #b0b0b0; stroke-opacity: 0.2; stroke-width: 0.8; stroke-linecap: square"/>
     </g>
     <g id="line2d_14">
      <defs>
       <path id="m8e7ce93cfa" d="M 0 0 
L -3.5 0 
" style="stroke: #000000; stroke-width: 0.8"/>
      </defs>
      <g>
       <use xlink:href="#m8e7ce93cfa" x="38.054688" y="319.618111" style="stroke: #000000; stroke-width: 0.8"/>
      </g>
     </g>
     <g id="text_8">
      <!-- 0.2 -->
      <g transform="translate(7.2 325.316939) scale(0.15 -0.15)">
       <defs>
        <path id="DejaVuSans-2e" d="M 684 794 
L 1344 794 
L 1344 0 
L 684 0 
L 684 794 
z
" transform="scale(0.015625)"/>
       </defs>
       <use xlink:href="#DejaVuSans-30"/>
       <use xlink:href="#DejaVuSans-2e" x="63.623047"/>
       <use xlink:href="#DejaVuSans-32" x="95.410156"/>
      </g>
     </g>
    </g>
    <g id="ytick_2">
     <g id="line2d_15">
      <path d="M 38.054688 245.659493 
L 705.514688 245.659493 
" clip-path="url(#p48e437297a)" style="fill: none; stroke: #b0b0b0; stroke-opacity: 0.2; stroke-width: 0.8; stroke-linecap: square"/>
     </g>
     <g id="line2d_16">
      <g>
       <use xlink:href="#m8e7ce93cfa" x="38.054688" y="245.659493" style="stroke: #000000; stroke-width: 0.8"/>
      </g>
     </g>
     <g id="text_9">
      <!-- 0.4 -->
      <g transform="translate(7.2 251.358321) scale(0.15 -0.15)">
       <use xlink:href="#DejaVuSans-30"/>
       <use xlink:href="#DejaVuSans-2e" x="63.623047"/>
       <use xlink:href="#DejaVuSans-34" x="95.410156"/>
      </g>
     </g>
    </g>
    <g id="ytick_3">
     <g id="line2d_17">
      <path d="M 38.054688 171.700874 
L 705.514688 171.700874 
" clip-path="url(#p48e437297a)" style="fill: none; stroke: #b0b0b0; stroke-opacity: 0.2; stroke-width: 0.8; stroke-linecap: square"/>
     </g>
     <g id="line2d_18">
      <g>
       <use xlink:href="#m8e7ce93cfa" x="38.054688" y="171.700874" style="stroke: #000000; stroke-width: 0.8"/>
      </g>
     </g>
     <g id="text_10">
      <!-- 0.6 -->
      <g transform="translate(7.2 177.399702) scale(0.15 -0.15)">
       <use xlink:href="#DejaVuSans-30"/>
       <use xlink:href="#DejaVuSans-2e" x="63.623047"/>
       <use xlink:href="#DejaVuSans-36" x="95.410156"/>
      </g>
     </g>
    </g>
    <g id="ytick_4">
     <g id="line2d_19">
      <path d="M 38.054688 97.742255 
L 705.514688 97.742255 
" clip-path="url(#p48e437297a)" style="fill: none; stroke: #b0b0b0; stroke-opacity: 0.2; stroke-width: 0.8; stroke-linecap: square"/>
     </g>
     <g id="line2d_20">
      <g>
       <use xlink:href="#m8e7ce93cfa" x="38.054688" y="97.742255" style="stroke: #000000; stroke-width: 0.8"/>
      </g>
     </g>
     <g id="text_11">
      <!-- 0.8 -->
      <g transform="translate(7.2 103.441083) scale(0.15 -0.15)">
       <use xlink:href="#DejaVuSans-30"/>
       <use xlink:href="#DejaVuSans-2e" x="63.623047"/>
       <use xlink:href="#DejaVuSans-38" x="95.410156"/>
      </g>
     </g>
    </g>
    <g id="ytick_5">
     <g id="line2d_21">
      <path d="M 38.054688 23.783636 
L 705.514688 23.783636 
" clip-path="url(#p48e437297a)" style="fill: none; stroke: #b0b0b0; stroke-opacity: 0.2; stroke-width: 0.8; stroke-linecap: square"/>
     </g>
     <g id="line2d_22">
      <g>
       <use xlink:href="#m8e7ce93cfa" x="38.054688" y="23.783636" style="stroke: #000000; stroke-width: 0.8"/>
      </g>
     </g>
     <g id="text_12">
      <!-- 1.0 -->
      <g transform="translate(7.2 29.482464) scale(0.15 -0.15)">
       <use xlink:href="#DejaVuSans-31"/>
       <use xlink:href="#DejaVuSans-2e" x="63.623047"/>
       <use xlink:href="#DejaVuSans-30" x="95.410156"/>
      </g>
     </g>
    </g>
   </g>
   <g id="line2d_23">
    <path d="M 68.393778 23.783636 
L 74.461597 42.903323 
L 80.529415 95.066582 
L 86.597233 129.352145 
L 92.665051 172.13675 
L 98.732869 196.62356 
L 104.800688 212.735171 
L 110.868506 212.8441 
L 116.936324 225.280307 
L 123.004142 230.897287 
L 129.07196 242.109651 
L 135.139778 248.862441 
L 141.207597 256.817566 
L 147.275415 263.318337 
L 153.343233 268.467022 
L 159.411051 269.627504 
L 165.478869 269.561563 
L 171.546688 273.796329 
L 177.614506 276.72751 
L 183.682324 277.047737 
L 189.750142 281.24093 
L 195.81796 284.107944 
L 201.885778 287.485503 
L 207.953597 287.668644 
L 214.021415 291.651298 
L 220.089233 291.609241 
L 226.157051 292.053188 
L 232.224869 295.975674 
L 238.292687 298.188744 
L 244.360506 298.22172 
L 250.428324 300.520444 
L 256.496142 302.655311 
L 262.56396 306.078772 
L 268.631778 307.630179 
L 274.699597 312.216827 
L 280.767415 312.694437 
L 286.835233 314.244857 
L 292.903051 315.276602 
L 298.970869 316.406015 
L 305.038688 318.093783 
L 311.106506 319.153215 
L 317.174324 319.402152 
L 323.242142 319.92781 
L 329.30996 321.14114 
L 335.377778 322.972945 
L 341.445597 324.202866 
L 347.513415 325.059311 
L 353.581233 326.499819 
L 359.649051 327.154163 
L 365.716869 327.415386 
L 371.784688 328.427992 
L 377.852506 329.083392 
L 383.920324 329.834014 
L 389.988142 330.81291 
L 396.05596 331.584561 
L 402.123778 332.35317 
L 408.191597 333.18253 
L 414.259415 333.844248 
L 420.327233 334.551385 
L 426.395051 335.428173 
L 432.462869 336.179467 
L 438.530687 336.783984 
L 444.598506 337.217801 
L 450.666324 337.782807 
L 456.734142 338.169524 
L 462.80196 338.694797 
L 468.869778 339.090145 
L 474.937597 339.624347 
L 481.005415 339.625174 
L 487.073233 340.125249 
L 493.141051 340.500453 
L 499.208869 340.981701 
L 505.276687 341.403716 
L 511.344506 341.787911 
L 517.412324 342.159633 
L 523.480142 342.710666 
L 529.54796 343.79326 
L 535.615778 344.281623 
L 541.683597 344.641391 
L 547.751415 345.021907 
L 553.819233 345.395717 
L 559.887051 345.777348 
L 565.954869 348.630585 
L 572.022687 349.011871 
L 578.090506 349.155241 
L 584.158324 349.619674 
L 590.226142 350.028802 
L 596.29396 350.341312 
L 602.361778 350.657681 
L 608.429597 351.055457 
L 614.497415 351.367696 
L 620.565233 351.593037 
L 626.633051 351.940325 
L 632.700869 352.129024 
L 638.768688 352.44808 
L 644.836506 352.723111 
L 650.904324 354.361019 
L 656.972142 354.705321 
L 663.03996 354.959524 
L 669.107778 355.220657 
L 675.175597 355.456364 
" clip-path="url(#p48e437297a)" style="fill: none; stroke: #0000ff; stroke-width: 1.5; stroke-linecap: square"/>
   </g>
   <g id="line2d_24">
    <path d="M 68.393778 23.783636 
L 74.461597 30.3153 
L 80.529415 31.900273 
L 86.597233 37.554853 
L 92.665051 42.996006 
L 98.732869 47.208033 
L 104.800688 52.900602 
L 110.868506 61.03306 
L 116.936324 63.572838 
L 123.004142 71.286204 
L 129.07196 78.338243 
L 135.139778 84.022078 
L 141.207597 87.249216 
L 147.275415 91.741507 
L 153.343233 93.753477 
L 159.411051 100.187376 
L 165.478869 102.993151 
L 171.546688 108.755176 
L 177.614506 111.320068 
L 183.682324 116.741116 
L 189.750142 120.192839 
L 195.81796 124.005638 
L 201.885778 129.537284 
L 207.953597 132.049557 
L 214.021415 136.505771 
L 220.089233 141.568775 
L 226.157051 145.382457 
L 232.224869 149.508334 
L 238.292687 153.287311 
L 244.360506 155.241485 
L 250.428324 158.711798 
L 256.496142 161.288402 
L 262.56396 163.509649 
L 268.631778 166.814845 
L 274.699597 169.247577 
L 280.767415 172.582834 
L 286.835233 175.296558 
L 292.903051 178.338728 
L 298.970869 180.645546 
L 305.038688 182.98451 
L 311.106506 186.405472 
L 317.174324 189.166263 
L 323.242142 190.658612 
L 329.30996 193.389831 
L 335.377778 195.996137 
L 341.445597 197.972569 
L 347.513415 199.349476 
L 353.581233 202.932538 
L 359.649051 204.894004 
L 365.716869 207.736125 
L 371.784688 209.740875 
L 377.852506 212.518046 
L 383.920324 214.378169 
L 389.988142 217.28206 
L 396.05596 218.983755 
L 402.123778 219.849981 
L 408.191597 221.2069 
L 414.259415 223.475479 
L 420.327233 224.311904 
L 426.395051 224.486675 
L 432.462869 225.632101 
L 438.530687 227.075471 
L 444.598506 228.830906 
L 450.666324 230.793855 
L 456.734142 233.149701 
L 462.80196 235.480706 
L 468.869778 237.175415 
L 474.937597 238.78571 
L 481.005415 239.992864 
L 487.073233 241.742183 
L 493.141051 243.163471 
L 499.208869 244.339877 
L 505.276687 246.459938 
L 511.344506 247.95775 
L 517.412324 248.897242 
L 523.480142 250.249945 
L 529.54796 250.403012 
L 535.615778 251.332466 
L 541.683597 252.049364 
L 547.751415 252.09239 
L 553.819233 253.553659 
L 559.887051 254.134228 
L 565.954869 254.918523 
L 572.022687 256.13263 
L 578.090506 257.602751 
L 584.158324 259.506932 
L 590.226142 259.982835 
L 596.29396 261.204685 
L 602.361778 261.688254 
L 608.429597 262.313722 
L 614.497415 263.296293 
L 620.565233 264.486742 
L 626.633051 266.354446 
L 632.700869 267.530212 
L 638.768688 268.811081 
L 644.836506 269.840544 
L 650.904324 271.259999 
L 656.972142 271.844864 
L 663.03996 273.531522 
L 669.107778 274.708626 
L 675.175597 275.734254 
" clip-path="url(#p48e437297a)" style="fill: none; stroke-dasharray: 5.55,2.4; stroke-dashoffset: 0; stroke: #add8e6; stroke-width: 1.5"/>
   </g>
   <g id="patch_3">
    <path d="M 38.054688 372.04 
L 38.054688 7.2 
" style="fill: none; stroke: #000000; stroke-width: 0.8; stroke-linejoin: miter; stroke-linecap: square"/>
   </g>
   <g id="patch_4">
    <path d="M 705.514688 372.04 
L 705.514688 7.2 
" style="fill: none; stroke: #000000; stroke-width: 0.8; stroke-linejoin: miter; stroke-linecap: square"/>
   </g>
   <g id="patch_5">
    <path d="M 38.054688 372.04 
L 705.514688 372.04 
" style="fill: none; stroke: #000000; stroke-width: 0.8; stroke-linejoin: miter; stroke-linecap: square"/>
   </g>
   <g id="patch_6">
    <path d="M 38.054688 7.2 
L 705.514688 7.2 
" style="fill: none; stroke: #000000; stroke-width: 0.8; stroke-linejoin: miter; stroke-linecap: square"/>
   </g>
   <g id="legend_1">
    <g id="patch_7">
     <path d="M 545.464688 73.2 
L 695.014688 73.2 
Q 698.014688 73.2 698.014688 70.2 
L 698.014688 17.7 
Q 698.014688 14.7 695.014688 14.7 
L 545.464688 14.7 
Q 542.464688 14.7 542.464688 17.7 
L 542.464688 70.2 
Q 542.464688 73.2 545.464688 73.2 
z
" style="fill: #ffffff; opacity: 0.8; stroke: #cccccc; stroke-linejoin: miter"/>
    </g>
    <g id="line2d_25">
     <path d="M 548.464688 29.1 
L 563.464688 29.1 
L 578.464688 29.1 
" style="fill: none; stroke: #0000ff; stroke-width: 1.5; stroke-linecap: square"/>
    </g>
    <g id="text_13">
     <!-- $\varphi^{\text{NCPI}}_{G_k}, \text{greedy}$ -->
     <g transform="translate(590.464688 34.35) scale(0.15 -0.15)">
      <defs>
       <path id="DejaVuSans-Oblique-3c6" d="M 2969 3034 
Q 2766 3034 2675 2581 
L 2259 438 
Q 2553 438 2916 763 
Q 3244 1053 3375 1750 
Q 3497 2400 3300 2750 
Q 3138 3034 2969 3034 
z
M 3063 3525 
Q 3513 3525 3819 3113 
Q 4147 2672 3981 1750 
Q 3828 903 3291 400 
Q 2784 -75 2159 -75 
L 1916 -1331 
L 1344 -1331 
L 1588 -78 
Q 963 -78 641 400 
Q 309 888 475 1747 
Q 647 2641 1166 3097 
Q 1556 3438 2084 3525 
L 1984 3016 
Q 1766 2944 1538 2700 
Q 1194 2341 1081 1747 
Q 963 1116 1156 756 
Q 1334 434 1688 434 
L 2103 2581 
Q 2288 3525 3063 3525 
z
" transform="scale(0.015625)"/>
       <path id="DejaVuSans-4e" d="M 628 4666 
L 1478 4666 
L 3547 763 
L 3547 4666 
L 4159 4666 
L 4159 0 
L 3309 0 
L 1241 3903 
L 1241 0 
L 628 0 
L 628 4666 
z
" transform="scale(0.015625)"/>
       <path id="DejaVuSans-43" d="M 4122 4306 
L 4122 3641 
Q 3803 3938 3442 4084 
Q 3081 4231 2675 4231 
Q 1875 4231 1450 3742 
Q 1025 3253 1025 2328 
Q 1025 1406 1450 917 
Q 1875 428 2675 428 
Q 3081 428 3442 575 
Q 3803 722 4122 1019 
L 4122 359 
Q 3791 134 3420 21 
Q 3050 -91 2638 -91 
Q 1578 -91 968 557 
Q 359 1206 359 2328 
Q 359 3453 968 4101 
Q 1578 4750 2638 4750 
Q 3056 4750 3426 4639 
Q 3797 4528 4122 4306 
z
" transform="scale(0.015625)"/>
       <path id="DejaVuSans-50" d="M 1259 4147 
L 1259 2394 
L 2053 2394 
Q 2494 2394 2734 2622 
Q 2975 2850 2975 3272 
Q 2975 3691 2734 3919 
Q 2494 4147 2053 4147 
L 1259 4147 
z
M 628 4666 
L 2053 4666 
Q 2838 4666 3239 4311 
Q 3641 3956 3641 3272 
Q 3641 2581 3239 2228 
Q 2838 1875 2053 1875 
L 1259 1875 
L 1259 0 
L 628 0 
L 628 4666 
z
" transform="scale(0.015625)"/>
       <path id="DejaVuSans-49" d="M 628 4666 
L 1259 4666 
L 1259 0 
L 628 0 
L 628 4666 
z
" transform="scale(0.015625)"/>
       <path id="DejaVuSans-Oblique-47" d="M 3494 697 
L 3738 1919 
L 2700 1919 
L 2797 2438 
L 4453 2438 
L 4050 384 
Q 3634 156 3143 32 
Q 2653 -91 2156 -91 
Q 1278 -91 783 396 
Q 288 884 288 1753 
Q 288 2475 589 3126 
Q 891 3778 1422 4213 
Q 1756 4484 2153 4617 
Q 2550 4750 3034 4750 
Q 3472 4750 3873 4639 
Q 4275 4528 4641 4306 
L 4513 3634 
Q 4231 3928 3853 4083 
Q 3475 4238 3047 4238 
Q 2550 4238 2172 4048 
Q 1794 3859 1497 3463 
Q 1244 3125 1098 2667 
Q 953 2209 953 1734 
Q 953 1081 1287 751 
Q 1622 422 2284 422 
Q 2616 422 2925 492 
Q 3234 563 3494 697 
z
" transform="scale(0.015625)"/>
       <path id="DejaVuSans-Oblique-6b" d="M 1172 4863 
L 1747 4863 
L 1197 2028 
L 3169 3500 
L 3916 3500 
L 1716 1825 
L 3322 0 
L 2625 0 
L 1131 1709 
L 800 0 
L 225 0 
L 1172 4863 
z
" transform="scale(0.015625)"/>
       <path id="DejaVuSans-2c" d="M 750 794 
L 1409 794 
L 1409 256 
L 897 -744 
L 494 -744 
L 750 256 
L 750 794 
z
" transform="scale(0.015625)"/>
       <path id="DejaVuSans-79" d="M 2059 -325 
Q 1816 -950 1584 -1140 
Q 1353 -1331 966 -1331 
L 506 -1331 
L 506 -850 
L 844 -850 
Q 1081 -850 1212 -737 
Q 1344 -625 1503 -206 
L 1606 56 
L 191 3500 
L 800 3500 
L 1894 763 
L 2988 3500 
L 3597 3500 
L 2059 -325 
z
" transform="scale(0.015625)"/>
      </defs>
      <use xlink:href="#DejaVuSans-Oblique-3c6" transform="translate(0 0.765625)"/>
      <use xlink:href="#DejaVuSans-4e" transform="translate(70.48763 39.046875) scale(0.7)"/>
      <use xlink:href="#DejaVuSans-43" transform="translate(122.850911 39.046875) scale(0.7)"/>
      <use xlink:href="#DejaVuSans-50" transform="translate(171.727865 39.046875) scale(0.7)"/>
      <use xlink:href="#DejaVuSans-49" transform="translate(213.939779 39.046875) scale(0.7)"/>
      <use xlink:href="#DejaVuSans-Oblique-47" transform="translate(65.966797 -26.578125) scale(0.7)"/>
      <use xlink:href="#DejaVuSans-Oblique-6b" transform="translate(120.209961 -38.0625) scale(0.49)"/>
      <use xlink:href="#DejaVuSans-2c" transform="translate(237.318685 0.765625)"/>
      <use xlink:href="#DejaVuSans-67" transform="translate(288.588216 0.765625)"/>
      <use xlink:href="#DejaVuSans-72" transform="translate(352.064779 0.765625)"/>
      <use xlink:href="#DejaVuSans-65" transform="translate(393.17806 0.765625)"/>
      <use xlink:href="#DejaVuSans-65" transform="translate(454.701497 0.765625)"/>
      <use xlink:href="#DejaVuSans-64" transform="translate(516.224935 0.765625)"/>
      <use xlink:href="#DejaVuSans-79" transform="translate(579.701497 0.765625)"/>
     </g>
    </g>
    <g id="line2d_26">
     <path d="M 548.464688 56.1 
L 563.464688 56.1 
L 578.464688 56.1 
" style="fill: none; stroke-dasharray: 5.55,2.4; stroke-dashoffset: 0; stroke: #add8e6; stroke-width: 1.5"/>
    </g>
    <g id="text_14">
     <!-- $\varphi^{\text{NCPI}}_{G_k}, \text{random}$ -->
     <g transform="translate(590.464688 61.35) scale(0.15 -0.15)">
      <defs>
       <path id="DejaVuSans-6e" d="M 3513 2113 
L 3513 0 
L 2938 0 
L 2938 2094 
Q 2938 2591 2744 2837 
Q 2550 3084 2163 3084 
Q 1697 3084 1428 2787 
Q 1159 2491 1159 1978 
L 1159 0 
L 581 0 
L 581 3500 
L 1159 3500 
L 1159 2956 
Q 1366 3272 1645 3428 
Q 1925 3584 2291 3584 
Q 2894 3584 3203 3211 
Q 3513 2838 3513 2113 
z
" transform="scale(0.015625)"/>
      </defs>
      <use xlink:href="#DejaVuSans-Oblique-3c6" transform="translate(0 0.765625)"/>
      <use xlink:href="#DejaVuSans-4e" transform="translate(70.48763 39.046875) scale(0.7)"/>
      <use xlink:href="#DejaVuSans-43" transform="translate(122.850911 39.046875) scale(0.7)"/>
      <use xlink:href="#DejaVuSans-50" transform="translate(171.727865 39.046875) scale(0.7)"/>
      <use xlink:href="#DejaVuSans-49" transform="translate(213.939779 39.046875) scale(0.7)"/>
      <use xlink:href="#DejaVuSans-Oblique-47" transform="translate(65.966797 -26.578125) scale(0.7)"/>
      <use xlink:href="#DejaVuSans-Oblique-6b" transform="translate(120.209961 -38.0625) scale(0.49)"/>
      <use xlink:href="#DejaVuSans-2c" transform="translate(237.318685 0.765625)"/>
      <use xlink:href="#DejaVuSans-72" transform="translate(288.588216 0.765625)"/>
      <use xlink:href="#DejaVuSans-61" transform="translate(329.701497 0.765625)"/>
      <use xlink:href="#DejaVuSans-6e" transform="translate(390.980794 0.765625)"/>
      <use xlink:href="#DejaVuSans-64" transform="translate(454.359701 0.765625)"/>
      <use xlink:href="#DejaVuSans-6f" transform="translate(517.836263 0.765625)"/>
      <use xlink:href="#DejaVuSans-6d" transform="translate(579.017904 0.765625)"/>
     </g>
    </g>
   </g>
  </g>
 </g>
 <defs>
  <clipPath id="p48e437297a">
   <rect x="38.054688" y="7.2" width="667.46" height="364.84"/>
  </clipPath>
 </defs>
</svg>
