<?xml version="1.0" encoding="utf-8" standalone="no"?>
<!DOCTYPE svg PUBLIC "-//W3C//DTD SVG 1.1//EN"
  "http://www.w3.org/Graphics/SVG/1.1/DTD/svg11.dtd">
<svg xmlns:xlink="http://www.w3.org/1999/xlink" width="713.799687pt" height="424.113437pt" viewBox="0 0 713.799687 424.113437" xmlns="http://www.w3.org/2000/svg" version="1.1">
 <metadata>
  <rdf:RDF xmlns:dc="http://purl.org/dc/elements/1.1/" xmlns:cc="http://creativecommons.org/ns#" xmlns:rdf="http://www.w3.org/1999/02/22-rdf-syntax-ns#">
   <cc:Work>
    <dc:type rdf:resource="http://purl.org/dc/dcmitype/StillImage"/>
    <dc:date>2024-06-30T14:48:38.245589</dc:date>
    <dc:format>image/svg+xml</dc:format>
    <dc:creator>
     <cc:Agent>
      <dc:title>Matplotlib v3.8.4, https://matplotlib.org/</dc:title>
     </cc:Agent>
    </dc:creator>
   </cc:Work>
  </rdf:RDF>
 </metadata>
 <defs>
  <style type="text/css">*{stroke-linejoin: round; stroke-linecap: butt}</style>
 </defs>
 <g id="figure_1">
  <g id="patch_1">
   <path d="M 0 424.113437 
L 713.799687 424.113437 
L 713.799687 0 
L 0 0 
z
" style="fill: #ffffff"/>
  </g>
  <g id="axes_1">
   <g id="patch_2">
    <path d="M 57.539688 372.04 
L 706.599688 372.04 
L 706.599688 7.2 
L 57.539688 7.2 
z
" style="fill: #ffffff"/>
   </g>
   <g id="matplotlib.axis_1">
    <g id="xtick_1">
     <g id="line2d_1">
      <path d="M 87.042415 372.04 
L 87.042415 7.2 
" clip-path="url(#p15b670b81e)" style="fill: none; stroke: #b0b0b0; stroke-opacity: 0.2; stroke-width: 0.8; stroke-linecap: square"/>
     </g>
     <g id="line2d_2">
      <defs>
       <path id="mb58a76f591" d="M 0 0 
L 0 3.5 
" style="stroke: #000000; stroke-width: 0.8"/>
      </defs>
      <g>
       <use xlink:href="#mb58a76f591" x="87.042415" y="372.04" style="stroke: #000000; stroke-width: 0.8"/>
      </g>
     </g>
     <g id="text_1">
      <!-- 0 -->
      <g transform="translate(82.27054 390.437656) scale(0.15 -0.15)">
       <defs>
        <path id="DejaVuSans-30" d="M 2034 4250 
Q 1547 4250 1301 3770 
Q 1056 3291 1056 2328 
Q 1056 1369 1301 889 
Q 1547 409 2034 409 
Q 2525 409 2770 889 
Q 3016 1369 3016 2328 
Q 3016 3291 2770 3770 
Q 2525 4250 2034 4250 
z
M 2034 4750 
Q 2819 4750 3233 4129 
Q 3647 3509 3647 2328 
Q 3647 1150 3233 529 
Q 2819 -91 2034 -91 
Q 1250 -91 836 529 
Q 422 1150 422 2328 
Q 422 3509 836 4129 
Q 1250 4750 2034 4750 
z
" transform="scale(0.015625)"/>
       </defs>
       <use xlink:href="#DejaVuSans-30"/>
      </g>
     </g>
    </g>
    <g id="xtick_2">
     <g id="line2d_3">
      <path d="M 185.549017 372.04 
L 185.549017 7.2 
" clip-path="url(#p15b670b81e)" style="fill: none; stroke: #b0b0b0; stroke-opacity: 0.2; stroke-width: 0.8; stroke-linecap: square"/>
     </g>
     <g id="line2d_4">
      <g>
       <use xlink:href="#mb58a76f591" x="185.549017" y="372.04" style="stroke: #000000; stroke-width: 0.8"/>
      </g>
     </g>
     <g id="text_2">
      <!-- 100 -->
      <g transform="translate(171.233392 390.437656) scale(0.15 -0.15)">
       <defs>
        <path id="DejaVuSans-31" d="M 794 531 
L 1825 531 
L 1825 4091 
L 703 3866 
L 703 4441 
L 1819 4666 
L 2450 4666 
L 2450 531 
L 3481 531 
L 3481 0 
L 794 0 
L 794 531 
z
" transform="scale(0.015625)"/>
       </defs>
       <use xlink:href="#DejaVuSans-31"/>
       <use xlink:href="#DejaVuSans-30" x="63.623047"/>
       <use xlink:href="#DejaVuSans-30" x="127.246094"/>
      </g>
     </g>
    </g>
    <g id="xtick_3">
     <g id="line2d_5">
      <path d="M 284.055619 372.04 
L 284.055619 7.2 
" clip-path="url(#p15b670b81e)" style="fill: none; stroke: #b0b0b0; stroke-opacity: 0.2; stroke-width: 0.8; stroke-linecap: square"/>
     </g>
     <g id="line2d_6">
      <g>
       <use xlink:href="#mb58a76f591" x="284.055619" y="372.04" style="stroke: #000000; stroke-width: 0.8"/>
      </g>
     </g>
     <g id="text_3">
      <!-- 200 -->
      <g transform="translate(269.739994 390.437656) scale(0.15 -0.15)">
       <defs>
        <path id="DejaVuSans-32" d="M 1228 531 
L 3431 531 
L 3431 0 
L 469 0 
L 469 531 
Q 828 903 1448 1529 
Q 2069 2156 2228 2338 
Q 2531 2678 2651 2914 
Q 2772 3150 2772 3378 
Q 2772 3750 2511 3984 
Q 2250 4219 1831 4219 
Q 1534 4219 1204 4116 
Q 875 4013 500 3803 
L 500 4441 
Q 881 4594 1212 4672 
Q 1544 4750 1819 4750 
Q 2544 4750 2975 4387 
Q 3406 4025 3406 3419 
Q 3406 3131 3298 2873 
Q 3191 2616 2906 2266 
Q 2828 2175 2409 1742 
Q 1991 1309 1228 531 
z
" transform="scale(0.015625)"/>
       </defs>
       <use xlink:href="#DejaVuSans-32"/>
       <use xlink:href="#DejaVuSans-30" x="63.623047"/>
       <use xlink:href="#DejaVuSans-30" x="127.246094"/>
      </g>
     </g>
    </g>
    <g id="xtick_4">
     <g id="line2d_7">
      <path d="M 382.562221 372.04 
L 382.562221 7.2 
" clip-path="url(#p15b670b81e)" style="fill: none; stroke: #b0b0b0; stroke-opacity: 0.2; stroke-width: 0.8; stroke-linecap: square"/>
     </g>
     <g id="line2d_8">
      <g>
       <use xlink:href="#mb58a76f591" x="382.562221" y="372.04" style="stroke: #000000; stroke-width: 0.8"/>
      </g>
     </g>
     <g id="text_4">
      <!-- 300 -->
      <g transform="translate(368.246596 390.437656) scale(0.15 -0.15)">
       <defs>
        <path id="DejaVuSans-33" d="M 2597 2516 
Q 3050 2419 3304 2112 
Q 3559 1806 3559 1356 
Q 3559 666 3084 287 
Q 2609 -91 1734 -91 
Q 1441 -91 1130 -33 
Q 819 25 488 141 
L 488 750 
Q 750 597 1062 519 
Q 1375 441 1716 441 
Q 2309 441 2620 675 
Q 2931 909 2931 1356 
Q 2931 1769 2642 2001 
Q 2353 2234 1838 2234 
L 1294 2234 
L 1294 2753 
L 1863 2753 
Q 2328 2753 2575 2939 
Q 2822 3125 2822 3475 
Q 2822 3834 2567 4026 
Q 2313 4219 1838 4219 
Q 1578 4219 1281 4162 
Q 984 4106 628 3988 
L 628 4550 
Q 988 4650 1302 4700 
Q 1616 4750 1894 4750 
Q 2613 4750 3031 4423 
Q 3450 4097 3450 3541 
Q 3450 3153 3228 2886 
Q 3006 2619 2597 2516 
z
" transform="scale(0.015625)"/>
       </defs>
       <use xlink:href="#DejaVuSans-33"/>
       <use xlink:href="#DejaVuSans-30" x="63.623047"/>
       <use xlink:href="#DejaVuSans-30" x="127.246094"/>
      </g>
     </g>
    </g>
    <g id="xtick_5">
     <g id="line2d_9">
      <path d="M 481.068822 372.04 
L 481.068822 7.2 
" clip-path="url(#p15b670b81e)" style="fill: none; stroke: #b0b0b0; stroke-opacity: 0.2; stroke-width: 0.8; stroke-linecap: square"/>
     </g>
     <g id="line2d_10">
      <g>
       <use xlink:href="#mb58a76f591" x="481.068822" y="372.04" style="stroke: #000000; stroke-width: 0.8"/>
      </g>
     </g>
     <g id="text_5">
      <!-- 400 -->
      <g transform="translate(466.753197 390.437656) scale(0.15 -0.15)">
       <defs>
        <path id="DejaVuSans-34" d="M 2419 4116 
L 825 1625 
L 2419 1625 
L 2419 4116 
z
M 2253 4666 
L 3047 4666 
L 3047 1625 
L 3713 1625 
L 3713 1100 
L 3047 1100 
L 3047 0 
L 2419 0 
L 2419 1100 
L 313 1100 
L 313 1709 
L 2253 4666 
z
" transform="scale(0.015625)"/>
       </defs>
       <use xlink:href="#DejaVuSans-34"/>
       <use xlink:href="#DejaVuSans-30" x="63.623047"/>
       <use xlink:href="#DejaVuSans-30" x="127.246094"/>
      </g>
     </g>
    </g>
    <g id="xtick_6">
     <g id="line2d_11">
      <path d="M 579.575424 372.04 
L 579.575424 7.2 
" clip-path="url(#p15b670b81e)" style="fill: none; stroke: #b0b0b0; stroke-opacity: 0.2; stroke-width: 0.8; stroke-linecap: square"/>
     </g>
     <g id="line2d_12">
      <g>
       <use xlink:href="#mb58a76f591" x="579.575424" y="372.04" style="stroke: #000000; stroke-width: 0.8"/>
      </g>
     </g>
     <g id="text_6">
      <!-- 500 -->
      <g transform="translate(565.259799 390.437656) scale(0.15 -0.15)">
       <defs>
        <path id="DejaVuSans-35" d="M 691 4666 
L 3169 4666 
L 3169 4134 
L 1269 4134 
L 1269 2991 
Q 1406 3038 1543 3061 
Q 1681 3084 1819 3084 
Q 2600 3084 3056 2656 
Q 3513 2228 3513 1497 
Q 3513 744 3044 326 
Q 2575 -91 1722 -91 
Q 1428 -91 1123 -41 
Q 819 9 494 109 
L 494 744 
Q 775 591 1075 516 
Q 1375 441 1709 441 
Q 2250 441 2565 725 
Q 2881 1009 2881 1497 
Q 2881 1984 2565 2268 
Q 2250 2553 1709 2553 
Q 1456 2553 1204 2497 
Q 953 2441 691 2322 
L 691 4666 
z
" transform="scale(0.015625)"/>
       </defs>
       <use xlink:href="#DejaVuSans-35"/>
       <use xlink:href="#DejaVuSans-30" x="63.623047"/>
       <use xlink:href="#DejaVuSans-30" x="127.246094"/>
      </g>
     </g>
    </g>
    <g id="xtick_7">
     <g id="line2d_13">
      <path d="M 678.082026 372.04 
L 678.082026 7.2 
" clip-path="url(#p15b670b81e)" style="fill: none; stroke: #b0b0b0; stroke-opacity: 0.2; stroke-width: 0.8; stroke-linecap: square"/>
     </g>
     <g id="line2d_14">
      <g>
       <use xlink:href="#mb58a76f591" x="678.082026" y="372.04" style="stroke: #000000; stroke-width: 0.8"/>
      </g>
     </g>
     <g id="text_7">
      <!-- 600 -->
      <g transform="translate(663.766401 390.437656) scale(0.15 -0.15)">
       <defs>
        <path id="DejaVuSans-36" d="M 2113 2584 
Q 1688 2584 1439 2293 
Q 1191 2003 1191 1497 
Q 1191 994 1439 701 
Q 1688 409 2113 409 
Q 2538 409 2786 701 
Q 3034 994 3034 1497 
Q 3034 2003 2786 2293 
Q 2538 2584 2113 2584 
z
M 3366 4563 
L 3366 3988 
Q 3128 4100 2886 4159 
Q 2644 4219 2406 4219 
Q 1781 4219 1451 3797 
Q 1122 3375 1075 2522 
Q 1259 2794 1537 2939 
Q 1816 3084 2150 3084 
Q 2853 3084 3261 2657 
Q 3669 2231 3669 1497 
Q 3669 778 3244 343 
Q 2819 -91 2113 -91 
Q 1303 -91 875 529 
Q 447 1150 447 2328 
Q 447 3434 972 4092 
Q 1497 4750 2381 4750 
Q 2619 4750 2861 4703 
Q 3103 4656 3366 4563 
z
" transform="scale(0.015625)"/>
       </defs>
       <use xlink:href="#DejaVuSans-36"/>
       <use xlink:href="#DejaVuSans-30" x="63.623047"/>
       <use xlink:href="#DejaVuSans-30" x="127.246094"/>
      </g>
     </g>
    </g>
    <g id="text_8">
     <!-- k edge removals -->
     <g transform="translate(298.986875 412.754062) scale(0.2 -0.2)">
      <defs>
       <path id="DejaVuSans-6b" d="M 581 4863 
L 1159 4863 
L 1159 1991 
L 2875 3500 
L 3609 3500 
L 1753 1863 
L 3688 0 
L 2938 0 
L 1159 1709 
L 1159 0 
L 581 0 
L 581 4863 
z
" transform="scale(0.015625)"/>
       <path id="DejaVuSans-20" transform="scale(0.015625)"/>
       <path id="DejaVuSans-65" d="M 3597 1894 
L 3597 1613 
L 953 1613 
Q 991 1019 1311 708 
Q 1631 397 2203 397 
Q 2534 397 2845 478 
Q 3156 559 3463 722 
L 3463 178 
Q 3153 47 2828 -22 
Q 2503 -91 2169 -91 
Q 1331 -91 842 396 
Q 353 884 353 1716 
Q 353 2575 817 3079 
Q 1281 3584 2069 3584 
Q 2775 3584 3186 3129 
Q 3597 2675 3597 1894 
z
M 3022 2063 
Q 3016 2534 2758 2815 
Q 2500 3097 2075 3097 
Q 1594 3097 1305 2825 
Q 1016 2553 972 2059 
L 3022 2063 
z
" transform="scale(0.015625)"/>
       <path id="DejaVuSans-64" d="M 2906 2969 
L 2906 4863 
L 3481 4863 
L 3481 0 
L 2906 0 
L 2906 525 
Q 2725 213 2448 61 
Q 2172 -91 1784 -91 
Q 1150 -91 751 415 
Q 353 922 353 1747 
Q 353 2572 751 3078 
Q 1150 3584 1784 3584 
Q 2172 3584 2448 3432 
Q 2725 3281 2906 2969 
z
M 947 1747 
Q 947 1113 1208 752 
Q 1469 391 1925 391 
Q 2381 391 2643 752 
Q 2906 1113 2906 1747 
Q 2906 2381 2643 2742 
Q 2381 3103 1925 3103 
Q 1469 3103 1208 2742 
Q 947 2381 947 1747 
z
" transform="scale(0.015625)"/>
       <path id="DejaVuSans-67" d="M 2906 1791 
Q 2906 2416 2648 2759 
Q 2391 3103 1925 3103 
Q 1463 3103 1205 2759 
Q 947 2416 947 1791 
Q 947 1169 1205 825 
Q 1463 481 1925 481 
Q 2391 481 2648 825 
Q 2906 1169 2906 1791 
z
M 3481 434 
Q 3481 -459 3084 -895 
Q 2688 -1331 1869 -1331 
Q 1566 -1331 1297 -1286 
Q 1028 -1241 775 -1147 
L 775 -588 
Q 1028 -725 1275 -790 
Q 1522 -856 1778 -856 
Q 2344 -856 2625 -561 
Q 2906 -266 2906 331 
L 2906 616 
Q 2728 306 2450 153 
Q 2172 0 1784 0 
Q 1141 0 747 490 
Q 353 981 353 1791 
Q 353 2603 747 3093 
Q 1141 3584 1784 3584 
Q 2172 3584 2450 3431 
Q 2728 3278 2906 2969 
L 2906 3500 
L 3481 3500 
L 3481 434 
z
" transform="scale(0.015625)"/>
       <path id="DejaVuSans-72" d="M 2631 2963 
Q 2534 3019 2420 3045 
Q 2306 3072 2169 3072 
Q 1681 3072 1420 2755 
Q 1159 2438 1159 1844 
L 1159 0 
L 581 0 
L 581 3500 
L 1159 3500 
L 1159 2956 
Q 1341 3275 1631 3429 
Q 1922 3584 2338 3584 
Q 2397 3584 2469 3576 
Q 2541 3569 2628 3553 
L 2631 2963 
z
" transform="scale(0.015625)"/>
       <path id="DejaVuSans-6d" d="M 3328 2828 
Q 3544 3216 3844 3400 
Q 4144 3584 4550 3584 
Q 5097 3584 5394 3201 
Q 5691 2819 5691 2113 
L 5691 0 
L 5113 0 
L 5113 2094 
Q 5113 2597 4934 2840 
Q 4756 3084 4391 3084 
Q 3944 3084 3684 2787 
Q 3425 2491 3425 1978 
L 3425 0 
L 2847 0 
L 2847 2094 
Q 2847 2600 2669 2842 
Q 2491 3084 2119 3084 
Q 1678 3084 1418 2786 
Q 1159 2488 1159 1978 
L 1159 0 
L 581 0 
L 581 3500 
L 1159 3500 
L 1159 2956 
Q 1356 3278 1631 3431 
Q 1906 3584 2284 3584 
Q 2666 3584 2933 3390 
Q 3200 3197 3328 2828 
z
" transform="scale(0.015625)"/>
       <path id="DejaVuSans-6f" d="M 1959 3097 
Q 1497 3097 1228 2736 
Q 959 2375 959 1747 
Q 959 1119 1226 758 
Q 1494 397 1959 397 
Q 2419 397 2687 759 
Q 2956 1122 2956 1747 
Q 2956 2369 2687 2733 
Q 2419 3097 1959 3097 
z
M 1959 3584 
Q 2709 3584 3137 3096 
Q 3566 2609 3566 1747 
Q 3566 888 3137 398 
Q 2709 -91 1959 -91 
Q 1206 -91 779 398 
Q 353 888 353 1747 
Q 353 2609 779 3096 
Q 1206 3584 1959 3584 
z
" transform="scale(0.015625)"/>
       <path id="DejaVuSans-76" d="M 191 3500 
L 800 3500 
L 1894 563 
L 2988 3500 
L 3597 3500 
L 2284 0 
L 1503 0 
L 191 3500 
z
" transform="scale(0.015625)"/>
       <path id="DejaVuSans-61" d="M 2194 1759 
Q 1497 1759 1228 1600 
Q 959 1441 959 1056 
Q 959 750 1161 570 
Q 1363 391 1709 391 
Q 2188 391 2477 730 
Q 2766 1069 2766 1631 
L 2766 1759 
L 2194 1759 
z
M 3341 1997 
L 3341 0 
L 2766 0 
L 2766 531 
Q 2569 213 2275 61 
Q 1981 -91 1556 -91 
Q 1019 -91 701 211 
Q 384 513 384 1019 
Q 384 1609 779 1909 
Q 1175 2209 1959 2209 
L 2766 2209 
L 2766 2266 
Q 2766 2663 2505 2880 
Q 2244 3097 1772 3097 
Q 1472 3097 1187 3025 
Q 903 2953 641 2809 
L 641 3341 
Q 956 3463 1253 3523 
Q 1550 3584 1831 3584 
Q 2591 3584 2966 3190 
Q 3341 2797 3341 1997 
z
" transform="scale(0.015625)"/>
       <path id="DejaVuSans-6c" d="M 603 4863 
L 1178 4863 
L 1178 0 
L 603 0 
L 603 4863 
z
" transform="scale(0.015625)"/>
       <path id="DejaVuSans-73" d="M 2834 3397 
L 2834 2853 
Q 2591 2978 2328 3040 
Q 2066 3103 1784 3103 
Q 1356 3103 1142 2972 
Q 928 2841 928 2578 
Q 928 2378 1081 2264 
Q 1234 2150 1697 2047 
L 1894 2003 
Q 2506 1872 2764 1633 
Q 3022 1394 3022 966 
Q 3022 478 2636 193 
Q 2250 -91 1575 -91 
Q 1294 -91 989 -36 
Q 684 19 347 128 
L 347 722 
Q 666 556 975 473 
Q 1284 391 1588 391 
Q 1994 391 2212 530 
Q 2431 669 2431 922 
Q 2431 1156 2273 1281 
Q 2116 1406 1581 1522 
L 1381 1569 
Q 847 1681 609 1914 
Q 372 2147 372 2553 
Q 372 3047 722 3315 
Q 1072 3584 1716 3584 
Q 2034 3584 2315 3537 
Q 2597 3491 2834 3397 
z
" transform="scale(0.015625)"/>
      </defs>
      <use xlink:href="#DejaVuSans-6b"/>
      <use xlink:href="#DejaVuSans-20" x="57.910156"/>
      <use xlink:href="#DejaVuSans-65" x="89.697266"/>
      <use xlink:href="#DejaVuSans-64" x="151.220703"/>
      <use xlink:href="#DejaVuSans-67" x="214.697266"/>
      <use xlink:href="#DejaVuSans-65" x="278.173828"/>
      <use xlink:href="#DejaVuSans-20" x="339.697266"/>
      <use xlink:href="#DejaVuSans-72" x="371.484375"/>
      <use xlink:href="#DejaVuSans-65" x="410.347656"/>
      <use xlink:href="#DejaVuSans-6d" x="471.871094"/>
      <use xlink:href="#DejaVuSans-6f" x="569.283203"/>
      <use xlink:href="#DejaVuSans-76" x="630.464844"/>
      <use xlink:href="#DejaVuSans-61" x="689.644531"/>
      <use xlink:href="#DejaVuSans-6c" x="750.923828"/>
      <use xlink:href="#DejaVuSans-73" x="778.707031"/>
     </g>
    </g>
   </g>
   <g id="matplotlib.axis_2">
    <g id="ytick_1">
     <g id="line2d_15">
      <path d="M 57.539688 306.325275 
L 706.599688 306.325275 
" clip-path="url(#p15b670b81e)" style="fill: none; stroke: #b0b0b0; stroke-opacity: 0.2; stroke-width: 0.8; stroke-linecap: square"/>
     </g>
     <g id="line2d_16">
      <defs>
       <path id="m82981532af" d="M 0 0 
L -3.5 0 
" style="stroke: #000000; stroke-width: 0.8"/>
      </defs>
      <g>
       <use xlink:href="#m82981532af" x="57.539688" y="306.325275" style="stroke: #000000; stroke-width: 0.8"/>
      </g>
     </g>
     <g id="text_9">
      <!-- 0.2 -->
      <g transform="translate(26.685 312.024103) scale(0.15 -0.15)">
       <defs>
        <path id="DejaVuSans-2e" d="M 684 794 
L 1344 794 
L 1344 0 
L 684 0 
L 684 794 
z
" transform="scale(0.015625)"/>
       </defs>
       <use xlink:href="#DejaVuSans-30"/>
       <use xlink:href="#DejaVuSans-2e" x="63.623047"/>
       <use xlink:href="#DejaVuSans-32" x="95.410156"/>
      </g>
     </g>
    </g>
    <g id="ytick_2">
     <g id="line2d_17">
      <path d="M 57.539688 235.689865 
L 706.599688 235.689865 
" clip-path="url(#p15b670b81e)" style="fill: none; stroke: #b0b0b0; stroke-opacity: 0.2; stroke-width: 0.8; stroke-linecap: square"/>
     </g>
     <g id="line2d_18">
      <g>
       <use xlink:href="#m82981532af" x="57.539688" y="235.689865" style="stroke: #000000; stroke-width: 0.8"/>
      </g>
     </g>
     <g id="text_10">
      <!-- 0.4 -->
      <g transform="translate(26.685 241.388693) scale(0.15 -0.15)">
       <use xlink:href="#DejaVuSans-30"/>
       <use xlink:href="#DejaVuSans-2e" x="63.623047"/>
       <use xlink:href="#DejaVuSans-34" x="95.410156"/>
      </g>
     </g>
    </g>
    <g id="ytick_3">
     <g id="line2d_19">
      <path d="M 57.539688 165.054456 
L 706.599688 165.054456 
" clip-path="url(#p15b670b81e)" style="fill: none; stroke: #b0b0b0; stroke-opacity: 0.2; stroke-width: 0.8; stroke-linecap: square"/>
     </g>
     <g id="line2d_20">
      <g>
       <use xlink:href="#m82981532af" x="57.539688" y="165.054456" style="stroke: #000000; stroke-width: 0.8"/>
      </g>
     </g>
     <g id="text_11">
      <!-- 0.6 -->
      <g transform="translate(26.685 170.753284) scale(0.15 -0.15)">
       <use xlink:href="#DejaVuSans-30"/>
       <use xlink:href="#DejaVuSans-2e" x="63.623047"/>
       <use xlink:href="#DejaVuSans-36" x="95.410156"/>
      </g>
     </g>
    </g>
    <g id="ytick_4">
     <g id="line2d_21">
      <path d="M 57.539688 94.419046 
L 706.599688 94.419046 
" clip-path="url(#p15b670b81e)" style="fill: none; stroke: #b0b0b0; stroke-opacity: 0.2; stroke-width: 0.8; stroke-linecap: square"/>
     </g>
     <g id="line2d_22">
      <g>
       <use xlink:href="#m82981532af" x="57.539688" y="94.419046" style="stroke: #000000; stroke-width: 0.8"/>
      </g>
     </g>
     <g id="text_12">
      <!-- 0.8 -->
      <g transform="translate(26.685 100.117874) scale(0.15 -0.15)">
       <defs>
        <path id="DejaVuSans-38" d="M 2034 2216 
Q 1584 2216 1326 1975 
Q 1069 1734 1069 1313 
Q 1069 891 1326 650 
Q 1584 409 2034 409 
Q 2484 409 2743 651 
Q 3003 894 3003 1313 
Q 3003 1734 2745 1975 
Q 2488 2216 2034 2216 
z
M 1403 2484 
Q 997 2584 770 2862 
Q 544 3141 544 3541 
Q 544 4100 942 4425 
Q 1341 4750 2034 4750 
Q 2731 4750 3128 4425 
Q 3525 4100 3525 3541 
Q 3525 3141 3298 2862 
Q 3072 2584 2669 2484 
Q 3125 2378 3379 2068 
Q 3634 1759 3634 1313 
Q 3634 634 3220 271 
Q 2806 -91 2034 -91 
Q 1263 -91 848 271 
Q 434 634 434 1313 
Q 434 1759 690 2068 
Q 947 2378 1403 2484 
z
M 1172 3481 
Q 1172 3119 1398 2916 
Q 1625 2713 2034 2713 
Q 2441 2713 2670 2916 
Q 2900 3119 2900 3481 
Q 2900 3844 2670 4047 
Q 2441 4250 2034 4250 
Q 1625 4250 1398 4047 
Q 1172 3844 1172 3481 
z
" transform="scale(0.015625)"/>
       </defs>
       <use xlink:href="#DejaVuSans-30"/>
       <use xlink:href="#DejaVuSans-2e" x="63.623047"/>
       <use xlink:href="#DejaVuSans-38" x="95.410156"/>
      </g>
     </g>
    </g>
    <g id="ytick_5">
     <g id="line2d_23">
      <path d="M 57.539688 23.783636 
L 706.599688 23.783636 
" clip-path="url(#p15b670b81e)" style="fill: none; stroke: #b0b0b0; stroke-opacity: 0.2; stroke-width: 0.8; stroke-linecap: square"/>
     </g>
     <g id="line2d_24">
      <g>
       <use xlink:href="#m82981532af" x="57.539688" y="23.783636" style="stroke: #000000; stroke-width: 0.8"/>
      </g>
     </g>
     <g id="text_13">
      <!-- 1.0 -->
      <g transform="translate(26.685 29.482464) scale(0.15 -0.15)">
       <use xlink:href="#DejaVuSans-31"/>
       <use xlink:href="#DejaVuSans-2e" x="63.623047"/>
       <use xlink:href="#DejaVuSans-30" x="95.410156"/>
      </g>
     </g>
    </g>
    <g id="text_14">
     <!-- Network Centrality Performance Index, NCPI -->
     <g transform="translate(19.3575 366.43) rotate(-90) scale(0.16 -0.16)">
      <defs>
       <path id="DejaVuSans-4e" d="M 628 4666 
L 1478 4666 
L 3547 763 
L 3547 4666 
L 4159 4666 
L 4159 0 
L 3309 0 
L 1241 3903 
L 1241 0 
L 628 0 
L 628 4666 
z
" transform="scale(0.015625)"/>
       <path id="DejaVuSans-74" d="M 1172 4494 
L 1172 3500 
L 2356 3500 
L 2356 3053 
L 1172 3053 
L 1172 1153 
Q 1172 725 1289 603 
Q 1406 481 1766 481 
L 2356 481 
L 2356 0 
L 1766 0 
Q 1100 0 847 248 
Q 594 497 594 1153 
L 594 3053 
L 172 3053 
L 172 3500 
L 594 3500 
L 594 4494 
L 1172 4494 
z
" transform="scale(0.015625)"/>
       <path id="DejaVuSans-77" d="M 269 3500 
L 844 3500 
L 1563 769 
L 2278 3500 
L 2956 3500 
L 3675 769 
L 4391 3500 
L 4966 3500 
L 4050 0 
L 3372 0 
L 2619 2869 
L 1863 0 
L 1184 0 
L 269 3500 
z
" transform="scale(0.015625)"/>
       <path id="DejaVuSans-43" d="M 4122 4306 
L 4122 3641 
Q 3803 3938 3442 4084 
Q 3081 4231 2675 4231 
Q 1875 4231 1450 3742 
Q 1025 3253 1025 2328 
Q 1025 1406 1450 917 
Q 1875 428 2675 428 
Q 3081 428 3442 575 
Q 3803 722 4122 1019 
L 4122 359 
Q 3791 134 3420 21 
Q 3050 -91 2638 -91 
Q 1578 -91 968 557 
Q 359 1206 359 2328 
Q 359 3453 968 4101 
Q 1578 4750 2638 4750 
Q 3056 4750 3426 4639 
Q 3797 4528 4122 4306 
z
" transform="scale(0.015625)"/>
       <path id="DejaVuSans-6e" d="M 3513 2113 
L 3513 0 
L 2938 0 
L 2938 2094 
Q 2938 2591 2744 2837 
Q 2550 3084 2163 3084 
Q 1697 3084 1428 2787 
Q 1159 2491 1159 1978 
L 1159 0 
L 581 0 
L 581 3500 
L 1159 3500 
L 1159 2956 
Q 1366 3272 1645 3428 
Q 1925 3584 2291 3584 
Q 2894 3584 3203 3211 
Q 3513 2838 3513 2113 
z
" transform="scale(0.015625)"/>
       <path id="DejaVuSans-69" d="M 603 3500 
L 1178 3500 
L 1178 0 
L 603 0 
L 603 3500 
z
M 603 4863 
L 1178 4863 
L 1178 4134 
L 603 4134 
L 603 4863 
z
" transform="scale(0.015625)"/>
       <path id="DejaVuSans-79" d="M 2059 -325 
Q 1816 -950 1584 -1140 
Q 1353 -1331 966 -1331 
L 506 -1331 
L 506 -850 
L 844 -850 
Q 1081 -850 1212 -737 
Q 1344 -625 1503 -206 
L 1606 56 
L 191 3500 
L 800 3500 
L 1894 763 
L 2988 3500 
L 3597 3500 
L 2059 -325 
z
" transform="scale(0.015625)"/>
       <path id="DejaVuSans-50" d="M 1259 4147 
L 1259 2394 
L 2053 2394 
Q 2494 2394 2734 2622 
Q 2975 2850 2975 3272 
Q 2975 3691 2734 3919 
Q 2494 4147 2053 4147 
L 1259 4147 
z
M 628 4666 
L 2053 4666 
Q 2838 4666 3239 4311 
Q 3641 3956 3641 3272 
Q 3641 2581 3239 2228 
Q 2838 1875 2053 1875 
L 1259 1875 
L 1259 0 
L 628 0 
L 628 4666 
z
" transform="scale(0.015625)"/>
       <path id="DejaVuSans-66" d="M 2375 4863 
L 2375 4384 
L 1825 4384 
Q 1516 4384 1395 4259 
Q 1275 4134 1275 3809 
L 1275 3500 
L 2222 3500 
L 2222 3053 
L 1275 3053 
L 1275 0 
L 697 0 
L 697 3053 
L 147 3053 
L 147 3500 
L 697 3500 
L 697 3744 
Q 697 4328 969 4595 
Q 1241 4863 1831 4863 
L 2375 4863 
z
" transform="scale(0.015625)"/>
       <path id="DejaVuSans-63" d="M 3122 3366 
L 3122 2828 
Q 2878 2963 2633 3030 
Q 2388 3097 2138 3097 
Q 1578 3097 1268 2742 
Q 959 2388 959 1747 
Q 959 1106 1268 751 
Q 1578 397 2138 397 
Q 2388 397 2633 464 
Q 2878 531 3122 666 
L 3122 134 
Q 2881 22 2623 -34 
Q 2366 -91 2075 -91 
Q 1284 -91 818 406 
Q 353 903 353 1747 
Q 353 2603 823 3093 
Q 1294 3584 2113 3584 
Q 2378 3584 2631 3529 
Q 2884 3475 3122 3366 
z
" transform="scale(0.015625)"/>
       <path id="DejaVuSans-49" d="M 628 4666 
L 1259 4666 
L 1259 0 
L 628 0 
L 628 4666 
z
" transform="scale(0.015625)"/>
       <path id="DejaVuSans-78" d="M 3513 3500 
L 2247 1797 
L 3578 0 
L 2900 0 
L 1881 1375 
L 863 0 
L 184 0 
L 1544 1831 
L 300 3500 
L 978 3500 
L 1906 2253 
L 2834 3500 
L 3513 3500 
z
" transform="scale(0.015625)"/>
       <path id="DejaVuSans-2c" d="M 750 794 
L 1409 794 
L 1409 256 
L 897 -744 
L 494 -744 
L 750 256 
L 750 794 
z
" transform="scale(0.015625)"/>
      </defs>
      <use xlink:href="#DejaVuSans-4e"/>
      <use xlink:href="#DejaVuSans-65" x="74.804688"/>
      <use xlink:href="#DejaVuSans-74" x="136.328125"/>
      <use xlink:href="#DejaVuSans-77" x="175.537109"/>
      <use xlink:href="#DejaVuSans-6f" x="257.324219"/>
      <use xlink:href="#DejaVuSans-72" x="318.505859"/>
      <use xlink:href="#DejaVuSans-6b" x="359.619141"/>
      <use xlink:href="#DejaVuSans-20" x="417.529297"/>
      <use xlink:href="#DejaVuSans-43" x="449.316406"/>
      <use xlink:href="#DejaVuSans-65" x="519.140625"/>
      <use xlink:href="#DejaVuSans-6e" x="580.664062"/>
      <use xlink:href="#DejaVuSans-74" x="644.042969"/>
      <use xlink:href="#DejaVuSans-72" x="683.251953"/>
      <use xlink:href="#DejaVuSans-61" x="724.365234"/>
      <use xlink:href="#DejaVuSans-6c" x="785.644531"/>
      <use xlink:href="#DejaVuSans-69" x="813.427734"/>
      <use xlink:href="#DejaVuSans-74" x="841.210938"/>
      <use xlink:href="#DejaVuSans-79" x="880.419922"/>
      <use xlink:href="#DejaVuSans-20" x="939.599609"/>
      <use xlink:href="#DejaVuSans-50" x="971.386719"/>
      <use xlink:href="#DejaVuSans-65" x="1028.064453"/>
      <use xlink:href="#DejaVuSans-72" x="1089.587891"/>
      <use xlink:href="#DejaVuSans-66" x="1130.701172"/>
      <use xlink:href="#DejaVuSans-6f" x="1165.90625"/>
      <use xlink:href="#DejaVuSans-72" x="1227.087891"/>
      <use xlink:href="#DejaVuSans-6d" x="1266.451172"/>
      <use xlink:href="#DejaVuSans-61" x="1363.863281"/>
      <use xlink:href="#DejaVuSans-6e" x="1425.142578"/>
      <use xlink:href="#DejaVuSans-63" x="1488.521484"/>
      <use xlink:href="#DejaVuSans-65" x="1543.501953"/>
      <use xlink:href="#DejaVuSans-20" x="1605.025391"/>
      <use xlink:href="#DejaVuSans-49" x="1636.8125"/>
      <use xlink:href="#DejaVuSans-6e" x="1666.304688"/>
      <use xlink:href="#DejaVuSans-64" x="1729.683594"/>
      <use xlink:href="#DejaVuSans-65" x="1793.160156"/>
      <use xlink:href="#DejaVuSans-78" x="1852.933594"/>
      <use xlink:href="#DejaVuSans-2c" x="1912.113281"/>
      <use xlink:href="#DejaVuSans-20" x="1943.900391"/>
      <use xlink:href="#DejaVuSans-4e" x="1975.6875"/>
      <use xlink:href="#DejaVuSans-43" x="2050.492188"/>
      <use xlink:href="#DejaVuSans-50" x="2120.316406"/>
      <use xlink:href="#DejaVuSans-49" x="2180.619141"/>
     </g>
    </g>
   </g>
   <g id="line2d_25">
    <path d="M 87.042415 23.783636 
L 88.027481 26.874451 
L 89.012547 27.994238 
L 89.997613 33.093748 
L 90.982679 36.218036 
L 91.967745 36.314755 
L 92.952811 38.333255 
L 93.937877 38.333255 
L 94.922943 40.139015 
L 95.908009 41.457299 
L 96.893075 43.508167 
L 97.878141 43.508167 
L 98.863207 45.534115 
L 102.803471 45.899827 
L 104.773603 48.617152 
L 105.758669 48.976096 
L 106.743735 50.315173 
L 107.728801 50.492891 
L 108.713867 51.113383 
L 109.698933 51.290234 
L 110.683999 53.310304 
L 111.669065 53.310304 
L 112.654131 53.571946 
L 113.639197 55.563896 
L 114.624263 55.73595 
L 116.594395 55.73595 
L 117.579461 57.020506 
L 118.564527 57.020506 
L 119.549593 57.276185 
L 120.534659 60.061923 
L 121.519725 60.563213 
L 122.504791 61.809527 
L 124.474923 61.892265 
L 125.45999 63.128151 
L 126.445056 63.128151 
L 127.430122 63.292203 
L 129.400254 64.191435 
L 130.38532 65.085526 
L 132.355452 65.166554 
L 133.340518 65.813262 
L 134.325584 65.893912 
L 136.295716 66.778309 
L 138.265848 66.778309 
L 139.250914 67.817045 
L 140.23598 68.294118 
L 141.221046 68.294118 
L 142.206112 69.006974 
L 143.191178 69.006974 
L 144.176244 69.559145 
L 145.16131 70.813845 
L 146.146376 71.670527 
L 147.131442 71.98086 
L 152.056772 72.058345 
L 153.041838 72.445178 
L 154.026904 72.445178 
L 155.01197 72.831032 
L 158.952234 72.908085 
L 159.9373 72.985099 
L 160.922366 73.753102 
L 161.907432 73.753102 
L 162.892498 74.440995 
L 163.877564 74.669599 
L 164.86263 75.049839 
L 167.817828 75.049839 
L 169.78796 75.353344 
L 170.773026 75.731867 
L 173.728224 75.807457 
L 175.698356 76.184842 
L 181.608753 76.260206 
L 183.578885 77.086719 
L 185.549017 77.311344 
L 188.504215 77.311344 
L 189.489281 77.61032 
L 191.459413 77.61032 
L 192.444479 78.132096 
L 193.429545 78.132096 
L 194.414611 78.429438 
L 196.384743 78.429438 
L 198.354875 78.652057 
L 199.339941 78.652057 
L 200.325007 79.244086 
L 202.295139 79.317924 
L 203.280205 79.612912 
L 204.265271 79.686568 
L 206.235403 80.054299 
L 208.205535 80.054299 
L 209.190601 80.567597 
L 210.175667 80.787039 
L 211.160733 80.787039 
L 212.145799 81.079124 
L 213.130865 81.079124 
L 214.115931 81.297809 
L 217.071129 81.297809 
L 218.056195 81.588888 
L 220.026327 81.661568 
L 221.011393 81.661568 
L 221.996459 82.530947 
L 224.951657 82.530947 
L 225.936723 83.107695 
L 226.921789 83.107695 
L 227.906856 83.467016 
L 228.891922 83.682188 
L 231.84712 83.753841 
L 232.832186 96.027734 
L 233.817252 96.096354 
L 234.802318 109.812746 
L 237.757516 110.398739 
L 238.742582 110.398739 
L 240.712714 110.723182 
L 241.69778 110.723182 
L 242.682846 160.964303 
L 243.667912 160.964303 
L 244.652978 161.121926 
L 245.638044 161.121926 
L 246.62311 161.593419 
L 248.593242 161.750125 
L 249.578308 170.349711 
L 250.563374 177.474228 
L 251.54844 177.5226 
L 252.533506 186.978403 
L 253.518572 193.106864 
L 255.488704 193.106864 
L 256.47377 193.329501 
L 259.428968 193.329501 
L 260.414034 193.507223 
L 262.384166 193.507223 
L 263.369232 193.773162 
L 270.264694 193.861637 
L 272.234826 194.214684 
L 275.190024 194.258719 
L 277.160156 194.346726 
L 278.145222 194.654083 
L 279.130289 194.829251 
L 286.025751 194.829251 
L 287.010817 194.960407 
L 287.995883 194.960407 
L 288.980949 200.647915 
L 294.891345 200.732518 
L 296.861477 200.859271 
L 298.831609 200.859271 
L 299.816675 206.826638 
L 300.801741 206.826638 
L 301.786807 207.030343 
L 304.742005 207.274145 
L 305.727071 212.962974 
L 307.697203 213.119685 
L 308.682269 213.393209 
L 309.667335 218.616079 
L 311.637467 218.653834 
L 312.622533 218.84234 
L 315.577731 218.879987 
L 317.547863 219.030397 
L 320.503061 219.067955 
L 321.488127 223.658758 
L 324.443325 223.695206 
L 325.428391 223.840827 
L 326.413457 223.840827 
L 327.398523 228.576561 
L 328.383589 228.576561 
L 330.353721 236.412693 
L 333.30892 236.512775 
L 334.293986 240.723381 
L 335.279052 240.723381 
L 336.264118 240.884876 
L 342.174514 240.917129 
L 344.144646 241.045989 
L 346.114778 247.518117 
L 352.025174 247.579392 
L 353.01024 253.115024 
L 353.995306 253.115024 
L 355.965438 253.319873 
L 357.93557 253.319873 
L 358.920636 253.436626 
L 359.905702 259.33929 
L 361.875834 265.917707 
L 366.801164 265.943915 
L 370.741428 265.996294 
L 371.726494 268.357238 
L 375.666758 268.459622 
L 377.63689 268.58733 
L 394.383013 268.993984 
L 395.368079 271.334217 
L 400.293409 271.358983 
L 401.278475 273.78127 
L 403.248607 273.877948 
L 415.069399 273.974445 
L 416.054465 276.03417 
L 422.949927 276.12856 
L 423.934993 278.788204 
L 430.830455 279.062876 
L 431.815521 280.945526 
L 432.800587 280.990278 
L 433.785654 282.80104 
L 440.681116 282.888733 
L 441.666182 282.932518 
L 442.651248 285.368873 
L 447.576578 285.368873 
L 448.561644 287.244164 
L 454.47204 287.306757 
L 455.457106 288.985005 
L 461.367502 289.025905 
L 462.352568 290.821598 
L 466.292832 290.861626 
L 467.277898 292.346092 
L 470.233096 292.424657 
L 474.17336 292.424657 
L 475.158426 294.296784 
L 476.143492 294.296784 
L 477.128558 295.842511 
L 479.09869 295.842511 
L 480.083756 297.550014 
L 489.934417 297.568443 
L 490.919483 298.848963 
L 495.844813 298.939496 
L 496.829879 300.177927 
L 497.814945 300.177927 
L 498.800011 301.377658 
L 501.755209 301.465159 
L 502.740275 302.626628 
L 503.725341 304.492814 
L 507.665605 304.526356 
L 512.590935 304.526356 
L 514.561067 306.656778 
L 515.546133 308.237445 
L 516.531199 308.237445 
L 518.501331 310.537275 
L 522.441595 310.598707 
L 523.426661 311.580164 
L 526.381859 311.610384 
L 527.366925 312.505593 
L 530.322123 312.505593 
L 531.307189 313.531597 
L 533.277321 313.546252 
L 534.262387 314.525554 
L 535.247453 314.525554 
L 536.232519 315.648819 
L 539.187718 315.662982 
L 541.15785 317.308204 
L 547.068246 317.363272 
L 548.053312 318.11767 
L 558.889038 318.158382 
L 559.874104 318.947061 
L 562.829302 318.973808 
L 563.814368 319.725004 
L 566.769566 319.764559 
L 567.754632 320.462073 
L 568.739698 320.462073 
L 569.724764 321.31495 
L 570.70983 321.977399 
L 575.63516 322.00272 
L 576.620226 323.30465 
L 580.56049 323.329348 
L 581.545556 323.952968 
L 596.321547 324.062539 
L 598.291679 324.086826 
L 599.276745 324.694572 
L 603.217009 324.718558 
L 604.202075 325.587203 
L 605.187141 325.587203 
L 606.172207 326.292383 
L 608.142339 326.292383 
L 609.127405 327.045157 
L 610.112471 327.593679 
L 613.067669 327.650254 
L 614.052735 328.186237 
L 616.022867 328.186237 
L 617.007933 328.710693 
L 621.933263 328.754888 
L 622.918329 329.267716 
L 624.888461 329.278635 
L 625.873527 329.81045 
L 627.843659 329.821242 
L 628.828725 330.312277 
L 629.813791 330.333622 
L 631.783923 331.444494 
L 634.739121 331.444494 
L 635.724187 332.434667 
L 639.664452 332.434667 
L 641.634584 333.358525 
L 644.589782 333.358525 
L 645.574848 333.785997 
L 648.530046 333.795872 
L 649.515112 334.338929 
L 653.455376 334.338929 
L 654.440442 334.748753 
L 657.39564 334.748753 
L 658.380706 335.204824 
L 661.335904 335.214373 
L 662.32097 335.902625 
L 669.216432 335.949516 
L 670.201498 336.359283 
L 677.09696 336.368555 
L 677.09696 336.368555 
" clip-path="url(#p15b670b81e)" style="fill: none; stroke: #0000ff; stroke-linecap: square"/>
    <defs>
     <path id="mf304298112" d="M -2.5 2.5 
L 2.5 2.5 
L 2.5 -2.5 
L -2.5 -2.5 
z
" style="stroke: #0000ff; stroke-linejoin: miter"/>
    </defs>
    <g clip-path="url(#p15b670b81e)">
     <use xlink:href="#mf304298112" x="87.042415" y="23.783636" style="fill: #0000ff; stroke: #0000ff; stroke-linejoin: miter"/>
     <use xlink:href="#mf304298112" x="111.669065" y="53.310304" style="fill: #0000ff; stroke: #0000ff; stroke-linejoin: miter"/>
     <use xlink:href="#mf304298112" x="136.295716" y="66.778309" style="fill: #0000ff; stroke: #0000ff; stroke-linejoin: miter"/>
     <use xlink:href="#mf304298112" x="160.922366" y="73.753102" style="fill: #0000ff; stroke: #0000ff; stroke-linejoin: miter"/>
     <use xlink:href="#mf304298112" x="185.549017" y="77.311344" style="fill: #0000ff; stroke: #0000ff; stroke-linejoin: miter"/>
     <use xlink:href="#mf304298112" x="210.175667" y="80.787039" style="fill: #0000ff; stroke: #0000ff; stroke-linejoin: miter"/>
     <use xlink:href="#mf304298112" x="234.802318" y="109.812746" style="fill: #0000ff; stroke: #0000ff; stroke-linejoin: miter"/>
     <use xlink:href="#mf304298112" x="259.428968" y="193.329501" style="fill: #0000ff; stroke: #0000ff; stroke-linejoin: miter"/>
     <use xlink:href="#mf304298112" x="284.055619" y="194.829251" style="fill: #0000ff; stroke: #0000ff; stroke-linejoin: miter"/>
     <use xlink:href="#mf304298112" x="308.682269" y="213.393209" style="fill: #0000ff; stroke: #0000ff; stroke-linejoin: miter"/>
     <use xlink:href="#mf304298112" x="333.30892" y="236.512775" style="fill: #0000ff; stroke: #0000ff; stroke-linejoin: miter"/>
     <use xlink:href="#mf304298112" x="357.93557" y="253.319873" style="fill: #0000ff; stroke: #0000ff; stroke-linejoin: miter"/>
     <use xlink:href="#mf304298112" x="382.562221" y="268.689281" style="fill: #0000ff; stroke: #0000ff; stroke-linejoin: miter"/>
     <use xlink:href="#mf304298112" x="407.188871" y="273.926219" style="fill: #0000ff; stroke: #0000ff; stroke-linejoin: miter"/>
     <use xlink:href="#mf304298112" x="431.815521" y="280.945526" style="fill: #0000ff; stroke: #0000ff; stroke-linejoin: miter"/>
     <use xlink:href="#mf304298112" x="456.442172" y="288.985005" style="fill: #0000ff; stroke: #0000ff; stroke-linejoin: miter"/>
     <use xlink:href="#mf304298112" x="481.068822" y="297.550014" style="fill: #0000ff; stroke: #0000ff; stroke-linejoin: miter"/>
     <use xlink:href="#mf304298112" x="505.695473" y="304.526356" style="fill: #0000ff; stroke: #0000ff; stroke-linejoin: miter"/>
     <use xlink:href="#mf304298112" x="530.322123" y="312.505593" style="fill: #0000ff; stroke: #0000ff; stroke-linejoin: miter"/>
     <use xlink:href="#mf304298112" x="554.948774" y="318.131247" style="fill: #0000ff; stroke: #0000ff; stroke-linejoin: miter"/>
     <use xlink:href="#mf304298112" x="579.575424" y="323.317002" style="fill: #0000ff; stroke: #0000ff; stroke-linejoin: miter"/>
     <use xlink:href="#mf304298112" x="604.202075" y="325.587203" style="fill: #0000ff; stroke: #0000ff; stroke-linejoin: miter"/>
     <use xlink:href="#mf304298112" x="628.828725" y="330.312277" style="fill: #0000ff; stroke: #0000ff; stroke-linejoin: miter"/>
     <use xlink:href="#mf304298112" x="653.455376" y="334.338929" style="fill: #0000ff; stroke: #0000ff; stroke-linejoin: miter"/>
    </g>
   </g>
   <g id="line2d_26">
    <path d="M 87.042415 23.783636 
L 88.027481 29.664271 
L 89.012547 31.047741 
L 89.997613 33.935489 
L 91.967745 42.130688 
L 92.952811 47.267692 
L 93.937877 54.878086 
L 94.922943 57.217065 
L 96.893075 71.073122 
L 97.878141 76.463257 
L 98.863207 79.467266 
L 99.848273 83.619795 
L 100.833339 85.40177 
L 101.818405 91.526157 
L 102.803471 93.454959 
L 103.788537 97.274407 
L 104.773603 99.251464 
L 105.758669 104.234586 
L 106.743735 107.469601 
L 107.728801 111.152268 
L 108.713867 116.487287 
L 109.698933 118.744624 
L 110.683999 122.754134 
L 111.669065 127.517537 
L 114.624263 138.458823 
L 115.609329 140.18192 
L 116.594395 143.520721 
L 117.579461 145.987602 
L 118.564527 148.052852 
L 119.549593 151.19323 
L 120.534659 153.278125 
L 121.519725 156.29472 
L 122.504791 158.793292 
L 123.489857 161.678339 
L 125.45999 166.12733 
L 126.445056 169.261436 
L 127.430122 171.89433 
L 128.415188 173.114417 
L 130.38532 178.229682 
L 131.370386 180.142265 
L 132.355452 181.451494 
L 133.340518 184.781417 
L 134.325584 186.200593 
L 135.31065 188.964432 
L 136.295716 190.789116 
L 137.280782 193.414267 
L 138.265848 195.162931 
L 139.250914 197.976854 
L 140.23598 199.523169 
L 141.221046 200.341825 
L 142.206112 201.487036 
L 143.191178 203.431785 
L 144.176244 204.189564 
L 145.16131 204.279042 
L 146.146376 205.392377 
L 147.131442 206.808719 
L 149.101574 210.053551 
L 151.071706 214.365853 
L 153.041838 217.544676 
L 154.026904 218.751766 
L 155.01197 220.495404 
L 156.982102 222.35068 
L 157.967168 224.46993 
L 158.952234 225.793903 
L 159.9373 226.693166 
L 160.922366 228.049516 
L 161.907432 229.628012 
L 162.892498 230.497297 
L 163.877564 231.208909 
L 164.86263 231.241044 
L 165.847696 232.387135 
L 166.832762 232.93615 
L 167.817828 233.666793 
L 168.802894 235.065337 
L 169.78796 235.818204 
L 170.773026 236.748786 
L 171.758092 237.197061 
L 172.743158 238.031458 
L 174.71329 239.101616 
L 175.698356 240.085236 
L 181.608753 247.140824 
L 182.593819 247.597543 
L 185.549017 250.826161 
L 188.504215 252.153 
L 190.474347 253.993159 
L 191.459413 254.782223 
L 192.444479 255.832385 
L 193.429545 256.22705 
L 194.414611 256.429513 
L 195.399677 257.024358 
L 197.369809 257.87266 
L 198.354875 258.412463 
L 200.325007 260.104691 
L 201.310073 260.301025 
L 202.295139 260.646138 
L 205.250337 263.426592 
L 208.205535 265.460639 
L 209.190601 266.049587 
L 210.175667 266.502242 
L 211.160733 267.329454 
L 213.130865 268.355725 
L 217.071129 270.433175 
L 221.011393 272.802325 
L 221.996459 272.970221 
L 222.981525 273.358937 
L 223.966591 273.942438 
L 225.936723 274.868175 
L 226.921789 275.698831 
L 228.891922 276.949227 
L 231.84712 278.376194 
L 232.832186 279.151751 
L 233.817252 280.302802 
L 235.787384 281.843892 
L 236.77245 282.323707 
L 237.757516 282.573477 
L 238.742582 283.509263 
L 239.727648 284.099337 
L 240.712714 284.549926 
L 241.69778 285.23958 
L 242.682846 285.412573 
L 243.667912 286.194315 
L 244.652978 286.653913 
L 245.638044 286.978222 
L 246.62311 287.420907 
L 247.608176 287.728509 
L 249.578308 288.716888 
L 253.518572 290.561704 
L 254.503638 291.243012 
L 255.488704 291.348379 
L 256.47377 291.755976 
L 257.458836 291.854659 
L 258.443902 292.145292 
L 260.414034 293.012467 
L 261.3991 293.289367 
L 262.384166 293.843681 
L 264.354298 294.509491 
L 265.339364 294.892793 
L 266.32443 295.523112 
L 269.279628 296.353624 
L 271.24976 297.383609 
L 273.219892 297.798816 
L 275.190024 298.791011 
L 281.100421 300.933686 
L 286.025751 303.061202 
L 287.010817 303.498427 
L 287.995883 304.12334 
L 288.980949 304.506482 
L 289.966015 305.016389 
L 291.936147 305.460834 
L 295.876411 306.718433 
L 296.861477 307.043388 
L 298.831609 308.113126 
L 300.801741 308.794297 
L 301.786807 309.005882 
L 302.771873 309.492858 
L 304.742005 310.023403 
L 309.667335 311.914689 
L 313.607599 312.948076 
L 314.592665 313.3341 
L 316.562797 313.789855 
L 319.517995 314.529317 
L 325.428391 315.962383 
L 326.413457 316.318552 
L 327.398523 316.427659 
L 328.383589 316.957432 
L 329.368655 317.295922 
L 330.353721 317.442869 
L 331.338788 317.819704 
L 332.323854 318.020158 
L 333.30892 318.340446 
L 334.293986 318.517753 
L 335.279052 318.934276 
L 336.264118 319.045754 
L 341.189448 320.291277 
L 342.174514 320.345175 
L 345.129712 321.127362 
L 347.099844 321.463259 
L 349.069976 322.084248 
L 350.055042 322.18659 
L 353.01024 323.023284 
L 355.965438 323.54881 
L 357.93557 323.725039 
L 358.920636 323.986804 
L 360.890768 324.084602 
L 362.8609 324.501654 
L 363.845966 324.586191 
L 364.831032 324.798635 
L 365.816098 324.888507 
L 367.78623 325.326328 
L 369.756362 325.836625 
L 376.651824 327.066391 
L 379.607022 327.50346 
L 380.592088 327.707563 
L 381.577154 327.791376 
L 382.562221 328.063731 
L 384.532353 328.407874 
L 386.502485 328.694403 
L 387.487551 328.762822 
L 388.472617 329.038509 
L 390.442749 329.258094 
L 391.427815 329.513712 
L 393.397947 329.76067 
L 396.353145 330.125814 
L 401.278475 330.801301 
L 403.248607 331.002858 
L 409.159003 331.954548 
L 412.114201 332.354795 
L 415.069399 332.922694 
L 419.009663 333.374482 
L 420.979795 333.628671 
L 424.920059 334.123894 
L 426.890191 334.464312 
L 437.725918 335.74908 
L 453.486974 338.035054 
L 461.367502 338.983448 
L 463.337634 339.13188 
L 465.307766 339.311378 
L 470.233096 339.860938 
L 473.188294 340.117697 
L 485.009086 341.344813 
L 485.994153 341.926111 
L 487.964285 342.096504 
L 491.904549 342.408485 
L 495.844813 342.884923 
L 504.710407 343.620197 
L 511.605869 344.247027 
L 520.471463 345.116879 
L 525.396793 345.58865 
L 528.351991 345.886086 
L 532.292255 346.206014 
L 534.262387 346.400368 
L 538.202652 346.724228 
L 540.172784 346.865266 
L 554.948774 347.964169 
L 557.903972 348.146024 
L 565.7845 348.621091 
L 569.724764 348.839703 
L 576.620226 349.338354 
L 579.575424 349.487966 
L 580.56049 350.029538 
L 587.455952 350.610932 
L 591.396217 350.83699 
L 602.231943 351.483555 
L 613.067669 352.128919 
L 618.978065 352.344274 
L 620.948197 352.505092 
L 626.858593 352.781034 
L 634.739121 353.192992 
L 643.604716 353.824394 
L 646.559914 353.900314 
L 654.440442 354.349689 
L 670.201498 355.020139 
L 675.126828 355.339131 
L 677.09696 355.456364 
L 677.09696 355.456364 
" clip-path="url(#p15b670b81e)" style="fill: none; stroke-dasharray: 3.7,1.6; stroke-dashoffset: 0; stroke: #add8e6"/>
    <defs>
     <path id="mc7dc57b980" d="M -2.5 2.5 
L 2.5 2.5 
L 2.5 -2.5 
L -2.5 -2.5 
z
" style="stroke: #add8e6; stroke-linejoin: miter"/>
    </defs>
    <g clip-path="url(#p15b670b81e)">
     <use xlink:href="#mc7dc57b980" x="87.042415" y="23.783636" style="fill: #add8e6; stroke: #add8e6; stroke-linejoin: miter"/>
     <use xlink:href="#mc7dc57b980" x="111.669065" y="127.517537" style="fill: #add8e6; stroke: #add8e6; stroke-linejoin: miter"/>
     <use xlink:href="#mc7dc57b980" x="136.295716" y="190.789116" style="fill: #add8e6; stroke: #add8e6; stroke-linejoin: miter"/>
     <use xlink:href="#mc7dc57b980" x="160.922366" y="228.049516" style="fill: #add8e6; stroke: #add8e6; stroke-linejoin: miter"/>
     <use xlink:href="#mc7dc57b980" x="185.549017" y="250.826161" style="fill: #add8e6; stroke: #add8e6; stroke-linejoin: miter"/>
     <use xlink:href="#mc7dc57b980" x="210.175667" y="266.502242" style="fill: #add8e6; stroke: #add8e6; stroke-linejoin: miter"/>
     <use xlink:href="#mc7dc57b980" x="234.802318" y="281.026195" style="fill: #add8e6; stroke: #add8e6; stroke-linejoin: miter"/>
     <use xlink:href="#mc7dc57b980" x="259.428968" y="292.585582" style="fill: #add8e6; stroke: #add8e6; stroke-linejoin: miter"/>
     <use xlink:href="#mc7dc57b980" x="284.055619" y="302.128057" style="fill: #add8e6; stroke: #add8e6; stroke-linejoin: miter"/>
     <use xlink:href="#mc7dc57b980" x="308.682269" y="311.599584" style="fill: #add8e6; stroke: #add8e6; stroke-linejoin: miter"/>
     <use xlink:href="#mc7dc57b980" x="333.30892" y="318.340446" style="fill: #add8e6; stroke: #add8e6; stroke-linejoin: miter"/>
     <use xlink:href="#mc7dc57b980" x="357.93557" y="323.725039" style="fill: #add8e6; stroke: #add8e6; stroke-linejoin: miter"/>
     <use xlink:href="#mc7dc57b980" x="382.562221" y="328.063731" style="fill: #add8e6; stroke: #add8e6; stroke-linejoin: miter"/>
     <use xlink:href="#mc7dc57b980" x="407.188871" y="331.603912" style="fill: #add8e6; stroke: #add8e6; stroke-linejoin: miter"/>
     <use xlink:href="#mc7dc57b980" x="431.815521" y="335.008694" style="fill: #add8e6; stroke: #add8e6; stroke-linejoin: miter"/>
     <use xlink:href="#mc7dc57b980" x="456.442172" y="338.396361" style="fill: #add8e6; stroke: #add8e6; stroke-linejoin: miter"/>
     <use xlink:href="#mc7dc57b980" x="481.068822" y="340.954974" style="fill: #add8e6; stroke: #add8e6; stroke-linejoin: miter"/>
     <use xlink:href="#mc7dc57b980" x="505.695473" y="343.695975" style="fill: #add8e6; stroke: #add8e6; stroke-linejoin: miter"/>
     <use xlink:href="#mc7dc57b980" x="530.322123" y="346.050879" style="fill: #add8e6; stroke: #add8e6; stroke-linejoin: miter"/>
     <use xlink:href="#mc7dc57b980" x="554.948774" y="347.964169" style="fill: #add8e6; stroke: #add8e6; stroke-linejoin: miter"/>
     <use xlink:href="#mc7dc57b980" x="579.575424" y="349.487966" style="fill: #add8e6; stroke: #add8e6; stroke-linejoin: miter"/>
     <use xlink:href="#mc7dc57b980" x="604.202075" y="351.634274" style="fill: #add8e6; stroke: #add8e6; stroke-linejoin: miter"/>
     <use xlink:href="#mc7dc57b980" x="628.828725" y="352.864413" style="fill: #add8e6; stroke: #add8e6; stroke-linejoin: miter"/>
     <use xlink:href="#mc7dc57b980" x="653.455376" y="354.330885" style="fill: #add8e6; stroke: #add8e6; stroke-linejoin: miter"/>
    </g>
   </g>
   <g id="line2d_27">
    <path d="M 87.042415 23.783636 
L 117.579461 23.783636 
L 118.564527 31.630622 
L 119.549593 31.630622 
L 120.534659 41.566373 
L 129.400254 41.566373 
L 130.38532 43.961599 
L 132.355452 43.961599 
L 133.340518 46.32285 
L 160.922366 46.32285 
L 161.907432 50.946278 
L 166.832762 50.946278 
L 167.817828 68.215243 
L 180.623687 68.215243 
L 181.608753 78.10892 
L 206.235403 78.10892 
L 207.220469 115.037905 
L 231.84712 115.037905 
L 232.832186 116.017074 
L 233.817252 116.017074 
L 234.802318 121.297696 
L 241.69778 121.297696 
L 242.682846 99.907738 
L 243.667912 99.907738 
L 244.652978 102.02215 
L 245.638044 102.02215 
L 246.62311 102.205063 
L 248.593242 102.205063 
L 249.578308 104.445 
L 250.563374 106.379324 
L 251.54844 106.379324 
L 252.533506 113.476812 
L 253.518572 113.845445 
L 257.458836 113.845445 
L 258.443902 115.848115 
L 287.995883 115.848115 
L 288.980949 116.044016 
L 289.966015 116.044016 
L 290.951081 118.014898 
L 298.831609 118.014898 
L 299.816675 119.761459 
L 304.742005 119.761459 
L 305.727071 121.783887 
L 308.682269 121.783887 
L 309.667335 123.405917 
L 320.503061 123.405917 
L 321.488127 124.030289 
L 326.413457 124.030289 
L 327.398523 125.908087 
L 329.368655 125.935348 
L 330.353721 126.676049 
L 333.30892 126.676049 
L 334.293986 129.008887 
L 340.204382 129.008887 
L 341.189448 130.357474 
L 344.144646 130.357474 
L 345.129712 130.803482 
L 346.114778 130.610433 
L 347.099844 130.610433 
L 348.08491 131.471754 
L 352.025174 131.471754 
L 353.01024 136.346855 
L 358.920636 136.375485 
L 359.905702 134.239625 
L 361.875834 139.939751 
L 387.487551 139.925696 
L 388.472617 141.831056 
L 394.383013 141.831056 
L 395.368079 142.204637 
L 400.293409 142.237117 
L 401.278475 143.363178 
L 422.949927 143.358854 
L 423.934993 146.281008 
L 441.666182 146.369102 
L 442.651248 149.512993 
L 447.576578 149.512993 
L 448.561644 150.488568 
L 454.47204 150.488568 
L 455.457106 150.854453 
L 461.367502 150.854453 
L 462.352568 152.050066 
L 466.292832 152.050066 
L 467.277898 152.404585 
L 474.17336 152.404585 
L 475.158426 154.544672 
L 476.143492 154.544672 
L 477.128558 155.394983 
L 478.113624 158.883912 
L 479.09869 158.883912 
L 480.083756 160.758955 
L 485.009086 160.786252 
L 497.814945 160.810488 
L 498.800011 161.031895 
L 502.740275 161.074535 
L 503.725341 164.967109 
L 513.576001 164.970794 
L 514.561067 165.18717 
L 515.546133 152.332271 
L 516.531199 152.332271 
L 517.516265 153.563058 
L 518.501331 154.560451 
L 522.441595 154.560451 
L 523.426661 154.934479 
L 526.381859 155.044009 
L 527.366925 155.467889 
L 529.337057 155.467889 
L 530.322123 160.989458 
L 531.307189 161.949617 
L 533.277321 161.949617 
L 534.262387 162.796847 
L 535.247453 162.796847 
L 536.232519 164.695751 
L 537.217586 164.695751 
L 538.202652 174.718596 
L 540.172784 174.745263 
L 541.15785 175.202059 
L 558.889038 175.25251 
L 559.874104 175.593648 
L 562.829302 175.593648 
L 563.814368 175.818731 
L 565.7845 175.818731 
L 566.769566 177.383865 
L 568.739698 177.483246 
L 569.724764 175.466937 
L 570.70983 175.583933 
L 575.63516 175.583933 
L 576.620226 179.837805 
L 580.56049 179.837805 
L 581.545556 180.02606 
L 584.500754 180.02606 
L 585.48582 180.157617 
L 603.217009 180.166578 
L 604.202075 182.055744 
L 605.187141 182.055744 
L 606.172207 182.950211 
L 607.157273 187.434326 
L 608.142339 187.434326 
L 609.127405 188.717002 
L 610.112471 188.967871 
L 613.067669 188.967871 
L 614.052735 189.160596 
L 616.022867 189.160596 
L 617.007933 189.521181 
L 624.888461 189.534635 
L 625.873527 189.749647 
L 629.813791 189.770404 
L 631.783923 190.960531 
L 634.739121 190.960531 
L 635.724187 194.762268 
L 637.694319 194.762268 
L 638.679385 219.870623 
L 640.649518 219.891065 
L 641.634584 220.162978 
L 644.589782 220.208974 
L 645.574848 219.972358 
L 647.54498 219.972358 
L 648.530046 230.371353 
L 649.515112 231.119386 
L 650.500178 234.522016 
L 654.440442 234.531014 
L 655.425508 235.354922 
L 657.39564 235.354922 
L 658.380706 235.679766 
L 661.335904 235.679766 
L 662.32097 237.405775 
L 669.216432 237.405775 
L 670.201498 237.563954 
L 671.186564 237.84468 
L 677.09696 237.84468 
L 677.09696 237.84468 
" clip-path="url(#p15b670b81e)" style="fill: none; stroke: #008000; stroke-linecap: square"/>
    <defs>
     <path id="ma0a2ab7179" d="M 0 -2.5 
L -2.5 2.5 
L 2.5 2.5 
z
" style="stroke: #008000; stroke-linejoin: miter"/>
    </defs>
    <g clip-path="url(#p15b670b81e)">
     <use xlink:href="#ma0a2ab7179" x="87.042415" y="23.783636" style="fill: #008000; stroke: #008000; stroke-linejoin: miter"/>
     <use xlink:href="#ma0a2ab7179" x="111.669065" y="23.783636" style="fill: #008000; stroke: #008000; stroke-linejoin: miter"/>
     <use xlink:href="#ma0a2ab7179" x="136.295716" y="46.32285" style="fill: #008000; stroke: #008000; stroke-linejoin: miter"/>
     <use xlink:href="#ma0a2ab7179" x="160.922366" y="46.32285" style="fill: #008000; stroke: #008000; stroke-linejoin: miter"/>
     <use xlink:href="#ma0a2ab7179" x="185.549017" y="78.10892" style="fill: #008000; stroke: #008000; stroke-linejoin: miter"/>
     <use xlink:href="#ma0a2ab7179" x="210.175667" y="115.037905" style="fill: #008000; stroke: #008000; stroke-linejoin: miter"/>
     <use xlink:href="#ma0a2ab7179" x="234.802318" y="121.297696" style="fill: #008000; stroke: #008000; stroke-linejoin: miter"/>
     <use xlink:href="#ma0a2ab7179" x="259.428968" y="115.848115" style="fill: #008000; stroke: #008000; stroke-linejoin: miter"/>
     <use xlink:href="#ma0a2ab7179" x="284.055619" y="115.848115" style="fill: #008000; stroke: #008000; stroke-linejoin: miter"/>
     <use xlink:href="#ma0a2ab7179" x="308.682269" y="121.783887" style="fill: #008000; stroke: #008000; stroke-linejoin: miter"/>
     <use xlink:href="#ma0a2ab7179" x="333.30892" y="126.676049" style="fill: #008000; stroke: #008000; stroke-linejoin: miter"/>
     <use xlink:href="#ma0a2ab7179" x="357.93557" y="136.346855" style="fill: #008000; stroke: #008000; stroke-linejoin: miter"/>
     <use xlink:href="#ma0a2ab7179" x="382.562221" y="139.925696" style="fill: #008000; stroke: #008000; stroke-linejoin: miter"/>
     <use xlink:href="#ma0a2ab7179" x="407.188871" y="143.363178" style="fill: #008000; stroke: #008000; stroke-linejoin: miter"/>
     <use xlink:href="#ma0a2ab7179" x="431.815521" y="146.322097" style="fill: #008000; stroke: #008000; stroke-linejoin: miter"/>
     <use xlink:href="#ma0a2ab7179" x="456.442172" y="150.854453" style="fill: #008000; stroke: #008000; stroke-linejoin: miter"/>
     <use xlink:href="#ma0a2ab7179" x="481.068822" y="160.786252" style="fill: #008000; stroke: #008000; stroke-linejoin: miter"/>
     <use xlink:href="#ma0a2ab7179" x="505.695473" y="164.967109" style="fill: #008000; stroke: #008000; stroke-linejoin: miter"/>
     <use xlink:href="#ma0a2ab7179" x="530.322123" y="160.989458" style="fill: #008000; stroke: #008000; stroke-linejoin: miter"/>
     <use xlink:href="#ma0a2ab7179" x="554.948774" y="175.25251" style="fill: #008000; stroke: #008000; stroke-linejoin: miter"/>
     <use xlink:href="#ma0a2ab7179" x="579.575424" y="179.837805" style="fill: #008000; stroke: #008000; stroke-linejoin: miter"/>
     <use xlink:href="#ma0a2ab7179" x="604.202075" y="182.055744" style="fill: #008000; stroke: #008000; stroke-linejoin: miter"/>
     <use xlink:href="#ma0a2ab7179" x="628.828725" y="189.770404" style="fill: #008000; stroke: #008000; stroke-linejoin: miter"/>
     <use xlink:href="#ma0a2ab7179" x="653.455376" y="234.522016" style="fill: #008000; stroke: #008000; stroke-linejoin: miter"/>
    </g>
   </g>
   <g id="line2d_28">
    <path d="M 87.042415 23.783636 
L 88.027481 23.976881 
L 89.012547 23.992087 
L 89.997613 26.509226 
L 90.982679 26.777926 
L 92.952811 26.88316 
L 93.937877 27.04774 
L 94.922943 27.078109 
L 96.893075 27.348053 
L 101.818405 27.818873 
L 102.803471 27.849226 
L 103.788537 30.053131 
L 104.773603 30.651676 
L 105.758669 30.990345 
L 108.713867 31.259078 
L 109.698933 31.356794 
L 110.683999 31.820124 
L 112.654131 32.360998 
L 114.624263 32.724487 
L 119.549593 33.106711 
L 120.534659 33.556643 
L 122.504791 33.748844 
L 125.45999 33.943235 
L 126.445056 34.282936 
L 127.430122 34.386792 
L 128.415188 34.679916 
L 130.38532 34.917102 
L 132.355452 35.035862 
L 133.340518 35.447344 
L 135.31065 35.580808 
L 142.206112 36.767717 
L 143.191178 37.448515 
L 148.116508 37.829165 
L 149.101574 38.626089 
L 150.08664 38.859497 
L 155.01197 39.413727 
L 155.997036 40.66726 
L 156.982102 40.710546 
L 157.967168 40.870896 
L 158.952234 41.188335 
L 160.922366 41.311037 
L 161.907432 38.019103 
L 164.86263 38.107204 
L 165.847696 38.803519 
L 167.817828 38.877885 
L 168.802894 38.492063 
L 169.78796 40.238447 
L 170.773026 42.665871 
L 176.683423 43.23944 
L 178.653555 43.493198 
L 179.638621 43.58152 
L 181.608753 44.033539 
L 182.593819 44.075766 
L 183.578885 45.371596 
L 184.563951 45.442446 
L 185.549017 45.651721 
L 190.474347 45.898475 
L 196.384743 46.30758 
L 197.369809 46.873317 
L 201.310073 47.0883 
L 204.265271 47.906237 
L 205.250337 48.774824 
L 206.235403 48.945889 
L 207.220469 49.365428 
L 209.190601 49.62418 
L 210.175667 49.887562 
L 214.115931 50.328959 
L 215.100997 50.78752 
L 217.071129 51.079672 
L 220.026327 51.339933 
L 221.011393 52.047498 
L 222.981525 52.130047 
L 223.966591 52.315623 
L 224.951657 50.850274 
L 225.936723 50.893508 
L 229.876988 51.587025 
L 230.862054 51.644138 
L 232.832186 51.979919 
L 233.817252 52.933935 
L 234.802318 54.748815 
L 235.787384 54.969918 
L 237.757516 55.056617 
L 238.742582 55.443574 
L 241.69778 55.815758 
L 242.682846 55.82886 
L 243.667912 55.97041 
L 244.652978 56.522197 
L 249.578308 56.898361 
L 250.563374 57.039088 
L 251.54844 57.651264 
L 252.533506 58.433384 
L 253.518572 58.505878 
L 254.503638 58.803557 
L 255.488704 59.28097 
L 257.458836 59.367626 
L 261.3991 59.622506 
L 262.384166 60.296048 
L 264.354298 60.412606 
L 265.339364 60.92569 
L 266.32443 61.832843 
L 269.279628 61.991562 
L 270.264694 62.253845 
L 273.219892 62.390852 
L 274.204958 62.886908 
L 276.17509 63.110872 
L 277.160156 63.2217 
L 278.145222 63.678627 
L 282.085487 64.610865 
L 283.070553 64.857963 
L 285.040685 65.007368 
L 286.025751 66.493899 
L 287.010817 66.660262 
L 288.980949 67.430364 
L 289.966015 68.085985 
L 290.951081 69.069454 
L 292.921213 69.248742 
L 293.906279 69.708767 
L 294.891345 69.849015 
L 295.876411 69.766352 
L 296.861477 69.874083 
L 297.846543 67.871411 
L 298.831609 68.887946 
L 299.816675 69.249065 
L 300.801741 70.061686 
L 303.756939 70.288261 
L 304.742005 70.38701 
L 306.712137 71.216085 
L 308.682269 71.386598 
L 311.637467 72.14627 
L 315.577731 72.406482 
L 316.562797 72.884554 
L 320.503061 73.245836 
L 321.488127 73.580016 
L 322.473193 73.640456 
L 323.458259 74.189332 
L 325.428391 74.342821 
L 326.413457 74.595568 
L 328.383589 74.695848 
L 330.353721 74.907085 
L 331.338788 75.328358 
L 334.293986 75.534085 
L 335.279052 72.449299 
L 336.264118 72.475427 
L 337.249184 72.759216 
L 339.219316 73.008191 
L 343.15958 73.398673 
L 344.144646 73.743616 
L 346.114778 73.939804 
L 347.099844 74.13911 
L 351.040108 74.533277 
L 352.025174 74.691381 
L 353.01024 75.65448 
L 353.995306 75.996872 
L 354.980372 76.547544 
L 355.965438 76.944203 
L 360.890768 77.111554 
L 361.875834 77.265151 
L 362.8609 77.787627 
L 365.816098 77.898465 
L 366.801164 78.529443 
L 367.78623 78.583533 
L 368.771296 79.190009 
L 370.741428 79.413752 
L 371.726494 80.095908 
L 373.696626 80.179501 
L 374.681692 80.89823 
L 375.666758 80.912537 
L 376.651824 80.304006 
L 377.63689 80.713477 
L 379.607022 81.310552 
L 380.592088 81.725823 
L 381.577154 81.753996 
L 382.562221 82.040887 
L 386.502485 82.348712 
L 387.487551 82.607802 
L 388.472617 83.163076 
L 389.457683 83.204864 
L 390.442749 83.519066 
L 391.427815 84.21965 
L 395.368079 84.421564 
L 396.353145 84.866849 
L 397.338211 84.992579 
L 398.323277 85.626882 
L 399.308343 85.667756 
L 400.293409 85.917817 
L 403.248607 86.066938 
L 404.233673 86.275972 
L 405.218739 86.681448 
L 406.203805 86.915949 
L 407.188871 87.015361 
L 408.173937 87.230321 
L 409.159003 87.323939 
L 410.144069 87.691949 
L 411.129135 87.733778 
L 413.099267 88.092747 
L 414.084333 88.741492 
L 415.069399 88.939979 
L 417.039531 89.004485 
L 418.024597 89.27024 
L 419.009663 89.406927 
L 419.994729 90.16116 
L 427.875257 90.884462 
L 428.860323 91.114898 
L 432.800587 91.474871 
L 433.785654 92.297597 
L 436.740852 92.623416 
L 437.725918 93.1452 
L 438.710984 93.488721 
L 440.681116 93.687158 
L 442.651248 94.243976 
L 445.606446 94.707238 
L 446.591512 94.946313 
L 448.561644 95.075674 
L 449.54671 96.205864 
L 452.501908 96.879023 
L 453.486974 97.769406 
L 455.457106 98.008101 
L 456.442172 98.342182 
L 460.382436 98.645135 
L 461.367502 98.746221 
L 462.352568 99.213581 
L 463.337634 99.455606 
L 464.3227 100.328651 
L 466.292832 101.521402 
L 467.277898 101.692574 
L 470.233096 102.540617 
L 472.203228 102.804761 
L 474.17336 102.917595 
L 475.158426 103.527256 
L 477.128558 103.666204 
L 478.113624 104.020959 
L 483.038954 104.448079 
L 484.02402 104.595523 
L 485.994153 105.111697 
L 487.964285 105.230958 
L 489.934417 105.296657 
L 490.919483 105.92515 
L 491.904549 106.120626 
L 492.889615 106.488448 
L 493.874681 107.798015 
L 494.859747 107.874558 
L 495.844813 108.142385 
L 496.829879 108.274327 
L 499.785077 108.356367 
L 500.770143 108.611953 
L 502.740275 108.71594 
L 503.725341 108.928788 
L 504.710407 108.86116 
L 506.680539 109.013933 
L 507.665605 109.042237 
L 508.650671 109.348211 
L 509.635737 109.375327 
L 510.620803 109.682591 
L 514.561067 110.061018 
L 515.546133 113.066061 
L 517.516265 113.241105 
L 518.501331 114.489754 
L 520.471463 114.56423 
L 522.441595 114.90945 
L 523.426661 116.168622 
L 525.396793 116.309016 
L 527.366925 117.118351 
L 529.337057 117.231317 
L 530.322123 117.52539 
L 532.292255 117.741773 
L 534.262387 117.984603 
L 535.247453 118.04678 
L 536.232519 118.444427 
L 537.217586 118.645489 
L 538.202652 120.234498 
L 539.187718 121.287137 
L 541.15785 121.360611 
L 544.113048 121.484678 
L 545.098114 121.981626 
L 546.08318 122.084842 
L 547.068246 121.097096 
L 548.053312 121.353816 
L 549.038378 121.431072 
L 550.023444 121.661577 
L 551.00851 122.019542 
L 553.963708 122.219697 
L 556.918906 122.845242 
L 557.903972 124.850802 
L 558.889038 124.912153 
L 559.874104 126.228415 
L 560.85917 126.240611 
L 561.844236 127.106047 
L 562.829302 127.331386 
L 563.814368 127.388652 
L 564.799434 127.755671 
L 565.7845 127.949842 
L 566.769566 128.497874 
L 568.739698 128.643476 
L 569.724764 128.957121 
L 570.70983 128.995304 
L 571.694896 129.16317 
L 573.665028 129.283663 
L 574.650094 129.475353 
L 577.605292 129.66887 
L 578.590358 130.295774 
L 579.575424 130.469735 
L 580.56049 127.443721 
L 581.545556 127.888157 
L 582.530622 128.103153 
L 583.515688 128.7986 
L 584.500754 128.845321 
L 585.48582 129.068702 
L 586.470886 129.469063 
L 592.381283 129.810193 
L 593.366349 130.092987 
L 599.276745 130.483753 
L 600.261811 128.866916 
L 601.246877 129.294862 
L 602.231943 129.393069 
L 603.217009 129.849416 
L 605.187141 130.050242 
L 608.142339 130.171398 
L 609.127405 130.796953 
L 610.112471 130.820725 
L 611.097537 131.136111 
L 612.082603 131.300595 
L 614.052735 131.322964 
L 616.022867 131.484217 
L 618.978065 131.53902 
L 619.963131 132.283062 
L 620.948197 135.616671 
L 621.933263 135.969603 
L 626.858593 136.251064 
L 627.843659 136.621776 
L 629.813791 136.815699 
L 632.768989 137.024075 
L 633.754055 137.320926 
L 634.739121 137.363822 
L 635.724187 137.527716 
L 636.709253 139.752964 
L 637.694319 139.843164 
L 638.679385 139.698809 
L 639.664452 139.85608 
L 640.649518 140.461599 
L 641.634584 140.727698 
L 646.559914 140.89133 
L 647.54498 141.288962 
L 648.530046 141.312167 
L 649.515112 141.469315 
L 650.500178 141.857895 
L 653.455376 142.236153 
L 656.410574 142.34853 
L 657.39564 142.668357 
L 658.380706 142.741992 
L 659.365772 140.557416 
L 660.350838 143.559199 
L 661.335904 143.605799 
L 662.32097 143.801388 
L 670.201498 144.204712 
L 673.156696 144.610633 
L 677.09696 144.905377 
L 677.09696 144.905377 
" clip-path="url(#p15b670b81e)" style="fill: none; stroke-dasharray: 3.7,1.6; stroke-dashoffset: 0; stroke: #90ee90"/>
    <defs>
     <path id="m219ca29a64" d="M 0 -2.5 
L -2.5 2.5 
L 2.5 2.5 
z
" style="stroke: #90ee90; stroke-linejoin: miter"/>
    </defs>
    <g clip-path="url(#p15b670b81e)">
     <use xlink:href="#m219ca29a64" x="87.042415" y="23.783636" style="fill: #90ee90; stroke: #90ee90; stroke-linejoin: miter"/>
     <use xlink:href="#m219ca29a64" x="111.669065" y="32.127684" style="fill: #90ee90; stroke: #90ee90; stroke-linejoin: miter"/>
     <use xlink:href="#m219ca29a64" x="136.295716" y="35.74323" style="fill: #90ee90; stroke: #90ee90; stroke-linejoin: miter"/>
     <use xlink:href="#m219ca29a64" x="160.922366" y="41.311037" style="fill: #90ee90; stroke: #90ee90; stroke-linejoin: miter"/>
     <use xlink:href="#m219ca29a64" x="185.549017" y="45.651721" style="fill: #90ee90; stroke: #90ee90; stroke-linejoin: miter"/>
     <use xlink:href="#m219ca29a64" x="210.175667" y="49.887562" style="fill: #90ee90; stroke: #90ee90; stroke-linejoin: miter"/>
     <use xlink:href="#m219ca29a64" x="234.802318" y="54.748815" style="fill: #90ee90; stroke: #90ee90; stroke-linejoin: miter"/>
     <use xlink:href="#m219ca29a64" x="259.428968" y="59.496249" style="fill: #90ee90; stroke: #90ee90; stroke-linejoin: miter"/>
     <use xlink:href="#m219ca29a64" x="284.055619" y="64.912869" style="fill: #90ee90; stroke: #90ee90; stroke-linejoin: miter"/>
     <use xlink:href="#m219ca29a64" x="308.682269" y="71.386598" style="fill: #90ee90; stroke: #90ee90; stroke-linejoin: miter"/>
     <use xlink:href="#m219ca29a64" x="333.30892" y="75.477279" style="fill: #90ee90; stroke: #90ee90; stroke-linejoin: miter"/>
     <use xlink:href="#m219ca29a64" x="357.93557" y="76.998407" style="fill: #90ee90; stroke: #90ee90; stroke-linejoin: miter"/>
     <use xlink:href="#m219ca29a64" x="382.562221" y="82.040887" style="fill: #90ee90; stroke: #90ee90; stroke-linejoin: miter"/>
     <use xlink:href="#m219ca29a64" x="407.188871" y="87.015361" style="fill: #90ee90; stroke: #90ee90; stroke-linejoin: miter"/>
     <use xlink:href="#m219ca29a64" x="431.815521" y="91.437614" style="fill: #90ee90; stroke: #90ee90; stroke-linejoin: miter"/>
     <use xlink:href="#m219ca29a64" x="456.442172" y="98.342182" style="fill: #90ee90; stroke: #90ee90; stroke-linejoin: miter"/>
     <use xlink:href="#m219ca29a64" x="481.068822" y="104.28413" style="fill: #90ee90; stroke: #90ee90; stroke-linejoin: miter"/>
     <use xlink:href="#m219ca29a64" x="505.695473" y="108.961751" style="fill: #90ee90; stroke: #90ee90; stroke-linejoin: miter"/>
     <use xlink:href="#m219ca29a64" x="530.322123" y="117.52539" style="fill: #90ee90; stroke: #90ee90; stroke-linejoin: miter"/>
     <use xlink:href="#m219ca29a64" x="554.948774" y="122.437919" style="fill: #90ee90; stroke: #90ee90; stroke-linejoin: miter"/>
     <use xlink:href="#m219ca29a64" x="579.575424" y="130.469735" style="fill: #90ee90; stroke: #90ee90; stroke-linejoin: miter"/>
     <use xlink:href="#m219ca29a64" x="604.202075" y="129.977382" style="fill: #90ee90; stroke: #90ee90; stroke-linejoin: miter"/>
     <use xlink:href="#m219ca29a64" x="628.828725" y="136.746255" style="fill: #90ee90; stroke: #90ee90; stroke-linejoin: miter"/>
     <use xlink:href="#m219ca29a64" x="653.455376" y="142.236153" style="fill: #90ee90; stroke: #90ee90; stroke-linejoin: miter"/>
    </g>
   </g>
   <g id="line2d_29">
    <path d="M 87.042415 23.783636 
L 88.027481 39.087326 
L 89.012547 88.423641 
L 89.997613 117.776228 
L 90.982679 157.753044 
L 91.967745 181.937645 
L 92.952811 196.823962 
L 93.937877 196.932466 
L 94.922943 208.421453 
L 95.908009 213.406402 
L 96.893075 223.74247 
L 99.848273 244.354291 
L 100.833339 249.595785 
L 101.818405 250.672671 
L 102.803471 250.605486 
L 103.788537 254.448828 
L 104.773603 256.921372 
L 105.758669 257.119331 
L 106.743735 260.958108 
L 107.728801 263.857168 
L 108.713867 267.138142 
L 109.698933 267.26819 
L 110.683999 270.734254 
L 111.669065 270.690423 
L 112.654131 271.067498 
L 113.639197 274.527863 
L 114.624263 276.796871 
L 115.609329 276.831498 
L 116.594395 279.245314 
L 117.579461 281.103742 
L 120.534659 285.76951 
L 121.519725 286.1612 
L 122.504791 287.549525 
L 124.474923 289.962422 
L 125.45999 291.530015 
L 126.445056 292.729066 
L 127.430122 292.966903 
L 128.415188 293.43136 
L 132.355452 298.345101 
L 133.340518 299.287177 
L 134.325584 300.02495 
L 135.31065 300.228201 
L 136.295716 301.285243 
L 138.265848 302.91845 
L 141.221046 305.49541 
L 144.176244 307.777815 
L 146.146376 309.2208 
L 149.101574 311.029297 
L 150.08664 311.486279 
L 151.071706 312.10699 
L 153.041838 313.124445 
L 154.026904 313.125424 
L 158.952234 315.591075 
L 161.907432 316.964044 
L 163.877564 317.807369 
L 165.847696 318.64585 
L 168.802894 319.977023 
L 169.78796 320.131782 
L 171.758092 321.179331 
L 182.593819 325.353356 
L 185.549017 326.249175 
L 186.534083 326.237712 
L 195.399677 329.135187 
L 196.384743 329.237371 
L 197.369809 329.482222 
L 199.339941 329.555121 
L 200.325007 330.166065 
L 210.175667 332.97464 
L 216.086063 334.264889 
L 217.071129 334.530727 
L 219.041261 334.860564 
L 220.026327 334.846528 
L 221.996459 335.370701 
L 222.981525 335.545094 
L 223.966591 335.545552 
L 227.906856 336.424656 
L 231.84712 337.167396 
L 232.832186 337.195126 
L 233.817252 337.373448 
L 234.802318 336.681744 
L 238.742582 337.248734 
L 240.712714 337.416494 
L 241.69778 337.568919 
L 242.682846 326.465419 
L 245.638044 327.271004 
L 246.62311 327.271004 
L 248.593242 327.755326 
L 250.563374 327.70594 
L 251.54844 327.894152 
L 252.533506 326.927622 
L 253.518572 326.927622 
L 260.414034 328.424217 
L 261.3991 328.424217 
L 264.354298 329.037375 
L 265.339364 329.037068 
L 266.32443 329.224843 
L 268.294562 329.206829 
L 270.264694 329.679824 
L 271.24976 329.867448 
L 272.234826 329.867448 
L 274.204958 330.275871 
L 275.190024 330.275871 
L 278.145222 330.833601 
L 285.040685 331.966196 
L 287.995883 332.516618 
L 288.980949 332.516618 
L 298.831609 334.105866 
L 299.816675 333.95064 
L 304.742005 334.742025 
L 305.727071 334.665571 
L 308.682269 335.1192 
L 309.667335 335.005902 
L 317.547863 336.20829 
L 319.517995 336.554544 
L 320.503061 336.695133 
L 321.488127 336.706857 
L 326.413457 337.426563 
L 327.398523 337.362532 
L 328.383589 337.496725 
L 331.338788 337.484876 
L 332.323854 337.627159 
L 333.30892 337.627159 
L 334.293986 337.426935 
L 335.279052 337.417967 
L 338.23425 337.877875 
L 340.204382 338.140822 
L 341.189448 338.140822 
L 343.15958 338.364918 
L 345.129712 338.464677 
L 348.08491 338.550276 
L 350.055042 338.784282 
L 352.025174 338.887554 
L 353.01024 337.768231 
L 357.93557 338.304668 
L 358.920636 338.304668 
L 359.905702 336.734689 
L 361.875834 336.056067 
L 369.756362 337.03348 
L 371.726494 337.140788 
L 377.63689 337.842448 
L 383.547287 338.491463 
L 386.502485 338.547421 
L 396.353145 339.615357 
L 397.338211 339.615357 
L 408.173937 340.755749 
L 410.144069 340.888219 
L 413.099267 341.161118 
L 414.084333 341.161118 
L 415.069399 341.281459 
L 416.054465 341.281459 
L 420.979795 341.737608 
L 422.949927 341.928792 
L 423.934993 341.620467 
L 427.875257 342.00227 
L 432.800587 342.422836 
L 434.77072 342.523626 
L 440.681116 343.028468 
L 441.666182 343.160797 
L 442.651248 342.800857 
L 444.62138 342.893764 
L 457.427238 343.765087 
L 458.412304 343.768459 
L 460.382436 343.961224 
L 465.307766 344.153333 
L 468.262964 344.34379 
L 474.17336 344.867381 
L 475.158426 344.645274 
L 478.113624 344.825445 
L 479.09869 344.913737 
L 480.083756 344.738493 
L 483.038954 344.835441 
L 489.934417 345.421356 
L 491.904549 345.529035 
L 497.814945 345.898142 
L 499.785077 345.961294 
L 502.740275 346.110013 
L 503.725341 345.7697 
L 506.680539 345.850378 
L 509.635737 346.130136 
L 514.561067 346.366497 
L 515.546133 345.995586 
L 516.531199 346.082546 
L 518.501331 345.912355 
L 522.441595 346.274511 
L 533.277321 346.597348 
L 534.262387 346.565126 
L 535.247453 346.645894 
L 536.232519 346.429287 
L 539.187718 346.585542 
L 542.142916 346.649386 
L 568.739698 348.246541 
L 570.70983 348.14145 
L 575.63516 348.457246 
L 576.620226 348.063446 
L 584.500754 348.473281 
L 587.455952 348.538829 
L 598.291679 349.213087 
L 601.246877 349.289573 
L 603.217009 349.416723 
L 604.202075 349.299096 
L 605.187141 349.372095 
L 606.172207 349.302446 
L 608.142339 349.45472 
L 610.112471 349.361794 
L 612.082603 349.440807 
L 616.022867 349.630792 
L 619.963131 349.738331 
L 621.933263 349.796766 
L 623.903395 349.878684 
L 629.813791 350.102944 
L 634.739121 350.19819 
L 635.724187 349.74303 
L 641.634584 349.984589 
L 651.485244 350.040892 
L 654.440442 350.163363 
L 656.410574 350.255562 
L 661.335904 350.540201 
L 662.32097 350.309993 
L 665.276168 350.380802 
L 670.201498 350.573931 
L 673.156696 350.641219 
L 677.09696 350.889021 
L 677.09696 350.889021 
" clip-path="url(#p15b670b81e)" style="fill: none; stroke: #ff0000; stroke-linecap: square"/>
    <defs>
     <path id="m89d233a95c" d="M 0 2.5 
C 0.663008 2.5 1.29895 2.236584 1.767767 1.767767 
C 2.236584 1.29895 2.5 0.663008 2.5 0 
C 2.5 -0.663008 2.236584 -1.29895 1.767767 -1.767767 
C 1.29895 -2.236584 0.663008 -2.5 0 -2.5 
C -0.663008 -2.5 -1.29895 -2.236584 -1.767767 -1.767767 
C -2.236584 -1.29895 -2.5 -0.663008 -2.5 0 
C -2.5 0.663008 -2.236584 1.29895 -1.767767 1.767767 
C -1.29895 2.236584 -0.663008 2.5 0 2.5 
z
" style="stroke: #ff0000"/>
    </defs>
    <g clip-path="url(#p15b670b81e)">
     <use xlink:href="#m89d233a95c" x="87.042415" y="23.783636" style="fill: #ff0000; stroke: #ff0000"/>
     <use xlink:href="#m89d233a95c" x="111.669065" y="270.690423" style="fill: #ff0000; stroke: #ff0000"/>
     <use xlink:href="#m89d233a95c" x="136.295716" y="301.285243" style="fill: #ff0000; stroke: #ff0000"/>
     <use xlink:href="#m89d233a95c" x="160.922366" y="316.516551" style="fill: #ff0000; stroke: #ff0000"/>
     <use xlink:href="#m89d233a95c" x="185.549017" y="326.249175" style="fill: #ff0000; stroke: #ff0000"/>
     <use xlink:href="#m89d233a95c" x="210.175667" y="332.97464" style="fill: #ff0000; stroke: #ff0000"/>
     <use xlink:href="#m89d233a95c" x="234.802318" y="336.681744" style="fill: #ff0000; stroke: #ff0000"/>
     <use xlink:href="#m89d233a95c" x="259.428968" y="328.195166" style="fill: #ff0000; stroke: #ff0000"/>
     <use xlink:href="#m89d233a95c" x="284.055619" y="331.784029" style="fill: #ff0000; stroke: #ff0000"/>
     <use xlink:href="#m89d233a95c" x="308.682269" y="335.1192" style="fill: #ff0000; stroke: #ff0000"/>
     <use xlink:href="#m89d233a95c" x="333.30892" y="337.627159" style="fill: #ff0000; stroke: #ff0000"/>
     <use xlink:href="#m89d233a95c" x="357.93557" y="338.304668" style="fill: #ff0000; stroke: #ff0000"/>
     <use xlink:href="#m89d233a95c" x="382.562221" y="338.379938" style="fill: #ff0000; stroke: #ff0000"/>
     <use xlink:href="#m89d233a95c" x="407.188871" y="340.651619" style="fill: #ff0000; stroke: #ff0000"/>
     <use xlink:href="#m89d233a95c" x="431.815521" y="342.304845" style="fill: #ff0000; stroke: #ff0000"/>
     <use xlink:href="#m89d233a95c" x="456.442172" y="343.661016" style="fill: #ff0000; stroke: #ff0000"/>
     <use xlink:href="#m89d233a95c" x="481.068822" y="344.738493" style="fill: #ff0000; stroke: #ff0000"/>
     <use xlink:href="#m89d233a95c" x="505.695473" y="345.844394" style="fill: #ff0000; stroke: #ff0000"/>
     <use xlink:href="#m89d233a95c" x="530.322123" y="346.584951" style="fill: #ff0000; stroke: #ff0000"/>
     <use xlink:href="#m89d233a95c" x="554.948774" y="347.430016" style="fill: #ff0000; stroke: #ff0000"/>
     <use xlink:href="#m89d233a95c" x="579.575424" y="348.266183" style="fill: #ff0000; stroke: #ff0000"/>
     <use xlink:href="#m89d233a95c" x="604.202075" y="349.299096" style="fill: #ff0000; stroke: #ff0000"/>
     <use xlink:href="#m89d233a95c" x="628.828725" y="350.102944" style="fill: #ff0000; stroke: #ff0000"/>
     <use xlink:href="#m89d233a95c" x="653.455376" y="350.163363" style="fill: #ff0000; stroke: #ff0000"/>
    </g>
   </g>
   <g id="line2d_30">
    <path d="M 87.042415 23.783636 
L 89.012547 24.073425 
L 89.997613 24.150256 
L 90.982679 24.916666 
L 91.967745 25.00067 
L 92.952811 25.330314 
L 100.833339 26.23026 
L 101.818405 26.245471 
L 102.803471 27.20583 
L 105.758669 27.438283 
L 106.743735 27.593868 
L 108.713867 27.64132 
L 109.698933 27.841618 
L 113.639197 28.066423 
L 115.609329 28.543897 
L 117.579461 28.68494 
L 119.549593 28.981475 
L 120.534659 29.050763 
L 122.504791 29.679859 
L 123.489857 29.855367 
L 125.45999 30.059796 
L 130.38532 30.689912 
L 133.340518 30.919339 
L 134.325584 31.887051 
L 136.295716 32.210709 
L 137.280782 32.471524 
L 142.206112 32.973204 
L 144.176244 33.138405 
L 145.16131 33.315437 
L 150.08664 33.602365 
L 151.071706 34.242742 
L 152.056772 34.23875 
L 153.041838 34.421899 
L 155.997036 34.538623 
L 156.982102 34.985465 
L 157.967168 34.995386 
L 159.9373 35.316888 
L 161.907432 35.407762 
L 162.892498 35.567215 
L 164.86263 35.613007 
L 167.817828 35.992818 
L 171.758092 36.242958 
L 172.743158 37.151709 
L 175.698356 37.274232 
L 176.683423 37.401191 
L 177.668489 39.100994 
L 178.653555 39.136873 
L 179.638621 39.623633 
L 181.608753 39.817687 
L 182.593819 40.202445 
L 183.578885 40.718163 
L 184.563951 41.0239 
L 185.549017 41.027177 
L 189.489281 41.752036 
L 190.474347 41.762818 
L 195.399677 42.388258 
L 196.384743 43.059904 
L 199.339941 43.783518 
L 200.325007 43.831519 
L 201.310073 44.111047 
L 204.265271 44.396521 
L 205.250337 44.432619 
L 206.235403 44.682584 
L 207.220469 44.707143 
L 210.175667 45.240481 
L 211.160733 45.248885 
L 212.145799 47.637679 
L 213.130865 47.702404 
L 214.115931 47.966472 
L 216.086063 48.09104 
L 218.056195 48.165745 
L 219.041261 49.059158 
L 220.026327 49.365621 
L 222.981525 49.561376 
L 223.966591 50.057598 
L 228.891922 50.243457 
L 229.876988 50.466675 
L 235.787384 50.824945 
L 236.77245 51.137725 
L 240.712714 51.340556 
L 241.69778 51.374085 
L 242.682846 51.715478 
L 244.652978 51.849856 
L 248.593242 52.206612 
L 249.578308 52.625143 
L 250.563374 52.759556 
L 251.54844 53.667989 
L 252.533506 53.815628 
L 256.47377 53.995177 
L 257.458836 54.210447 
L 258.443902 54.614795 
L 260.414034 54.770092 
L 261.3991 55.585526 
L 262.384166 55.771566 
L 263.369232 57.171482 
L 273.219892 57.741438 
L 275.190024 58.033758 
L 276.17509 58.052628 
L 280.115355 58.770083 
L 281.100421 59.241079 
L 282.085487 60.727588 
L 287.995883 61.252883 
L 288.980949 61.338795 
L 290.951081 61.636861 
L 291.936147 62.355111 
L 292.921213 62.365629 
L 294.891345 62.739676 
L 295.876411 63.484188 
L 296.861477 63.514494 
L 298.831609 63.783626 
L 300.801741 63.939823 
L 303.756939 64.391576 
L 305.727071 64.460786 
L 306.712137 64.86496 
L 309.667335 65.071499 
L 311.637467 65.258814 
L 316.562797 65.547166 
L 317.547863 67.05449 
L 320.503061 67.33473 
L 321.488127 67.617347 
L 325.428391 67.801711 
L 326.413457 69.05892 
L 327.398523 69.476306 
L 331.338788 69.592518 
L 332.323854 71.191464 
L 333.30892 71.565135 
L 334.293986 71.601089 
L 335.279052 71.91505 
L 336.264118 72.086282 
L 337.249184 72.834783 
L 341.189448 73.351047 
L 342.174514 73.887208 
L 343.15958 73.964333 
L 344.144646 74.336575 
L 345.129712 74.359147 
L 346.114778 75.33097 
L 351.040108 75.578469 
L 353.01024 75.802426 
L 353.995306 76.560427 
L 354.980372 76.869398 
L 357.93557 77.042398 
L 358.920636 77.466096 
L 359.905702 77.66449 
L 361.875834 77.776104 
L 362.8609 78.235751 
L 363.845966 78.282074 
L 365.816098 78.564664 
L 366.801164 78.6875 
L 367.78623 81.126031 
L 368.771296 83.085686 
L 370.741428 83.339034 
L 371.726494 84.460162 
L 374.681692 84.656351 
L 375.666758 85.030623 
L 376.651824 85.052689 
L 377.63689 86.153801 
L 378.621956 86.329409 
L 379.607022 87.203748 
L 382.562221 87.34888 
L 383.547287 87.545085 
L 388.472617 87.793968 
L 389.457683 88.09677 
L 391.427815 88.286445 
L 393.397947 88.523361 
L 394.383013 89.384695 
L 395.368079 89.555031 
L 396.353145 89.593676 
L 397.338211 90.268462 
L 398.323277 90.44415 
L 399.308343 90.479024 
L 401.278475 90.817435 
L 403.248607 90.953311 
L 405.218739 91.0586 
L 406.203805 91.385145 
L 407.188871 92.467552 
L 410.144069 92.960854 
L 413.099267 93.130388 
L 414.084333 94.479591 
L 415.069399 94.498948 
L 416.054465 94.872272 
L 419.009663 94.970906 
L 419.994729 95.276577 
L 420.979795 95.291096 
L 421.964861 95.664125 
L 428.860323 95.926185 
L 434.77072 96.414642 
L 435.755786 97.133981 
L 439.69605 97.381758 
L 440.681116 98.082199 
L 443.636314 98.406779 
L 446.591512 98.592841 
L 447.576578 99.001761 
L 448.561644 99.254635 
L 449.54671 101.072357 
L 452.501908 101.25207 
L 453.486974 101.369568 
L 454.47204 101.765208 
L 458.412304 101.948886 
L 459.39737 102.529448 
L 461.367502 102.683117 
L 465.307766 103.060333 
L 466.292832 104.77441 
L 468.262964 104.961577 
L 470.233096 105.159076 
L 471.218162 105.419333 
L 473.188294 105.530061 
L 474.17336 107.803648 
L 475.158426 107.909282 
L 476.143492 108.761098 
L 478.113624 108.806287 
L 479.09869 108.974109 
L 484.02402 109.193384 
L 485.009086 109.455437 
L 488.949351 109.625078 
L 491.904549 109.720151 
L 492.889615 109.950605 
L 493.874681 110.064642 
L 494.859747 110.511275 
L 498.800011 110.696203 
L 499.785077 111.204609 
L 500.770143 114.019375 
L 503.725341 114.182457 
L 504.710407 114.41178 
L 505.695473 115.115837 
L 508.650671 115.18892 
L 509.635737 116.113532 
L 510.620803 116.81098 
L 512.590935 117.211951 
L 513.576001 118.415073 
L 514.561067 118.430663 
L 517.516265 118.793561 
L 518.501331 119.503501 
L 519.486397 119.583261 
L 520.471463 119.960984 
L 522.441595 120.087165 
L 537.217586 121.302508 
L 538.202652 121.993937 
L 539.187718 122.088583 
L 540.172784 122.34254 
L 543.127982 122.524805 
L 544.113048 122.992901 
L 545.098114 123.168764 
L 550.023444 123.461526 
L 553.963708 123.904553 
L 555.93384 124.1102 
L 556.918906 125.735287 
L 558.889038 125.798355 
L 559.874104 127.589597 
L 560.85917 127.641908 
L 561.844236 127.903717 
L 562.829302 128.049377 
L 563.814368 128.559458 
L 564.799434 128.597418 
L 566.769566 128.818372 
L 567.754632 128.834686 
L 568.739698 128.99977 
L 570.70983 129.080159 
L 571.694896 129.190358 
L 572.679962 129.92553 
L 577.605292 130.24744 
L 578.590358 130.589479 
L 581.545556 130.679731 
L 582.530622 130.943949 
L 583.515688 130.996753 
L 584.500754 132.392608 
L 585.48582 132.416559 
L 586.470886 132.842033 
L 589.426085 132.954769 
L 590.411151 133.150394 
L 593.366349 133.207109 
L 595.336481 133.608303 
L 599.276745 133.726216 
L 602.231943 133.952903 
L 603.217009 135.200257 
L 607.157273 135.400749 
L 608.142339 135.829496 
L 612.082603 136.088361 
L 613.067669 136.898247 
L 617.007933 136.996166 
L 617.992999 138.617883 
L 621.933263 138.782015 
L 622.918329 138.881166 
L 623.903395 139.348798 
L 624.888461 139.361838 
L 625.873527 139.495036 
L 626.858593 139.752751 
L 629.813791 139.842469 
L 630.798857 140.71091 
L 635.724187 140.836349 
L 637.694319 140.998817 
L 640.649518 141.168219 
L 643.604716 141.276018 
L 644.589782 141.597359 
L 646.559914 141.639353 
L 647.54498 142.157415 
L 651.485244 142.374144 
L 652.47031 142.402894 
L 653.455376 143.320114 
L 655.425508 143.408024 
L 656.410574 143.932081 
L 657.39564 144.217315 
L 659.365772 144.331268 
L 662.32097 144.46351 
L 663.306036 144.671107 
L 664.291102 144.730575 
L 665.276168 144.915706 
L 668.231366 144.946044 
L 671.186564 145.57596 
L 676.111894 145.694134 
L 677.09696 145.715465 
L 677.09696 145.715465 
" clip-path="url(#p15b670b81e)" style="fill: none; stroke-dasharray: 3.7,1.6; stroke-dashoffset: 0; stroke: #fa8072"/>
    <defs>
     <path id="mc4bf95f72c" d="M 0 2.5 
C 0.663008 2.5 1.29895 2.236584 1.767767 1.767767 
C 2.236584 1.29895 2.5 0.663008 2.5 0 
C 2.5 -0.663008 2.236584 -1.29895 1.767767 -1.767767 
C 1.29895 -2.236584 0.663008 -2.5 0 -2.5 
C -0.663008 -2.5 -1.29895 -2.236584 -1.767767 -1.767767 
C -2.236584 -1.29895 -2.5 -0.663008 -2.5 0 
C -2.5 0.663008 -2.236584 1.29895 -1.767767 1.767767 
C -1.29895 2.236584 -0.663008 2.5 0 2.5 
z
" style="stroke: #fa8072"/>
    </defs>
    <g clip-path="url(#p15b670b81e)">
     <use xlink:href="#mc4bf95f72c" x="87.042415" y="23.783636" style="fill: #fa8072; stroke: #fa8072"/>
     <use xlink:href="#mc4bf95f72c" x="111.669065" y="27.938951" style="fill: #fa8072; stroke: #fa8072"/>
     <use xlink:href="#mc4bf95f72c" x="136.295716" y="32.210709" style="fill: #fa8072; stroke: #fa8072"/>
     <use xlink:href="#mc4bf95f72c" x="160.922366" y="35.349158" style="fill: #fa8072; stroke: #fa8072"/>
     <use xlink:href="#mc4bf95f72c" x="185.549017" y="41.027177" style="fill: #fa8072; stroke: #fa8072"/>
     <use xlink:href="#mc4bf95f72c" x="210.175667" y="45.240481" style="fill: #fa8072; stroke: #fa8072"/>
     <use xlink:href="#mc4bf95f72c" x="234.802318" y="50.74245" style="fill: #fa8072; stroke: #fa8072"/>
     <use xlink:href="#mc4bf95f72c" x="259.428968" y="54.655269" style="fill: #fa8072; stroke: #fa8072"/>
     <use xlink:href="#mc4bf95f72c" x="284.055619" y="60.965265" style="fill: #fa8072; stroke: #fa8072"/>
     <use xlink:href="#mc4bf95f72c" x="308.682269" y="64.918859" style="fill: #fa8072; stroke: #fa8072"/>
     <use xlink:href="#mc4bf95f72c" x="333.30892" y="71.565135" style="fill: #fa8072; stroke: #fa8072"/>
     <use xlink:href="#mc4bf95f72c" x="357.93557" y="77.042398" style="fill: #fa8072; stroke: #fa8072"/>
     <use xlink:href="#mc4bf95f72c" x="382.562221" y="87.34888" style="fill: #fa8072; stroke: #fa8072"/>
     <use xlink:href="#mc4bf95f72c" x="407.188871" y="92.467552" style="fill: #fa8072; stroke: #fa8072"/>
     <use xlink:href="#mc4bf95f72c" x="431.815521" y="96.255506" style="fill: #fa8072; stroke: #fa8072"/>
     <use xlink:href="#mc4bf95f72c" x="456.442172" y="101.852798" style="fill: #fa8072; stroke: #fa8072"/>
     <use xlink:href="#mc4bf95f72c" x="481.068822" y="109.02783" style="fill: #fa8072; stroke: #fa8072"/>
     <use xlink:href="#mc4bf95f72c" x="505.695473" y="115.115837" style="fill: #fa8072; stroke: #fa8072"/>
     <use xlink:href="#mc4bf95f72c" x="530.322123" y="120.70918" style="fill: #fa8072; stroke: #fa8072"/>
     <use xlink:href="#mc4bf95f72c" x="554.948774" y="123.988292" style="fill: #fa8072; stroke: #fa8072"/>
     <use xlink:href="#mc4bf95f72c" x="579.575424" y="130.633195" style="fill: #fa8072; stroke: #fa8072"/>
     <use xlink:href="#mc4bf95f72c" x="604.202075" y="135.231161" style="fill: #fa8072; stroke: #fa8072"/>
     <use xlink:href="#mc4bf95f72c" x="628.828725" y="139.825593" style="fill: #fa8072; stroke: #fa8072"/>
     <use xlink:href="#mc4bf95f72c" x="653.455376" y="143.320114" style="fill: #fa8072; stroke: #fa8072"/>
    </g>
   </g>
   <g id="patch_3">
    <path d="M 57.539688 372.04 
L 57.539688 7.2 
" style="fill: none; stroke: #000000; stroke-width: 0.8; stroke-linejoin: miter; stroke-linecap: square"/>
   </g>
   <g id="patch_4">
    <path d="M 706.599688 372.04 
L 706.599688 7.2 
" style="fill: none; stroke: #000000; stroke-width: 0.8; stroke-linejoin: miter; stroke-linecap: square"/>
   </g>
   <g id="patch_5">
    <path d="M 57.539688 372.04 
L 706.599687 372.04 
" style="fill: none; stroke: #000000; stroke-width: 0.8; stroke-linejoin: miter; stroke-linecap: square"/>
   </g>
   <g id="patch_6">
    <path d="M 57.539688 7.2 
L 706.599687 7.2 
" style="fill: none; stroke: #000000; stroke-width: 0.8; stroke-linejoin: miter; stroke-linecap: square"/>
   </g>
  </g>
 </g>
 <defs>
  <clipPath id="p15b670b81e">
   <rect x="57.539688" y="7.2" width="649.06" height="364.84"/>
  </clipPath>
 </defs>
</svg>
