<?xml version="1.0" encoding="utf-8" standalone="no"?>
<!DOCTYPE svg PUBLIC "-//W3C//DTD SVG 1.1//EN"
  "http://www.w3.org/Graphics/SVG/1.1/DTD/svg11.dtd">
<svg xmlns:xlink="http://www.w3.org/1999/xlink" width="864pt" height="576pt" viewBox="0 0 864 576" xmlns="http://www.w3.org/2000/svg" version="1.1">
 <metadata>
  <rdf:RDF xmlns:dc="http://purl.org/dc/elements/1.1/" xmlns:cc="http://creativecommons.org/ns#" xmlns:rdf="http://www.w3.org/1999/02/22-rdf-syntax-ns#">
   <cc:Work>
    <dc:type rdf:resource="http://purl.org/dc/dcmitype/StillImage"/>
    <dc:date>2024-06-30T14:23:12.788406</dc:date>
    <dc:format>image/svg+xml</dc:format>
    <dc:creator>
     <cc:Agent>
      <dc:title>Matplotlib v3.8.4, https://matplotlib.org/</dc:title>
     </cc:Agent>
    </dc:creator>
   </cc:Work>
  </rdf:RDF>
 </metadata>
 <defs>
  <style type="text/css">*{stroke-linejoin: round; stroke-linecap: butt}</style>
 </defs>
 <g id="figure_1">
  <g id="patch_1">
   <path d="M 0 576 
L 864 576 
L 864 0 
L 0 0 
z
" style="fill: #ffffff"/>
  </g>
  <g id="axes_1">
   <g id="patch_2">
    <path d="M 108 512.64 
L 777.6 512.64 
L 777.6 69.12 
L 108 69.12 
z
" style="fill: #ffffff"/>
   </g>
   <g id="patch_3">
    <path d="M 138.436364 512.64 
L 144.523636 512.64 
L 144.523636 90.24 
L 138.436364 90.24 
z
" clip-path="url(#pccc61dfdec)" style="fill: #0000ff; opacity: 0.7; stroke: #000000; stroke-linejoin: miter"/>
   </g>
   <g id="patch_4">
    <path d="M 144.523636 512.64 
L 150.610909 512.64 
L 150.610909 512.64 
L 144.523636 512.64 
z
" clip-path="url(#pccc61dfdec)" style="fill: #0000ff; opacity: 0.7; stroke: #000000; stroke-linejoin: miter"/>
   </g>
   <g id="patch_5">
    <path d="M 150.610909 512.64 
L 156.698182 512.64 
L 156.698182 512.64 
L 150.610909 512.64 
z
" clip-path="url(#pccc61dfdec)" style="fill: #0000ff; opacity: 0.7; stroke: #000000; stroke-linejoin: miter"/>
   </g>
   <g id="patch_6">
    <path d="M 156.698182 512.64 
L 162.785455 512.64 
L 162.785455 512.64 
L 156.698182 512.64 
z
" clip-path="url(#pccc61dfdec)" style="fill: #0000ff; opacity: 0.7; stroke: #000000; stroke-linejoin: miter"/>
   </g>
   <g id="patch_7">
    <path d="M 162.785455 512.64 
L 168.872727 512.64 
L 168.872727 512.64 
L 162.785455 512.64 
z
" clip-path="url(#pccc61dfdec)" style="fill: #0000ff; opacity: 0.7; stroke: #000000; stroke-linejoin: miter"/>
   </g>
   <g id="patch_8">
    <path d="M 168.872727 512.64 
L 174.96 512.64 
L 174.96 512.64 
L 168.872727 512.64 
z
" clip-path="url(#pccc61dfdec)" style="fill: #0000ff; opacity: 0.7; stroke: #000000; stroke-linejoin: miter"/>
   </g>
   <g id="patch_9">
    <path d="M 174.96 512.64 
L 181.047273 512.64 
L 181.047273 431.983046 
L 174.96 431.983046 
z
" clip-path="url(#pccc61dfdec)" style="fill: #0000ff; opacity: 0.7; stroke: #000000; stroke-linejoin: miter"/>
   </g>
   <g id="patch_10">
    <path d="M 181.047273 512.64 
L 187.134545 512.64 
L 187.134545 512.64 
L 181.047273 512.64 
z
" clip-path="url(#pccc61dfdec)" style="fill: #0000ff; opacity: 0.7; stroke: #000000; stroke-linejoin: miter"/>
   </g>
   <g id="patch_11">
    <path d="M 187.134545 512.64 
L 193.221818 512.64 
L 193.221818 512.64 
L 187.134545 512.64 
z
" clip-path="url(#pccc61dfdec)" style="fill: #0000ff; opacity: 0.7; stroke: #000000; stroke-linejoin: miter"/>
   </g>
   <g id="patch_12">
    <path d="M 193.221818 512.64 
L 199.309091 512.64 
L 199.309091 512.64 
L 193.221818 512.64 
z
" clip-path="url(#pccc61dfdec)" style="fill: #0000ff; opacity: 0.7; stroke: #000000; stroke-linejoin: miter"/>
   </g>
   <g id="patch_13">
    <path d="M 199.309091 512.64 
L 205.396364 512.64 
L 205.396364 512.64 
L 199.309091 512.64 
z
" clip-path="url(#pccc61dfdec)" style="fill: #0000ff; opacity: 0.7; stroke: #000000; stroke-linejoin: miter"/>
   </g>
   <g id="patch_14">
    <path d="M 205.396364 512.64 
L 211.483636 512.64 
L 211.483636 512.64 
L 205.396364 512.64 
z
" clip-path="url(#pccc61dfdec)" style="fill: #0000ff; opacity: 0.7; stroke: #000000; stroke-linejoin: miter"/>
   </g>
   <g id="patch_15">
    <path d="M 211.483636 512.64 
L 217.570909 512.64 
L 217.570909 512.64 
L 211.483636 512.64 
z
" clip-path="url(#pccc61dfdec)" style="fill: #0000ff; opacity: 0.7; stroke: #000000; stroke-linejoin: miter"/>
   </g>
   <g id="patch_16">
    <path d="M 217.570909 512.64 
L 223.658182 512.64 
L 223.658182 187.447947 
L 217.570909 187.447947 
z
" clip-path="url(#pccc61dfdec)" style="fill: #0000ff; opacity: 0.7; stroke: #000000; stroke-linejoin: miter"/>
   </g>
   <g id="patch_17">
    <path d="M 223.658182 512.64 
L 229.745455 512.64 
L 229.745455 512.64 
L 223.658182 512.64 
z
" clip-path="url(#pccc61dfdec)" style="fill: #0000ff; opacity: 0.7; stroke: #000000; stroke-linejoin: miter"/>
   </g>
   <g id="patch_18">
    <path d="M 229.745455 512.64 
L 235.832727 512.64 
L 235.832727 512.64 
L 229.745455 512.64 
z
" clip-path="url(#pccc61dfdec)" style="fill: #0000ff; opacity: 0.7; stroke: #000000; stroke-linejoin: miter"/>
   </g>
   <g id="patch_19">
    <path d="M 235.832727 512.64 
L 241.92 512.64 
L 241.92 512.64 
L 235.832727 512.64 
z
" clip-path="url(#pccc61dfdec)" style="fill: #0000ff; opacity: 0.7; stroke: #000000; stroke-linejoin: miter"/>
   </g>
   <g id="patch_20">
    <path d="M 241.92 512.64 
L 248.007273 512.64 
L 248.007273 512.64 
L 241.92 512.64 
z
" clip-path="url(#pccc61dfdec)" style="fill: #0000ff; opacity: 0.7; stroke: #000000; stroke-linejoin: miter"/>
   </g>
   <g id="patch_21">
    <path d="M 248.007273 512.64 
L 254.094545 512.64 
L 254.094545 512.64 
L 248.007273 512.64 
z
" clip-path="url(#pccc61dfdec)" style="fill: #0000ff; opacity: 0.7; stroke: #000000; stroke-linejoin: miter"/>
   </g>
   <g id="patch_22">
    <path d="M 254.094545 512.64 
L 260.181818 512.64 
L 260.181818 512.64 
L 254.094545 512.64 
z
" clip-path="url(#pccc61dfdec)" style="fill: #0000ff; opacity: 0.7; stroke: #000000; stroke-linejoin: miter"/>
   </g>
   <g id="patch_23">
    <path d="M 260.181818 512.64 
L 266.269091 512.64 
L 266.269091 358.785695 
L 260.181818 358.785695 
z
" clip-path="url(#pccc61dfdec)" style="fill: #0000ff; opacity: 0.7; stroke: #000000; stroke-linejoin: miter"/>
   </g>
   <g id="patch_24">
    <path d="M 266.269091 512.64 
L 272.356364 512.64 
L 272.356364 512.64 
L 266.269091 512.64 
z
" clip-path="url(#pccc61dfdec)" style="fill: #0000ff; opacity: 0.7; stroke: #000000; stroke-linejoin: miter"/>
   </g>
   <g id="patch_25">
    <path d="M 272.356364 512.64 
L 278.443636 512.64 
L 278.443636 512.64 
L 272.356364 512.64 
z
" clip-path="url(#pccc61dfdec)" style="fill: #0000ff; opacity: 0.7; stroke: #000000; stroke-linejoin: miter"/>
   </g>
   <g id="patch_26">
    <path d="M 278.443636 512.64 
L 284.530909 512.64 
L 284.530909 512.64 
L 278.443636 512.64 
z
" clip-path="url(#pccc61dfdec)" style="fill: #0000ff; opacity: 0.7; stroke: #000000; stroke-linejoin: miter"/>
   </g>
   <g id="patch_27">
    <path d="M 284.530909 512.64 
L 290.618182 512.64 
L 290.618182 512.64 
L 284.530909 512.64 
z
" clip-path="url(#pccc61dfdec)" style="fill: #0000ff; opacity: 0.7; stroke: #000000; stroke-linejoin: miter"/>
   </g>
   <g id="patch_28">
    <path d="M 290.618182 512.64 
L 296.705455 512.64 
L 296.705455 512.64 
L 290.618182 512.64 
z
" clip-path="url(#pccc61dfdec)" style="fill: #0000ff; opacity: 0.7; stroke: #000000; stroke-linejoin: miter"/>
   </g>
   <g id="patch_29">
    <path d="M 296.705455 512.64 
L 302.792727 512.64 
L 302.792727 450.39894 
L 296.705455 450.39894 
z
" clip-path="url(#pccc61dfdec)" style="fill: #0000ff; opacity: 0.7; stroke: #000000; stroke-linejoin: miter"/>
   </g>
   <g id="patch_30">
    <path d="M 302.792727 512.64 
L 308.88 512.64 
L 308.88 512.64 
L 302.792727 512.64 
z
" clip-path="url(#pccc61dfdec)" style="fill: #0000ff; opacity: 0.7; stroke: #000000; stroke-linejoin: miter"/>
   </g>
   <g id="patch_31">
    <path d="M 308.88 512.64 
L 314.967273 512.64 
L 314.967273 512.64 
L 308.88 512.64 
z
" clip-path="url(#pccc61dfdec)" style="fill: #0000ff; opacity: 0.7; stroke: #000000; stroke-linejoin: miter"/>
   </g>
   <g id="patch_32">
    <path d="M 314.967273 512.64 
L 321.054545 512.64 
L 321.054545 512.64 
L 314.967273 512.64 
z
" clip-path="url(#pccc61dfdec)" style="fill: #0000ff; opacity: 0.7; stroke: #000000; stroke-linejoin: miter"/>
   </g>
   <g id="patch_33">
    <path d="M 321.054545 512.64 
L 327.141818 512.64 
L 327.141818 512.64 
L 321.054545 512.64 
z
" clip-path="url(#pccc61dfdec)" style="fill: #0000ff; opacity: 0.7; stroke: #000000; stroke-linejoin: miter"/>
   </g>
   <g id="patch_34">
    <path d="M 327.141818 512.64 
L 333.229091 512.64 
L 333.229091 512.64 
L 327.141818 512.64 
z
" clip-path="url(#pccc61dfdec)" style="fill: #0000ff; opacity: 0.7; stroke: #000000; stroke-linejoin: miter"/>
   </g>
   <g id="patch_35">
    <path d="M 333.229091 512.64 
L 339.316364 512.64 
L 339.316364 512.64 
L 333.229091 512.64 
z
" clip-path="url(#pccc61dfdec)" style="fill: #0000ff; opacity: 0.7; stroke: #000000; stroke-linejoin: miter"/>
   </g>
   <g id="patch_36">
    <path d="M 339.316364 512.64 
L 345.403636 512.64 
L 345.403636 488.163179 
L 339.316364 488.163179 
z
" clip-path="url(#pccc61dfdec)" style="fill: #0000ff; opacity: 0.7; stroke: #000000; stroke-linejoin: miter"/>
   </g>
   <g id="patch_37">
    <path d="M 345.403636 512.64 
L 351.490909 512.64 
L 351.490909 512.64 
L 345.403636 512.64 
z
" clip-path="url(#pccc61dfdec)" style="fill: #0000ff; opacity: 0.7; stroke: #000000; stroke-linejoin: miter"/>
   </g>
   <g id="patch_38">
    <path d="M 351.490909 512.64 
L 357.578182 512.64 
L 357.578182 512.64 
L 351.490909 512.64 
z
" clip-path="url(#pccc61dfdec)" style="fill: #0000ff; opacity: 0.7; stroke: #000000; stroke-linejoin: miter"/>
   </g>
   <g id="patch_39">
    <path d="M 357.578182 512.64 
L 363.665455 512.64 
L 363.665455 512.64 
L 357.578182 512.64 
z
" clip-path="url(#pccc61dfdec)" style="fill: #0000ff; opacity: 0.7; stroke: #000000; stroke-linejoin: miter"/>
   </g>
   <g id="patch_40">
    <path d="M 363.665455 512.64 
L 369.752727 512.64 
L 369.752727 512.64 
L 363.665455 512.64 
z
" clip-path="url(#pccc61dfdec)" style="fill: #0000ff; opacity: 0.7; stroke: #000000; stroke-linejoin: miter"/>
   </g>
   <g id="patch_41">
    <path d="M 369.752727 512.64 
L 375.84 512.64 
L 375.84 512.64 
L 369.752727 512.64 
z
" clip-path="url(#pccc61dfdec)" style="fill: #0000ff; opacity: 0.7; stroke: #000000; stroke-linejoin: miter"/>
   </g>
   <g id="patch_42">
    <path d="M 375.84 512.64 
L 381.927273 512.64 
L 381.927273 512.64 
L 375.84 512.64 
z
" clip-path="url(#pccc61dfdec)" style="fill: #0000ff; opacity: 0.7; stroke: #000000; stroke-linejoin: miter"/>
   </g>
   <g id="patch_43">
    <path d="M 381.927273 512.64 
L 388.014545 512.64 
L 388.014545 501.450596 
L 381.927273 501.450596 
z
" clip-path="url(#pccc61dfdec)" style="fill: #0000ff; opacity: 0.7; stroke: #000000; stroke-linejoin: miter"/>
   </g>
   <g id="patch_44">
    <path d="M 388.014545 512.64 
L 394.101818 512.64 
L 394.101818 512.64 
L 388.014545 512.64 
z
" clip-path="url(#pccc61dfdec)" style="fill: #0000ff; opacity: 0.7; stroke: #000000; stroke-linejoin: miter"/>
   </g>
   <g id="patch_45">
    <path d="M 394.101818 512.64 
L 400.189091 512.64 
L 400.189091 512.64 
L 394.101818 512.64 
z
" clip-path="url(#pccc61dfdec)" style="fill: #0000ff; opacity: 0.7; stroke: #000000; stroke-linejoin: miter"/>
   </g>
   <g id="patch_46">
    <path d="M 400.189091 512.64 
L 406.276364 512.64 
L 406.276364 512.64 
L 400.189091 512.64 
z
" clip-path="url(#pccc61dfdec)" style="fill: #0000ff; opacity: 0.7; stroke: #000000; stroke-linejoin: miter"/>
   </g>
   <g id="patch_47">
    <path d="M 406.276364 512.64 
L 412.363636 512.64 
L 412.363636 512.64 
L 406.276364 512.64 
z
" clip-path="url(#pccc61dfdec)" style="fill: #0000ff; opacity: 0.7; stroke: #000000; stroke-linejoin: miter"/>
   </g>
   <g id="patch_48">
    <path d="M 412.363636 512.64 
L 418.450909 512.64 
L 418.450909 512.64 
L 412.363636 512.64 
z
" clip-path="url(#pccc61dfdec)" style="fill: #0000ff; opacity: 0.7; stroke: #000000; stroke-linejoin: miter"/>
   </g>
   <g id="patch_49">
    <path d="M 418.450909 512.64 
L 424.538182 512.64 
L 424.538182 507.511523 
L 418.450909 507.511523 
z
" clip-path="url(#pccc61dfdec)" style="fill: #0000ff; opacity: 0.7; stroke: #000000; stroke-linejoin: miter"/>
   </g>
   <g id="patch_50">
    <path d="M 424.538182 512.64 
L 430.625455 512.64 
L 430.625455 512.64 
L 424.538182 512.64 
z
" clip-path="url(#pccc61dfdec)" style="fill: #0000ff; opacity: 0.7; stroke: #000000; stroke-linejoin: miter"/>
   </g>
   <g id="patch_51">
    <path d="M 430.625455 512.64 
L 436.712727 512.64 
L 436.712727 512.64 
L 430.625455 512.64 
z
" clip-path="url(#pccc61dfdec)" style="fill: #0000ff; opacity: 0.7; stroke: #000000; stroke-linejoin: miter"/>
   </g>
   <g id="patch_52">
    <path d="M 436.712727 512.64 
L 442.8 512.64 
L 442.8 512.64 
L 436.712727 512.64 
z
" clip-path="url(#pccc61dfdec)" style="fill: #0000ff; opacity: 0.7; stroke: #000000; stroke-linejoin: miter"/>
   </g>
   <g id="patch_53">
    <path d="M 442.8 512.64 
L 448.887273 512.64 
L 448.887273 512.64 
L 442.8 512.64 
z
" clip-path="url(#pccc61dfdec)" style="fill: #0000ff; opacity: 0.7; stroke: #000000; stroke-linejoin: miter"/>
   </g>
   <g id="patch_54">
    <path d="M 448.887273 512.64 
L 454.974545 512.64 
L 454.974545 512.64 
L 448.887273 512.64 
z
" clip-path="url(#pccc61dfdec)" style="fill: #0000ff; opacity: 0.7; stroke: #000000; stroke-linejoin: miter"/>
   </g>
   <g id="patch_55">
    <path d="M 454.974545 512.64 
L 461.061818 512.64 
L 461.061818 512.64 
L 454.974545 512.64 
z
" clip-path="url(#pccc61dfdec)" style="fill: #0000ff; opacity: 0.7; stroke: #000000; stroke-linejoin: miter"/>
   </g>
   <g id="patch_56">
    <path d="M 461.061818 512.64 
L 467.149091 512.64 
L 467.149091 511.474437 
L 461.061818 511.474437 
z
" clip-path="url(#pccc61dfdec)" style="fill: #0000ff; opacity: 0.7; stroke: #000000; stroke-linejoin: miter"/>
   </g>
   <g id="patch_57">
    <path d="M 467.149091 512.64 
L 473.236364 512.64 
L 473.236364 512.64 
L 467.149091 512.64 
z
" clip-path="url(#pccc61dfdec)" style="fill: #0000ff; opacity: 0.7; stroke: #000000; stroke-linejoin: miter"/>
   </g>
   <g id="patch_58">
    <path d="M 473.236364 512.64 
L 479.323636 512.64 
L 479.323636 512.64 
L 473.236364 512.64 
z
" clip-path="url(#pccc61dfdec)" style="fill: #0000ff; opacity: 0.7; stroke: #000000; stroke-linejoin: miter"/>
   </g>
   <g id="patch_59">
    <path d="M 479.323636 512.64 
L 485.410909 512.64 
L 485.410909 512.64 
L 479.323636 512.64 
z
" clip-path="url(#pccc61dfdec)" style="fill: #0000ff; opacity: 0.7; stroke: #000000; stroke-linejoin: miter"/>
   </g>
   <g id="patch_60">
    <path d="M 485.410909 512.64 
L 491.498182 512.64 
L 491.498182 512.64 
L 485.410909 512.64 
z
" clip-path="url(#pccc61dfdec)" style="fill: #0000ff; opacity: 0.7; stroke: #000000; stroke-linejoin: miter"/>
   </g>
   <g id="patch_61">
    <path d="M 491.498182 512.64 
L 497.585455 512.64 
L 497.585455 512.64 
L 491.498182 512.64 
z
" clip-path="url(#pccc61dfdec)" style="fill: #0000ff; opacity: 0.7; stroke: #000000; stroke-linejoin: miter"/>
   </g>
   <g id="patch_62">
    <path d="M 497.585455 512.64 
L 503.672727 512.64 
L 503.672727 512.64 
L 497.585455 512.64 
z
" clip-path="url(#pccc61dfdec)" style="fill: #0000ff; opacity: 0.7; stroke: #000000; stroke-linejoin: miter"/>
   </g>
   <g id="patch_63">
    <path d="M 503.672727 512.64 
L 509.76 512.64 
L 509.76 510.775099 
L 503.672727 510.775099 
z
" clip-path="url(#pccc61dfdec)" style="fill: #0000ff; opacity: 0.7; stroke: #000000; stroke-linejoin: miter"/>
   </g>
   <g id="patch_64">
    <path d="M 509.76 512.64 
L 515.847273 512.64 
L 515.847273 512.64 
L 509.76 512.64 
z
" clip-path="url(#pccc61dfdec)" style="fill: #0000ff; opacity: 0.7; stroke: #000000; stroke-linejoin: miter"/>
   </g>
   <g id="patch_65">
    <path d="M 515.847273 512.64 
L 521.934545 512.64 
L 521.934545 512.64 
L 515.847273 512.64 
z
" clip-path="url(#pccc61dfdec)" style="fill: #0000ff; opacity: 0.7; stroke: #000000; stroke-linejoin: miter"/>
   </g>
   <g id="patch_66">
    <path d="M 521.934545 512.64 
L 528.021818 512.64 
L 528.021818 512.64 
L 521.934545 512.64 
z
" clip-path="url(#pccc61dfdec)" style="fill: #0000ff; opacity: 0.7; stroke: #000000; stroke-linejoin: miter"/>
   </g>
   <g id="patch_67">
    <path d="M 528.021818 512.64 
L 534.109091 512.64 
L 534.109091 512.64 
L 528.021818 512.64 
z
" clip-path="url(#pccc61dfdec)" style="fill: #0000ff; opacity: 0.7; stroke: #000000; stroke-linejoin: miter"/>
   </g>
   <g id="patch_68">
    <path d="M 534.109091 512.64 
L 540.196364 512.64 
L 540.196364 512.64 
L 534.109091 512.64 
z
" clip-path="url(#pccc61dfdec)" style="fill: #0000ff; opacity: 0.7; stroke: #000000; stroke-linejoin: miter"/>
   </g>
   <g id="patch_69">
    <path d="M 540.196364 512.64 
L 546.283636 512.64 
L 546.283636 512.406887 
L 540.196364 512.406887 
z
" clip-path="url(#pccc61dfdec)" style="fill: #0000ff; opacity: 0.7; stroke: #000000; stroke-linejoin: miter"/>
   </g>
   <g id="patch_70">
    <path d="M 546.283636 512.64 
L 552.370909 512.64 
L 552.370909 512.64 
L 546.283636 512.64 
z
" clip-path="url(#pccc61dfdec)" style="fill: #0000ff; opacity: 0.7; stroke: #000000; stroke-linejoin: miter"/>
   </g>
   <g id="patch_71">
    <path d="M 552.370909 512.64 
L 558.458182 512.64 
L 558.458182 512.64 
L 552.370909 512.64 
z
" clip-path="url(#pccc61dfdec)" style="fill: #0000ff; opacity: 0.7; stroke: #000000; stroke-linejoin: miter"/>
   </g>
   <g id="patch_72">
    <path d="M 558.458182 512.64 
L 564.545455 512.64 
L 564.545455 512.64 
L 558.458182 512.64 
z
" clip-path="url(#pccc61dfdec)" style="fill: #0000ff; opacity: 0.7; stroke: #000000; stroke-linejoin: miter"/>
   </g>
   <g id="patch_73">
    <path d="M 564.545455 512.64 
L 570.632727 512.64 
L 570.632727 512.64 
L 564.545455 512.64 
z
" clip-path="url(#pccc61dfdec)" style="fill: #0000ff; opacity: 0.7; stroke: #000000; stroke-linejoin: miter"/>
   </g>
   <g id="patch_74">
    <path d="M 570.632727 512.64 
L 576.72 512.64 
L 576.72 512.64 
L 570.632727 512.64 
z
" clip-path="url(#pccc61dfdec)" style="fill: #0000ff; opacity: 0.7; stroke: #000000; stroke-linejoin: miter"/>
   </g>
   <g id="patch_75">
    <path d="M 576.72 512.64 
L 582.807273 512.64 
L 582.807273 512.64 
L 576.72 512.64 
z
" clip-path="url(#pccc61dfdec)" style="fill: #0000ff; opacity: 0.7; stroke: #000000; stroke-linejoin: miter"/>
   </g>
   <g id="patch_76">
    <path d="M 582.807273 512.64 
L 588.894545 512.64 
L 588.894545 512.173775 
L 582.807273 512.173775 
z
" clip-path="url(#pccc61dfdec)" style="fill: #0000ff; opacity: 0.7; stroke: #000000; stroke-linejoin: miter"/>
   </g>
   <g id="patch_77">
    <path d="M 588.894545 512.64 
L 594.981818 512.64 
L 594.981818 512.64 
L 588.894545 512.64 
z
" clip-path="url(#pccc61dfdec)" style="fill: #0000ff; opacity: 0.7; stroke: #000000; stroke-linejoin: miter"/>
   </g>
   <g id="patch_78">
    <path d="M 594.981818 512.64 
L 601.069091 512.64 
L 601.069091 512.64 
L 594.981818 512.64 
z
" clip-path="url(#pccc61dfdec)" style="fill: #0000ff; opacity: 0.7; stroke: #000000; stroke-linejoin: miter"/>
   </g>
   <g id="patch_79">
    <path d="M 601.069091 512.64 
L 607.156364 512.64 
L 607.156364 512.64 
L 601.069091 512.64 
z
" clip-path="url(#pccc61dfdec)" style="fill: #0000ff; opacity: 0.7; stroke: #000000; stroke-linejoin: miter"/>
   </g>
   <g id="patch_80">
    <path d="M 607.156364 512.64 
L 613.243636 512.64 
L 613.243636 512.64 
L 607.156364 512.64 
z
" clip-path="url(#pccc61dfdec)" style="fill: #0000ff; opacity: 0.7; stroke: #000000; stroke-linejoin: miter"/>
   </g>
   <g id="patch_81">
    <path d="M 613.243636 512.64 
L 619.330909 512.64 
L 619.330909 512.64 
L 613.243636 512.64 
z
" clip-path="url(#pccc61dfdec)" style="fill: #0000ff; opacity: 0.7; stroke: #000000; stroke-linejoin: miter"/>
   </g>
   <g id="patch_82">
    <path d="M 619.330909 512.64 
L 625.418182 512.64 
L 625.418182 512.64 
L 619.330909 512.64 
z
" clip-path="url(#pccc61dfdec)" style="fill: #0000ff; opacity: 0.7; stroke: #000000; stroke-linejoin: miter"/>
   </g>
   <g id="patch_83">
    <path d="M 625.418182 512.64 
L 631.505455 512.64 
L 631.505455 512.64 
L 625.418182 512.64 
z
" clip-path="url(#pccc61dfdec)" style="fill: #0000ff; opacity: 0.7; stroke: #000000; stroke-linejoin: miter"/>
   </g>
   <g id="patch_84">
    <path d="M 631.505455 512.64 
L 637.592727 512.64 
L 637.592727 512.64 
L 631.505455 512.64 
z
" clip-path="url(#pccc61dfdec)" style="fill: #0000ff; opacity: 0.7; stroke: #000000; stroke-linejoin: miter"/>
   </g>
   <g id="patch_85">
    <path d="M 637.592727 512.64 
L 643.68 512.64 
L 643.68 512.64 
L 637.592727 512.64 
z
" clip-path="url(#pccc61dfdec)" style="fill: #0000ff; opacity: 0.7; stroke: #000000; stroke-linejoin: miter"/>
   </g>
   <g id="patch_86">
    <path d="M 643.68 512.64 
L 649.767273 512.64 
L 649.767273 512.64 
L 643.68 512.64 
z
" clip-path="url(#pccc61dfdec)" style="fill: #0000ff; opacity: 0.7; stroke: #000000; stroke-linejoin: miter"/>
   </g>
   <g id="patch_87">
    <path d="M 649.767273 512.64 
L 655.854545 512.64 
L 655.854545 512.64 
L 649.767273 512.64 
z
" clip-path="url(#pccc61dfdec)" style="fill: #0000ff; opacity: 0.7; stroke: #000000; stroke-linejoin: miter"/>
   </g>
   <g id="patch_88">
    <path d="M 655.854545 512.64 
L 661.941818 512.64 
L 661.941818 512.64 
L 655.854545 512.64 
z
" clip-path="url(#pccc61dfdec)" style="fill: #0000ff; opacity: 0.7; stroke: #000000; stroke-linejoin: miter"/>
   </g>
   <g id="patch_89">
    <path d="M 661.941818 512.64 
L 668.029091 512.64 
L 668.029091 511.940662 
L 661.941818 511.940662 
z
" clip-path="url(#pccc61dfdec)" style="fill: #0000ff; opacity: 0.7; stroke: #000000; stroke-linejoin: miter"/>
   </g>
   <g id="patch_90">
    <path d="M 668.029091 512.64 
L 674.116364 512.64 
L 674.116364 512.64 
L 668.029091 512.64 
z
" clip-path="url(#pccc61dfdec)" style="fill: #0000ff; opacity: 0.7; stroke: #000000; stroke-linejoin: miter"/>
   </g>
   <g id="patch_91">
    <path d="M 674.116364 512.64 
L 680.203636 512.64 
L 680.203636 512.64 
L 674.116364 512.64 
z
" clip-path="url(#pccc61dfdec)" style="fill: #0000ff; opacity: 0.7; stroke: #000000; stroke-linejoin: miter"/>
   </g>
   <g id="patch_92">
    <path d="M 680.203636 512.64 
L 686.290909 512.64 
L 686.290909 512.64 
L 680.203636 512.64 
z
" clip-path="url(#pccc61dfdec)" style="fill: #0000ff; opacity: 0.7; stroke: #000000; stroke-linejoin: miter"/>
   </g>
   <g id="patch_93">
    <path d="M 686.290909 512.64 
L 692.378182 512.64 
L 692.378182 512.64 
L 686.290909 512.64 
z
" clip-path="url(#pccc61dfdec)" style="fill: #0000ff; opacity: 0.7; stroke: #000000; stroke-linejoin: miter"/>
   </g>
   <g id="patch_94">
    <path d="M 692.378182 512.64 
L 698.465455 512.64 
L 698.465455 512.64 
L 692.378182 512.64 
z
" clip-path="url(#pccc61dfdec)" style="fill: #0000ff; opacity: 0.7; stroke: #000000; stroke-linejoin: miter"/>
   </g>
   <g id="patch_95">
    <path d="M 698.465455 512.64 
L 704.552727 512.64 
L 704.552727 512.64 
L 698.465455 512.64 
z
" clip-path="url(#pccc61dfdec)" style="fill: #0000ff; opacity: 0.7; stroke: #000000; stroke-linejoin: miter"/>
   </g>
   <g id="patch_96">
    <path d="M 704.552727 512.64 
L 710.64 512.64 
L 710.64 512.64 
L 704.552727 512.64 
z
" clip-path="url(#pccc61dfdec)" style="fill: #0000ff; opacity: 0.7; stroke: #000000; stroke-linejoin: miter"/>
   </g>
   <g id="patch_97">
    <path d="M 710.64 512.64 
L 716.727273 512.64 
L 716.727273 512.64 
L 710.64 512.64 
z
" clip-path="url(#pccc61dfdec)" style="fill: #0000ff; opacity: 0.7; stroke: #000000; stroke-linejoin: miter"/>
   </g>
   <g id="patch_98">
    <path d="M 716.727273 512.64 
L 722.814545 512.64 
L 722.814545 512.64 
L 716.727273 512.64 
z
" clip-path="url(#pccc61dfdec)" style="fill: #0000ff; opacity: 0.7; stroke: #000000; stroke-linejoin: miter"/>
   </g>
   <g id="patch_99">
    <path d="M 722.814545 512.64 
L 728.901818 512.64 
L 728.901818 512.64 
L 722.814545 512.64 
z
" clip-path="url(#pccc61dfdec)" style="fill: #0000ff; opacity: 0.7; stroke: #000000; stroke-linejoin: miter"/>
   </g>
   <g id="patch_100">
    <path d="M 728.901818 512.64 
L 734.989091 512.64 
L 734.989091 512.64 
L 728.901818 512.64 
z
" clip-path="url(#pccc61dfdec)" style="fill: #0000ff; opacity: 0.7; stroke: #000000; stroke-linejoin: miter"/>
   </g>
   <g id="patch_101">
    <path d="M 734.989091 512.64 
L 741.076364 512.64 
L 741.076364 512.64 
L 734.989091 512.64 
z
" clip-path="url(#pccc61dfdec)" style="fill: #0000ff; opacity: 0.7; stroke: #000000; stroke-linejoin: miter"/>
   </g>
   <g id="patch_102">
    <path d="M 741.076364 512.64 
L 747.163636 512.64 
L 747.163636 512.406887 
L 741.076364 512.406887 
z
" clip-path="url(#pccc61dfdec)" style="fill: #0000ff; opacity: 0.7; stroke: #000000; stroke-linejoin: miter"/>
   </g>
   <g id="matplotlib.axis_1">
    <g id="xtick_1">
     <g id="line2d_1">
      <defs>
       <path id="m66aa7442b9" d="M 0 0 
L 0 3.5 
" style="stroke: #000000; stroke-width: 0.8"/>
      </defs>
      <g>
       <use xlink:href="#m66aa7442b9" x="179.018182" y="512.64" style="stroke: #000000; stroke-width: 0.8"/>
      </g>
     </g>
     <g id="text_1">
      <!-- 2 -->
      <g transform="translate(174.246307 531.037656) scale(0.15 -0.15)">
       <defs>
        <path id="DejaVuSans-32" d="M 1228 531 
L 3431 531 
L 3431 0 
L 469 0 
L 469 531 
Q 828 903 1448 1529 
Q 2069 2156 2228 2338 
Q 2531 2678 2651 2914 
Q 2772 3150 2772 3378 
Q 2772 3750 2511 3984 
Q 2250 4219 1831 4219 
Q 1534 4219 1204 4116 
Q 875 4013 500 3803 
L 500 4441 
Q 881 4594 1212 4672 
Q 1544 4750 1819 4750 
Q 2544 4750 2975 4387 
Q 3406 4025 3406 3419 
Q 3406 3131 3298 2873 
Q 3191 2616 2906 2266 
Q 2828 2175 2409 1742 
Q 1991 1309 1228 531 
z
" transform="scale(0.015625)"/>
       </defs>
       <use xlink:href="#DejaVuSans-32"/>
      </g>
     </g>
    </g>
    <g id="xtick_2">
     <g id="line2d_2">
      <g>
       <use xlink:href="#m66aa7442b9" x="260.181818" y="512.64" style="stroke: #000000; stroke-width: 0.8"/>
      </g>
     </g>
     <g id="text_2">
      <!-- 4 -->
      <g transform="translate(255.409943 531.037656) scale(0.15 -0.15)">
       <defs>
        <path id="DejaVuSans-34" d="M 2419 4116 
L 825 1625 
L 2419 1625 
L 2419 4116 
z
M 2253 4666 
L 3047 4666 
L 3047 1625 
L 3713 1625 
L 3713 1100 
L 3047 1100 
L 3047 0 
L 2419 0 
L 2419 1100 
L 313 1100 
L 313 1709 
L 2253 4666 
z
" transform="scale(0.015625)"/>
       </defs>
       <use xlink:href="#DejaVuSans-34"/>
      </g>
     </g>
    </g>
    <g id="xtick_3">
     <g id="line2d_3">
      <g>
       <use xlink:href="#m66aa7442b9" x="341.345455" y="512.64" style="stroke: #000000; stroke-width: 0.8"/>
      </g>
     </g>
     <g id="text_3">
      <!-- 6 -->
      <g transform="translate(336.57358 531.037656) scale(0.15 -0.15)">
       <defs>
        <path id="DejaVuSans-36" d="M 2113 2584 
Q 1688 2584 1439 2293 
Q 1191 2003 1191 1497 
Q 1191 994 1439 701 
Q 1688 409 2113 409 
Q 2538 409 2786 701 
Q 3034 994 3034 1497 
Q 3034 2003 2786 2293 
Q 2538 2584 2113 2584 
z
M 3366 4563 
L 3366 3988 
Q 3128 4100 2886 4159 
Q 2644 4219 2406 4219 
Q 1781 4219 1451 3797 
Q 1122 3375 1075 2522 
Q 1259 2794 1537 2939 
Q 1816 3084 2150 3084 
Q 2853 3084 3261 2657 
Q 3669 2231 3669 1497 
Q 3669 778 3244 343 
Q 2819 -91 2113 -91 
Q 1303 -91 875 529 
Q 447 1150 447 2328 
Q 447 3434 972 4092 
Q 1497 4750 2381 4750 
Q 2619 4750 2861 4703 
Q 3103 4656 3366 4563 
z
" transform="scale(0.015625)"/>
       </defs>
       <use xlink:href="#DejaVuSans-36"/>
      </g>
     </g>
    </g>
    <g id="xtick_4">
     <g id="line2d_4">
      <g>
       <use xlink:href="#m66aa7442b9" x="422.509091" y="512.64" style="stroke: #000000; stroke-width: 0.8"/>
      </g>
     </g>
     <g id="text_4">
      <!-- 8 -->
      <g transform="translate(417.737216 531.037656) scale(0.15 -0.15)">
       <defs>
        <path id="DejaVuSans-38" d="M 2034 2216 
Q 1584 2216 1326 1975 
Q 1069 1734 1069 1313 
Q 1069 891 1326 650 
Q 1584 409 2034 409 
Q 2484 409 2743 651 
Q 3003 894 3003 1313 
Q 3003 1734 2745 1975 
Q 2488 2216 2034 2216 
z
M 1403 2484 
Q 997 2584 770 2862 
Q 544 3141 544 3541 
Q 544 4100 942 4425 
Q 1341 4750 2034 4750 
Q 2731 4750 3128 4425 
Q 3525 4100 3525 3541 
Q 3525 3141 3298 2862 
Q 3072 2584 2669 2484 
Q 3125 2378 3379 2068 
Q 3634 1759 3634 1313 
Q 3634 634 3220 271 
Q 2806 -91 2034 -91 
Q 1263 -91 848 271 
Q 434 634 434 1313 
Q 434 1759 690 2068 
Q 947 2378 1403 2484 
z
M 1172 3481 
Q 1172 3119 1398 2916 
Q 1625 2713 2034 2713 
Q 2441 2713 2670 2916 
Q 2900 3119 2900 3481 
Q 2900 3844 2670 4047 
Q 2441 4250 2034 4250 
Q 1625 4250 1398 4047 
Q 1172 3844 1172 3481 
z
" transform="scale(0.015625)"/>
       </defs>
       <use xlink:href="#DejaVuSans-38"/>
      </g>
     </g>
    </g>
    <g id="xtick_5">
     <g id="line2d_5">
      <g>
       <use xlink:href="#m66aa7442b9" x="503.672727" y="512.64" style="stroke: #000000; stroke-width: 0.8"/>
      </g>
     </g>
     <g id="text_5">
      <!-- 10 -->
      <g transform="translate(494.128977 531.037656) scale(0.15 -0.15)">
       <defs>
        <path id="DejaVuSans-31" d="M 794 531 
L 1825 531 
L 1825 4091 
L 703 3866 
L 703 4441 
L 1819 4666 
L 2450 4666 
L 2450 531 
L 3481 531 
L 3481 0 
L 794 0 
L 794 531 
z
" transform="scale(0.015625)"/>
        <path id="DejaVuSans-30" d="M 2034 4250 
Q 1547 4250 1301 3770 
Q 1056 3291 1056 2328 
Q 1056 1369 1301 889 
Q 1547 409 2034 409 
Q 2525 409 2770 889 
Q 3016 1369 3016 2328 
Q 3016 3291 2770 3770 
Q 2525 4250 2034 4250 
z
M 2034 4750 
Q 2819 4750 3233 4129 
Q 3647 3509 3647 2328 
Q 3647 1150 3233 529 
Q 2819 -91 2034 -91 
Q 1250 -91 836 529 
Q 422 1150 422 2328 
Q 422 3509 836 4129 
Q 1250 4750 2034 4750 
z
" transform="scale(0.015625)"/>
       </defs>
       <use xlink:href="#DejaVuSans-31"/>
       <use xlink:href="#DejaVuSans-30" x="63.623047"/>
      </g>
     </g>
    </g>
    <g id="xtick_6">
     <g id="line2d_6">
      <g>
       <use xlink:href="#m66aa7442b9" x="584.836364" y="512.64" style="stroke: #000000; stroke-width: 0.8"/>
      </g>
     </g>
     <g id="text_6">
      <!-- 12 -->
      <g transform="translate(575.292614 531.037656) scale(0.15 -0.15)">
       <use xlink:href="#DejaVuSans-31"/>
       <use xlink:href="#DejaVuSans-32" x="63.623047"/>
      </g>
     </g>
    </g>
    <g id="xtick_7">
     <g id="line2d_7">
      <g>
       <use xlink:href="#m66aa7442b9" x="666" y="512.64" style="stroke: #000000; stroke-width: 0.8"/>
      </g>
     </g>
     <g id="text_7">
      <!-- 14 -->
      <g transform="translate(656.45625 531.037656) scale(0.15 -0.15)">
       <use xlink:href="#DejaVuSans-31"/>
       <use xlink:href="#DejaVuSans-34" x="63.623047"/>
      </g>
     </g>
    </g>
    <g id="xtick_8">
     <g id="line2d_8">
      <g>
       <use xlink:href="#m66aa7442b9" x="747.163636" y="512.64" style="stroke: #000000; stroke-width: 0.8"/>
      </g>
     </g>
     <g id="text_8">
      <!-- 16 -->
      <g transform="translate(737.619886 531.037656) scale(0.15 -0.15)">
       <use xlink:href="#DejaVuSans-31"/>
       <use xlink:href="#DejaVuSans-36" x="63.623047"/>
      </g>
     </g>
    </g>
    <g id="text_9">
     <!-- Degree -->
     <g transform="translate(388.209375 560.9525) scale(0.3 -0.3)">
      <defs>
       <path id="DejaVuSans-44" d="M 1259 4147 
L 1259 519 
L 2022 519 
Q 2988 519 3436 956 
Q 3884 1394 3884 2338 
Q 3884 3275 3436 3711 
Q 2988 4147 2022 4147 
L 1259 4147 
z
M 628 4666 
L 1925 4666 
Q 3281 4666 3915 4102 
Q 4550 3538 4550 2338 
Q 4550 1131 3912 565 
Q 3275 0 1925 0 
L 628 0 
L 628 4666 
z
" transform="scale(0.015625)"/>
       <path id="DejaVuSans-65" d="M 3597 1894 
L 3597 1613 
L 953 1613 
Q 991 1019 1311 708 
Q 1631 397 2203 397 
Q 2534 397 2845 478 
Q 3156 559 3463 722 
L 3463 178 
Q 3153 47 2828 -22 
Q 2503 -91 2169 -91 
Q 1331 -91 842 396 
Q 353 884 353 1716 
Q 353 2575 817 3079 
Q 1281 3584 2069 3584 
Q 2775 3584 3186 3129 
Q 3597 2675 3597 1894 
z
M 3022 2063 
Q 3016 2534 2758 2815 
Q 2500 3097 2075 3097 
Q 1594 3097 1305 2825 
Q 1016 2553 972 2059 
L 3022 2063 
z
" transform="scale(0.015625)"/>
       <path id="DejaVuSans-67" d="M 2906 1791 
Q 2906 2416 2648 2759 
Q 2391 3103 1925 3103 
Q 1463 3103 1205 2759 
Q 947 2416 947 1791 
Q 947 1169 1205 825 
Q 1463 481 1925 481 
Q 2391 481 2648 825 
Q 2906 1169 2906 1791 
z
M 3481 434 
Q 3481 -459 3084 -895 
Q 2688 -1331 1869 -1331 
Q 1566 -1331 1297 -1286 
Q 1028 -1241 775 -1147 
L 775 -588 
Q 1028 -725 1275 -790 
Q 1522 -856 1778 -856 
Q 2344 -856 2625 -561 
Q 2906 -266 2906 331 
L 2906 616 
Q 2728 306 2450 153 
Q 2172 0 1784 0 
Q 1141 0 747 490 
Q 353 981 353 1791 
Q 353 2603 747 3093 
Q 1141 3584 1784 3584 
Q 2172 3584 2450 3431 
Q 2728 3278 2906 2969 
L 2906 3500 
L 3481 3500 
L 3481 434 
z
" transform="scale(0.015625)"/>
       <path id="DejaVuSans-72" d="M 2631 2963 
Q 2534 3019 2420 3045 
Q 2306 3072 2169 3072 
Q 1681 3072 1420 2755 
Q 1159 2438 1159 1844 
L 1159 0 
L 581 0 
L 581 3500 
L 1159 3500 
L 1159 2956 
Q 1341 3275 1631 3429 
Q 1922 3584 2338 3584 
Q 2397 3584 2469 3576 
Q 2541 3569 2628 3553 
L 2631 2963 
z
" transform="scale(0.015625)"/>
      </defs>
      <use xlink:href="#DejaVuSans-44"/>
      <use xlink:href="#DejaVuSans-65" x="77.001953"/>
      <use xlink:href="#DejaVuSans-67" x="138.525391"/>
      <use xlink:href="#DejaVuSans-72" x="202.001953"/>
      <use xlink:href="#DejaVuSans-65" x="240.865234"/>
      <use xlink:href="#DejaVuSans-65" x="302.388672"/>
     </g>
    </g>
   </g>
   <g id="matplotlib.axis_2">
    <g id="ytick_1">
     <g id="line2d_9">
      <defs>
       <path id="m9169fe9fd0" d="M 0 0 
L -3.5 0 
" style="stroke: #000000; stroke-width: 0.8"/>
      </defs>
      <g>
       <use xlink:href="#m9169fe9fd0" x="108" y="512.64" style="stroke: #000000; stroke-width: 0.8"/>
      </g>
     </g>
     <g id="text_10">
      <!-- 0 -->
      <g transform="translate(91.45625 518.338828) scale(0.15 -0.15)">
       <use xlink:href="#DejaVuSans-30"/>
      </g>
     </g>
    </g>
    <g id="ytick_2">
     <g id="line2d_10">
      <g>
       <use xlink:href="#m9169fe9fd0" x="108" y="454.361854" style="stroke: #000000; stroke-width: 0.8"/>
      </g>
     </g>
     <g id="text_11">
      <!-- 250 -->
      <g transform="translate(72.36875 460.060682) scale(0.15 -0.15)">
       <defs>
        <path id="DejaVuSans-35" d="M 691 4666 
L 3169 4666 
L 3169 4134 
L 1269 4134 
L 1269 2991 
Q 1406 3038 1543 3061 
Q 1681 3084 1819 3084 
Q 2600 3084 3056 2656 
Q 3513 2228 3513 1497 
Q 3513 744 3044 326 
Q 2575 -91 1722 -91 
Q 1428 -91 1123 -41 
Q 819 9 494 109 
L 494 744 
Q 775 591 1075 516 
Q 1375 441 1709 441 
Q 2250 441 2565 725 
Q 2881 1009 2881 1497 
Q 2881 1984 2565 2268 
Q 2250 2553 1709 2553 
Q 1456 2553 1204 2497 
Q 953 2441 691 2322 
L 691 4666 
z
" transform="scale(0.015625)"/>
       </defs>
       <use xlink:href="#DejaVuSans-32"/>
       <use xlink:href="#DejaVuSans-35" x="63.623047"/>
       <use xlink:href="#DejaVuSans-30" x="127.246094"/>
      </g>
     </g>
    </g>
    <g id="ytick_3">
     <g id="line2d_11">
      <g>
       <use xlink:href="#m9169fe9fd0" x="108" y="396.083709" style="stroke: #000000; stroke-width: 0.8"/>
      </g>
     </g>
     <g id="text_12">
      <!-- 500 -->
      <g transform="translate(72.36875 401.782537) scale(0.15 -0.15)">
       <use xlink:href="#DejaVuSans-35"/>
       <use xlink:href="#DejaVuSans-30" x="63.623047"/>
       <use xlink:href="#DejaVuSans-30" x="127.246094"/>
      </g>
     </g>
    </g>
    <g id="ytick_4">
     <g id="line2d_12">
      <g>
       <use xlink:href="#m9169fe9fd0" x="108" y="337.805563" style="stroke: #000000; stroke-width: 0.8"/>
      </g>
     </g>
     <g id="text_13">
      <!-- 750 -->
      <g transform="translate(72.36875 343.504391) scale(0.15 -0.15)">
       <defs>
        <path id="DejaVuSans-37" d="M 525 4666 
L 3525 4666 
L 3525 4397 
L 1831 0 
L 1172 0 
L 2766 4134 
L 525 4134 
L 525 4666 
z
" transform="scale(0.015625)"/>
       </defs>
       <use xlink:href="#DejaVuSans-37"/>
       <use xlink:href="#DejaVuSans-35" x="63.623047"/>
       <use xlink:href="#DejaVuSans-30" x="127.246094"/>
      </g>
     </g>
    </g>
    <g id="ytick_5">
     <g id="line2d_13">
      <g>
       <use xlink:href="#m9169fe9fd0" x="108" y="279.527417" style="stroke: #000000; stroke-width: 0.8"/>
      </g>
     </g>
     <g id="text_14">
      <!-- 1000 -->
      <g transform="translate(62.825 285.226245) scale(0.15 -0.15)">
       <use xlink:href="#DejaVuSans-31"/>
       <use xlink:href="#DejaVuSans-30" x="63.623047"/>
       <use xlink:href="#DejaVuSans-30" x="127.246094"/>
       <use xlink:href="#DejaVuSans-30" x="190.869141"/>
      </g>
     </g>
    </g>
    <g id="ytick_6">
     <g id="line2d_14">
      <g>
       <use xlink:href="#m9169fe9fd0" x="108" y="221.249272" style="stroke: #000000; stroke-width: 0.8"/>
      </g>
     </g>
     <g id="text_15">
      <!-- 1250 -->
      <g transform="translate(62.825 226.9481) scale(0.15 -0.15)">
       <use xlink:href="#DejaVuSans-31"/>
       <use xlink:href="#DejaVuSans-32" x="63.623047"/>
       <use xlink:href="#DejaVuSans-35" x="127.246094"/>
       <use xlink:href="#DejaVuSans-30" x="190.869141"/>
      </g>
     </g>
    </g>
    <g id="ytick_7">
     <g id="line2d_15">
      <g>
       <use xlink:href="#m9169fe9fd0" x="108" y="162.971126" style="stroke: #000000; stroke-width: 0.8"/>
      </g>
     </g>
     <g id="text_16">
      <!-- 1500 -->
      <g transform="translate(62.825 168.669954) scale(0.15 -0.15)">
       <use xlink:href="#DejaVuSans-31"/>
       <use xlink:href="#DejaVuSans-35" x="63.623047"/>
       <use xlink:href="#DejaVuSans-30" x="127.246094"/>
       <use xlink:href="#DejaVuSans-30" x="190.869141"/>
      </g>
     </g>
    </g>
    <g id="ytick_8">
     <g id="line2d_16">
      <g>
       <use xlink:href="#m9169fe9fd0" x="108" y="104.69298" style="stroke: #000000; stroke-width: 0.8"/>
      </g>
     </g>
     <g id="text_17">
      <!-- 1750 -->
      <g transform="translate(62.825 110.391808) scale(0.15 -0.15)">
       <use xlink:href="#DejaVuSans-31"/>
       <use xlink:href="#DejaVuSans-37" x="63.623047"/>
       <use xlink:href="#DejaVuSans-35" x="127.246094"/>
       <use xlink:href="#DejaVuSans-30" x="190.869141"/>
      </g>
     </g>
    </g>
    <g id="text_18">
     <!-- Number of nodes -->
     <g transform="translate(52.585938 420.381562) rotate(-90) scale(0.3 -0.3)">
      <defs>
       <path id="DejaVuSans-4e" d="M 628 4666 
L 1478 4666 
L 3547 763 
L 3547 4666 
L 4159 4666 
L 4159 0 
L 3309 0 
L 1241 3903 
L 1241 0 
L 628 0 
L 628 4666 
z
" transform="scale(0.015625)"/>
       <path id="DejaVuSans-75" d="M 544 1381 
L 544 3500 
L 1119 3500 
L 1119 1403 
Q 1119 906 1312 657 
Q 1506 409 1894 409 
Q 2359 409 2629 706 
Q 2900 1003 2900 1516 
L 2900 3500 
L 3475 3500 
L 3475 0 
L 2900 0 
L 2900 538 
Q 2691 219 2414 64 
Q 2138 -91 1772 -91 
Q 1169 -91 856 284 
Q 544 659 544 1381 
z
M 1991 3584 
L 1991 3584 
z
" transform="scale(0.015625)"/>
       <path id="DejaVuSans-6d" d="M 3328 2828 
Q 3544 3216 3844 3400 
Q 4144 3584 4550 3584 
Q 5097 3584 5394 3201 
Q 5691 2819 5691 2113 
L 5691 0 
L 5113 0 
L 5113 2094 
Q 5113 2597 4934 2840 
Q 4756 3084 4391 3084 
Q 3944 3084 3684 2787 
Q 3425 2491 3425 1978 
L 3425 0 
L 2847 0 
L 2847 2094 
Q 2847 2600 2669 2842 
Q 2491 3084 2119 3084 
Q 1678 3084 1418 2786 
Q 1159 2488 1159 1978 
L 1159 0 
L 581 0 
L 581 3500 
L 1159 3500 
L 1159 2956 
Q 1356 3278 1631 3431 
Q 1906 3584 2284 3584 
Q 2666 3584 2933 3390 
Q 3200 3197 3328 2828 
z
" transform="scale(0.015625)"/>
       <path id="DejaVuSans-62" d="M 3116 1747 
Q 3116 2381 2855 2742 
Q 2594 3103 2138 3103 
Q 1681 3103 1420 2742 
Q 1159 2381 1159 1747 
Q 1159 1113 1420 752 
Q 1681 391 2138 391 
Q 2594 391 2855 752 
Q 3116 1113 3116 1747 
z
M 1159 2969 
Q 1341 3281 1617 3432 
Q 1894 3584 2278 3584 
Q 2916 3584 3314 3078 
Q 3713 2572 3713 1747 
Q 3713 922 3314 415 
Q 2916 -91 2278 -91 
Q 1894 -91 1617 61 
Q 1341 213 1159 525 
L 1159 0 
L 581 0 
L 581 4863 
L 1159 4863 
L 1159 2969 
z
" transform="scale(0.015625)"/>
       <path id="DejaVuSans-20" transform="scale(0.015625)"/>
       <path id="DejaVuSans-6f" d="M 1959 3097 
Q 1497 3097 1228 2736 
Q 959 2375 959 1747 
Q 959 1119 1226 758 
Q 1494 397 1959 397 
Q 2419 397 2687 759 
Q 2956 1122 2956 1747 
Q 2956 2369 2687 2733 
Q 2419 3097 1959 3097 
z
M 1959 3584 
Q 2709 3584 3137 3096 
Q 3566 2609 3566 1747 
Q 3566 888 3137 398 
Q 2709 -91 1959 -91 
Q 1206 -91 779 398 
Q 353 888 353 1747 
Q 353 2609 779 3096 
Q 1206 3584 1959 3584 
z
" transform="scale(0.015625)"/>
       <path id="DejaVuSans-66" d="M 2375 4863 
L 2375 4384 
L 1825 4384 
Q 1516 4384 1395 4259 
Q 1275 4134 1275 3809 
L 1275 3500 
L 2222 3500 
L 2222 3053 
L 1275 3053 
L 1275 0 
L 697 0 
L 697 3053 
L 147 3053 
L 147 3500 
L 697 3500 
L 697 3744 
Q 697 4328 969 4595 
Q 1241 4863 1831 4863 
L 2375 4863 
z
" transform="scale(0.015625)"/>
       <path id="DejaVuSans-6e" d="M 3513 2113 
L 3513 0 
L 2938 0 
L 2938 2094 
Q 2938 2591 2744 2837 
Q 2550 3084 2163 3084 
Q 1697 3084 1428 2787 
Q 1159 2491 1159 1978 
L 1159 0 
L 581 0 
L 581 3500 
L 1159 3500 
L 1159 2956 
Q 1366 3272 1645 3428 
Q 1925 3584 2291 3584 
Q 2894 3584 3203 3211 
Q 3513 2838 3513 2113 
z
" transform="scale(0.015625)"/>
       <path id="DejaVuSans-64" d="M 2906 2969 
L 2906 4863 
L 3481 4863 
L 3481 0 
L 2906 0 
L 2906 525 
Q 2725 213 2448 61 
Q 2172 -91 1784 -91 
Q 1150 -91 751 415 
Q 353 922 353 1747 
Q 353 2572 751 3078 
Q 1150 3584 1784 3584 
Q 2172 3584 2448 3432 
Q 2725 3281 2906 2969 
z
M 947 1747 
Q 947 1113 1208 752 
Q 1469 391 1925 391 
Q 2381 391 2643 752 
Q 2906 1113 2906 1747 
Q 2906 2381 2643 2742 
Q 2381 3103 1925 3103 
Q 1469 3103 1208 2742 
Q 947 2381 947 1747 
z
" transform="scale(0.015625)"/>
       <path id="DejaVuSans-73" d="M 2834 3397 
L 2834 2853 
Q 2591 2978 2328 3040 
Q 2066 3103 1784 3103 
Q 1356 3103 1142 2972 
Q 928 2841 928 2578 
Q 928 2378 1081 2264 
Q 1234 2150 1697 2047 
L 1894 2003 
Q 2506 1872 2764 1633 
Q 3022 1394 3022 966 
Q 3022 478 2636 193 
Q 2250 -91 1575 -91 
Q 1294 -91 989 -36 
Q 684 19 347 128 
L 347 722 
Q 666 556 975 473 
Q 1284 391 1588 391 
Q 1994 391 2212 530 
Q 2431 669 2431 922 
Q 2431 1156 2273 1281 
Q 2116 1406 1581 1522 
L 1381 1569 
Q 847 1681 609 1914 
Q 372 2147 372 2553 
Q 372 3047 722 3315 
Q 1072 3584 1716 3584 
Q 2034 3584 2315 3537 
Q 2597 3491 2834 3397 
z
" transform="scale(0.015625)"/>
      </defs>
      <use xlink:href="#DejaVuSans-4e"/>
      <use xlink:href="#DejaVuSans-75" x="74.804688"/>
      <use xlink:href="#DejaVuSans-6d" x="138.183594"/>
      <use xlink:href="#DejaVuSans-62" x="235.595703"/>
      <use xlink:href="#DejaVuSans-65" x="299.072266"/>
      <use xlink:href="#DejaVuSans-72" x="360.595703"/>
      <use xlink:href="#DejaVuSans-20" x="401.708984"/>
      <use xlink:href="#DejaVuSans-6f" x="433.496094"/>
      <use xlink:href="#DejaVuSans-66" x="494.677734"/>
      <use xlink:href="#DejaVuSans-20" x="529.882812"/>
      <use xlink:href="#DejaVuSans-6e" x="561.669922"/>
      <use xlink:href="#DejaVuSans-6f" x="625.048828"/>
      <use xlink:href="#DejaVuSans-64" x="686.230469"/>
      <use xlink:href="#DejaVuSans-65" x="749.707031"/>
      <use xlink:href="#DejaVuSans-73" x="811.230469"/>
     </g>
    </g>
   </g>
   <g id="patch_103">
    <path d="M 108 512.64 
L 108 69.12 
" style="fill: none; stroke: #000000; stroke-width: 0.8; stroke-linejoin: miter; stroke-linecap: square"/>
   </g>
   <g id="patch_104">
    <path d="M 777.6 512.64 
L 777.6 69.12 
" style="fill: none; stroke: #000000; stroke-width: 0.8; stroke-linejoin: miter; stroke-linecap: square"/>
   </g>
   <g id="patch_105">
    <path d="M 108 512.64 
L 777.6 512.64 
" style="fill: none; stroke: #000000; stroke-width: 0.8; stroke-linejoin: miter; stroke-linecap: square"/>
   </g>
   <g id="patch_106">
    <path d="M 108 69.12 
L 777.6 69.12 
" style="fill: none; stroke: #000000; stroke-width: 0.8; stroke-linejoin: miter; stroke-linecap: square"/>
   </g>
  </g>
 </g>
 <defs>
  <clipPath id="pccc61dfdec">
   <rect x="108" y="69.12" width="669.6" height="443.52"/>
  </clipPath>
 </defs>
</svg>
