<?xml version="1.0" encoding="utf-8" standalone="no"?>
<!DOCTYPE svg PUBLIC "-//W3C//DTD SVG 1.1//EN"
  "http://www.w3.org/Graphics/SVG/1.1/DTD/svg11.dtd">
<svg xmlns:xlink="http://www.w3.org/1999/xlink" width="460.8pt" height="345.6pt" viewBox="0 0 460.8 345.6" xmlns="http://www.w3.org/2000/svg" version="1.1">
 <metadata>
  <rdf:RDF xmlns:dc="http://purl.org/dc/elements/1.1/" xmlns:cc="http://creativecommons.org/ns#" xmlns:rdf="http://www.w3.org/1999/02/22-rdf-syntax-ns#">
   <cc:Work>
    <dc:type rdf:resource="http://purl.org/dc/dcmitype/StillImage"/>
    <dc:date>2024-06-30T18:33:55.254198</dc:date>
    <dc:format>image/svg+xml</dc:format>
    <dc:creator>
     <cc:Agent>
      <dc:title>Matplotlib v3.8.4, https://matplotlib.org/</dc:title>
     </cc:Agent>
    </dc:creator>
   </cc:Work>
  </rdf:RDF>
 </metadata>
 <defs>
  <style type="text/css">*{stroke-linejoin: round; stroke-linecap: butt}</style>
 </defs>
 <g id="figure_1">
  <g id="patch_1">
   <path d="M 0 345.6 
L 460.8 345.6 
L 460.8 0 
L 0 0 
z
" style="fill: #ffffff"/>
  </g>
  <g id="axes_1">
   <g id="patch_2">
    <path d="M 50.6 300.04 
L 450 300.04 
L 450 10.8 
L 50.6 10.8 
z
" style="fill: #ffffff"/>
   </g>
   <g id="matplotlib.axis_1">
    <g id="xtick_1">
     <g id="line2d_1">
      <path d="M 68.754545 300.04 
L 68.754545 10.8 
" clip-path="url(#p5fadf83086)" style="fill: none; stroke: #b0b0b0; stroke-opacity: 0.2; stroke-width: 0.8; stroke-linecap: square"/>
     </g>
     <g id="line2d_2">
      <defs>
       <path id="mc4efab8f85" d="M 0 0 
L 0 3.5 
" style="stroke: #000000; stroke-width: 0.8"/>
      </defs>
      <g>
       <use xlink:href="#mc4efab8f85" x="68.754545" y="300.04" style="stroke: #000000; stroke-width: 0.8"/>
      </g>
     </g>
     <g id="text_1">
      <!-- 0 -->
      <g transform="translate(65.573295 314.638437) scale(0.1 -0.1)">
       <defs>
        <path id="DejaVuSans-30" d="M 2034 4250 
Q 1547 4250 1301 3770 
Q 1056 3291 1056 2328 
Q 1056 1369 1301 889 
Q 1547 409 2034 409 
Q 2525 409 2770 889 
Q 3016 1369 3016 2328 
Q 3016 3291 2770 3770 
Q 2525 4250 2034 4250 
z
M 2034 4750 
Q 2819 4750 3233 4129 
Q 3647 3509 3647 2328 
Q 3647 1150 3233 529 
Q 2819 -91 2034 -91 
Q 1250 -91 836 529 
Q 422 1150 422 2328 
Q 422 3509 836 4129 
Q 1250 4750 2034 4750 
z
" transform="scale(0.015625)"/>
       </defs>
       <use xlink:href="#DejaVuSans-30"/>
      </g>
     </g>
    </g>
    <g id="xtick_2">
     <g id="line2d_3">
      <path d="M 138.57972 300.04 
L 138.57972 10.8 
" clip-path="url(#p5fadf83086)" style="fill: none; stroke: #b0b0b0; stroke-opacity: 0.2; stroke-width: 0.8; stroke-linecap: square"/>
     </g>
     <g id="line2d_4">
      <g>
       <use xlink:href="#mc4efab8f85" x="138.57972" y="300.04" style="stroke: #000000; stroke-width: 0.8"/>
      </g>
     </g>
     <g id="text_2">
      <!-- 10 -->
      <g transform="translate(132.21722 314.638437) scale(0.1 -0.1)">
       <defs>
        <path id="DejaVuSans-31" d="M 794 531 
L 1825 531 
L 1825 4091 
L 703 3866 
L 703 4441 
L 1819 4666 
L 2450 4666 
L 2450 531 
L 3481 531 
L 3481 0 
L 794 0 
L 794 531 
z
" transform="scale(0.015625)"/>
       </defs>
       <use xlink:href="#DejaVuSans-31"/>
       <use xlink:href="#DejaVuSans-30" x="63.623047"/>
      </g>
     </g>
    </g>
    <g id="xtick_3">
     <g id="line2d_5">
      <path d="M 208.404895 300.04 
L 208.404895 10.8 
" clip-path="url(#p5fadf83086)" style="fill: none; stroke: #b0b0b0; stroke-opacity: 0.2; stroke-width: 0.8; stroke-linecap: square"/>
     </g>
     <g id="line2d_6">
      <g>
       <use xlink:href="#mc4efab8f85" x="208.404895" y="300.04" style="stroke: #000000; stroke-width: 0.8"/>
      </g>
     </g>
     <g id="text_3">
      <!-- 20 -->
      <g transform="translate(202.042395 314.638437) scale(0.1 -0.1)">
       <defs>
        <path id="DejaVuSans-32" d="M 1228 531 
L 3431 531 
L 3431 0 
L 469 0 
L 469 531 
Q 828 903 1448 1529 
Q 2069 2156 2228 2338 
Q 2531 2678 2651 2914 
Q 2772 3150 2772 3378 
Q 2772 3750 2511 3984 
Q 2250 4219 1831 4219 
Q 1534 4219 1204 4116 
Q 875 4013 500 3803 
L 500 4441 
Q 881 4594 1212 4672 
Q 1544 4750 1819 4750 
Q 2544 4750 2975 4387 
Q 3406 4025 3406 3419 
Q 3406 3131 3298 2873 
Q 3191 2616 2906 2266 
Q 2828 2175 2409 1742 
Q 1991 1309 1228 531 
z
" transform="scale(0.015625)"/>
       </defs>
       <use xlink:href="#DejaVuSans-32"/>
       <use xlink:href="#DejaVuSans-30" x="63.623047"/>
      </g>
     </g>
    </g>
    <g id="xtick_4">
     <g id="line2d_7">
      <path d="M 278.23007 300.04 
L 278.23007 10.8 
" clip-path="url(#p5fadf83086)" style="fill: none; stroke: #b0b0b0; stroke-opacity: 0.2; stroke-width: 0.8; stroke-linecap: square"/>
     </g>
     <g id="line2d_8">
      <g>
       <use xlink:href="#mc4efab8f85" x="278.23007" y="300.04" style="stroke: #000000; stroke-width: 0.8"/>
      </g>
     </g>
     <g id="text_4">
      <!-- 30 -->
      <g transform="translate(271.86757 314.638437) scale(0.1 -0.1)">
       <defs>
        <path id="DejaVuSans-33" d="M 2597 2516 
Q 3050 2419 3304 2112 
Q 3559 1806 3559 1356 
Q 3559 666 3084 287 
Q 2609 -91 1734 -91 
Q 1441 -91 1130 -33 
Q 819 25 488 141 
L 488 750 
Q 750 597 1062 519 
Q 1375 441 1716 441 
Q 2309 441 2620 675 
Q 2931 909 2931 1356 
Q 2931 1769 2642 2001 
Q 2353 2234 1838 2234 
L 1294 2234 
L 1294 2753 
L 1863 2753 
Q 2328 2753 2575 2939 
Q 2822 3125 2822 3475 
Q 2822 3834 2567 4026 
Q 2313 4219 1838 4219 
Q 1578 4219 1281 4162 
Q 984 4106 628 3988 
L 628 4550 
Q 988 4650 1302 4700 
Q 1616 4750 1894 4750 
Q 2613 4750 3031 4423 
Q 3450 4097 3450 3541 
Q 3450 3153 3228 2886 
Q 3006 2619 2597 2516 
z
" transform="scale(0.015625)"/>
       </defs>
       <use xlink:href="#DejaVuSans-33"/>
       <use xlink:href="#DejaVuSans-30" x="63.623047"/>
      </g>
     </g>
    </g>
    <g id="xtick_5">
     <g id="line2d_9">
      <path d="M 348.055245 300.04 
L 348.055245 10.8 
" clip-path="url(#p5fadf83086)" style="fill: none; stroke: #b0b0b0; stroke-opacity: 0.2; stroke-width: 0.8; stroke-linecap: square"/>
     </g>
     <g id="line2d_10">
      <g>
       <use xlink:href="#mc4efab8f85" x="348.055245" y="300.04" style="stroke: #000000; stroke-width: 0.8"/>
      </g>
     </g>
     <g id="text_5">
      <!-- 40 -->
      <g transform="translate(341.692745 314.638437) scale(0.1 -0.1)">
       <defs>
        <path id="DejaVuSans-34" d="M 2419 4116 
L 825 1625 
L 2419 1625 
L 2419 4116 
z
M 2253 4666 
L 3047 4666 
L 3047 1625 
L 3713 1625 
L 3713 1100 
L 3047 1100 
L 3047 0 
L 2419 0 
L 2419 1100 
L 313 1100 
L 313 1709 
L 2253 4666 
z
" transform="scale(0.015625)"/>
       </defs>
       <use xlink:href="#DejaVuSans-34"/>
       <use xlink:href="#DejaVuSans-30" x="63.623047"/>
      </g>
     </g>
    </g>
    <g id="xtick_6">
     <g id="line2d_11">
      <path d="M 417.88042 300.04 
L 417.88042 10.8 
" clip-path="url(#p5fadf83086)" style="fill: none; stroke: #b0b0b0; stroke-opacity: 0.2; stroke-width: 0.8; stroke-linecap: square"/>
     </g>
     <g id="line2d_12">
      <g>
       <use xlink:href="#mc4efab8f85" x="417.88042" y="300.04" style="stroke: #000000; stroke-width: 0.8"/>
      </g>
     </g>
     <g id="text_6">
      <!-- 50 -->
      <g transform="translate(411.51792 314.638437) scale(0.1 -0.1)">
       <defs>
        <path id="DejaVuSans-35" d="M 691 4666 
L 3169 4666 
L 3169 4134 
L 1269 4134 
L 1269 2991 
Q 1406 3038 1543 3061 
Q 1681 3084 1819 3084 
Q 2600 3084 3056 2656 
Q 3513 2228 3513 1497 
Q 3513 744 3044 326 
Q 2575 -91 1722 -91 
Q 1428 -91 1123 -41 
Q 819 9 494 109 
L 494 744 
Q 775 591 1075 516 
Q 1375 441 1709 441 
Q 2250 441 2565 725 
Q 2881 1009 2881 1497 
Q 2881 1984 2565 2268 
Q 2250 2553 1709 2553 
Q 1456 2553 1204 2497 
Q 953 2441 691 2322 
L 691 4666 
z
" transform="scale(0.015625)"/>
       </defs>
       <use xlink:href="#DejaVuSans-35"/>
       <use xlink:href="#DejaVuSans-30" x="63.623047"/>
      </g>
     </g>
    </g>
    <g id="text_7">
     <!-- k edge removals -->
     <g transform="translate(192.142031 331.355937) scale(0.14 -0.14)">
      <defs>
       <path id="DejaVuSans-6b" d="M 581 4863 
L 1159 4863 
L 1159 1991 
L 2875 3500 
L 3609 3500 
L 1753 1863 
L 3688 0 
L 2938 0 
L 1159 1709 
L 1159 0 
L 581 0 
L 581 4863 
z
" transform="scale(0.015625)"/>
       <path id="DejaVuSans-20" transform="scale(0.015625)"/>
       <path id="DejaVuSans-65" d="M 3597 1894 
L 3597 1613 
L 953 1613 
Q 991 1019 1311 708 
Q 1631 397 2203 397 
Q 2534 397 2845 478 
Q 3156 559 3463 722 
L 3463 178 
Q 3153 47 2828 -22 
Q 2503 -91 2169 -91 
Q 1331 -91 842 396 
Q 353 884 353 1716 
Q 353 2575 817 3079 
Q 1281 3584 2069 3584 
Q 2775 3584 3186 3129 
Q 3597 2675 3597 1894 
z
M 3022 2063 
Q 3016 2534 2758 2815 
Q 2500 3097 2075 3097 
Q 1594 3097 1305 2825 
Q 1016 2553 972 2059 
L 3022 2063 
z
" transform="scale(0.015625)"/>
       <path id="DejaVuSans-64" d="M 2906 2969 
L 2906 4863 
L 3481 4863 
L 3481 0 
L 2906 0 
L 2906 525 
Q 2725 213 2448 61 
Q 2172 -91 1784 -91 
Q 1150 -91 751 415 
Q 353 922 353 1747 
Q 353 2572 751 3078 
Q 1150 3584 1784 3584 
Q 2172 3584 2448 3432 
Q 2725 3281 2906 2969 
z
M 947 1747 
Q 947 1113 1208 752 
Q 1469 391 1925 391 
Q 2381 391 2643 752 
Q 2906 1113 2906 1747 
Q 2906 2381 2643 2742 
Q 2381 3103 1925 3103 
Q 1469 3103 1208 2742 
Q 947 2381 947 1747 
z
" transform="scale(0.015625)"/>
       <path id="DejaVuSans-67" d="M 2906 1791 
Q 2906 2416 2648 2759 
Q 2391 3103 1925 3103 
Q 1463 3103 1205 2759 
Q 947 2416 947 1791 
Q 947 1169 1205 825 
Q 1463 481 1925 481 
Q 2391 481 2648 825 
Q 2906 1169 2906 1791 
z
M 3481 434 
Q 3481 -459 3084 -895 
Q 2688 -1331 1869 -1331 
Q 1566 -1331 1297 -1286 
Q 1028 -1241 775 -1147 
L 775 -588 
Q 1028 -725 1275 -790 
Q 1522 -856 1778 -856 
Q 2344 -856 2625 -561 
Q 2906 -266 2906 331 
L 2906 616 
Q 2728 306 2450 153 
Q 2172 0 1784 0 
Q 1141 0 747 490 
Q 353 981 353 1791 
Q 353 2603 747 3093 
Q 1141 3584 1784 3584 
Q 2172 3584 2450 3431 
Q 2728 3278 2906 2969 
L 2906 3500 
L 3481 3500 
L 3481 434 
z
" transform="scale(0.015625)"/>
       <path id="DejaVuSans-72" d="M 2631 2963 
Q 2534 3019 2420 3045 
Q 2306 3072 2169 3072 
Q 1681 3072 1420 2755 
Q 1159 2438 1159 1844 
L 1159 0 
L 581 0 
L 581 3500 
L 1159 3500 
L 1159 2956 
Q 1341 3275 1631 3429 
Q 1922 3584 2338 3584 
Q 2397 3584 2469 3576 
Q 2541 3569 2628 3553 
L 2631 2963 
z
" transform="scale(0.015625)"/>
       <path id="DejaVuSans-6d" d="M 3328 2828 
Q 3544 3216 3844 3400 
Q 4144 3584 4550 3584 
Q 5097 3584 5394 3201 
Q 5691 2819 5691 2113 
L 5691 0 
L 5113 0 
L 5113 2094 
Q 5113 2597 4934 2840 
Q 4756 3084 4391 3084 
Q 3944 3084 3684 2787 
Q 3425 2491 3425 1978 
L 3425 0 
L 2847 0 
L 2847 2094 
Q 2847 2600 2669 2842 
Q 2491 3084 2119 3084 
Q 1678 3084 1418 2786 
Q 1159 2488 1159 1978 
L 1159 0 
L 581 0 
L 581 3500 
L 1159 3500 
L 1159 2956 
Q 1356 3278 1631 3431 
Q 1906 3584 2284 3584 
Q 2666 3584 2933 3390 
Q 3200 3197 3328 2828 
z
" transform="scale(0.015625)"/>
       <path id="DejaVuSans-6f" d="M 1959 3097 
Q 1497 3097 1228 2736 
Q 959 2375 959 1747 
Q 959 1119 1226 758 
Q 1494 397 1959 397 
Q 2419 397 2687 759 
Q 2956 1122 2956 1747 
Q 2956 2369 2687 2733 
Q 2419 3097 1959 3097 
z
M 1959 3584 
Q 2709 3584 3137 3096 
Q 3566 2609 3566 1747 
Q 3566 888 3137 398 
Q 2709 -91 1959 -91 
Q 1206 -91 779 398 
Q 353 888 353 1747 
Q 353 2609 779 3096 
Q 1206 3584 1959 3584 
z
" transform="scale(0.015625)"/>
       <path id="DejaVuSans-76" d="M 191 3500 
L 800 3500 
L 1894 563 
L 2988 3500 
L 3597 3500 
L 2284 0 
L 1503 0 
L 191 3500 
z
" transform="scale(0.015625)"/>
       <path id="DejaVuSans-61" d="M 2194 1759 
Q 1497 1759 1228 1600 
Q 959 1441 959 1056 
Q 959 750 1161 570 
Q 1363 391 1709 391 
Q 2188 391 2477 730 
Q 2766 1069 2766 1631 
L 2766 1759 
L 2194 1759 
z
M 3341 1997 
L 3341 0 
L 2766 0 
L 2766 531 
Q 2569 213 2275 61 
Q 1981 -91 1556 -91 
Q 1019 -91 701 211 
Q 384 513 384 1019 
Q 384 1609 779 1909 
Q 1175 2209 1959 2209 
L 2766 2209 
L 2766 2266 
Q 2766 2663 2505 2880 
Q 2244 3097 1772 3097 
Q 1472 3097 1187 3025 
Q 903 2953 641 2809 
L 641 3341 
Q 956 3463 1253 3523 
Q 1550 3584 1831 3584 
Q 2591 3584 2966 3190 
Q 3341 2797 3341 1997 
z
" transform="scale(0.015625)"/>
       <path id="DejaVuSans-6c" d="M 603 4863 
L 1178 4863 
L 1178 0 
L 603 0 
L 603 4863 
z
" transform="scale(0.015625)"/>
       <path id="DejaVuSans-73" d="M 2834 3397 
L 2834 2853 
Q 2591 2978 2328 3040 
Q 2066 3103 1784 3103 
Q 1356 3103 1142 2972 
Q 928 2841 928 2578 
Q 928 2378 1081 2264 
Q 1234 2150 1697 2047 
L 1894 2003 
Q 2506 1872 2764 1633 
Q 3022 1394 3022 966 
Q 3022 478 2636 193 
Q 2250 -91 1575 -91 
Q 1294 -91 989 -36 
Q 684 19 347 128 
L 347 722 
Q 666 556 975 473 
Q 1284 391 1588 391 
Q 1994 391 2212 530 
Q 2431 669 2431 922 
Q 2431 1156 2273 1281 
Q 2116 1406 1581 1522 
L 1381 1569 
Q 847 1681 609 1914 
Q 372 2147 372 2553 
Q 372 3047 722 3315 
Q 1072 3584 1716 3584 
Q 2034 3584 2315 3537 
Q 2597 3491 2834 3397 
z
" transform="scale(0.015625)"/>
      </defs>
      <use xlink:href="#DejaVuSans-6b"/>
      <use xlink:href="#DejaVuSans-20" x="57.910156"/>
      <use xlink:href="#DejaVuSans-65" x="89.697266"/>
      <use xlink:href="#DejaVuSans-64" x="151.220703"/>
      <use xlink:href="#DejaVuSans-67" x="214.697266"/>
      <use xlink:href="#DejaVuSans-65" x="278.173828"/>
      <use xlink:href="#DejaVuSans-20" x="339.697266"/>
      <use xlink:href="#DejaVuSans-72" x="371.484375"/>
      <use xlink:href="#DejaVuSans-65" x="410.347656"/>
      <use xlink:href="#DejaVuSans-6d" x="471.871094"/>
      <use xlink:href="#DejaVuSans-6f" x="569.283203"/>
      <use xlink:href="#DejaVuSans-76" x="630.464844"/>
      <use xlink:href="#DejaVuSans-61" x="689.644531"/>
      <use xlink:href="#DejaVuSans-6c" x="750.923828"/>
      <use xlink:href="#DejaVuSans-73" x="778.707031"/>
     </g>
    </g>
   </g>
   <g id="matplotlib.axis_2">
    <g id="ytick_1">
     <g id="line2d_13">
      <path d="M 50.6 286.892727 
L 450 286.892727 
" clip-path="url(#p5fadf83086)" style="fill: none; stroke: #b0b0b0; stroke-opacity: 0.2; stroke-width: 0.8; stroke-linecap: square"/>
     </g>
     <g id="line2d_14">
      <defs>
       <path id="m8084805f0c" d="M 0 0 
L -3.5 0 
" style="stroke: #000000; stroke-width: 0.8"/>
      </defs>
      <g>
       <use xlink:href="#m8084805f0c" x="50.6" y="286.892727" style="stroke: #000000; stroke-width: 0.8"/>
      </g>
     </g>
     <g id="text_8">
      <!-- 0.0 -->
      <g transform="translate(27.696875 290.691946) scale(0.1 -0.1)">
       <defs>
        <path id="DejaVuSans-2e" d="M 684 794 
L 1344 794 
L 1344 0 
L 684 0 
L 684 794 
z
" transform="scale(0.015625)"/>
       </defs>
       <use xlink:href="#DejaVuSans-30"/>
       <use xlink:href="#DejaVuSans-2e" x="63.623047"/>
       <use xlink:href="#DejaVuSans-30" x="95.410156"/>
      </g>
     </g>
    </g>
    <g id="ytick_2">
     <g id="line2d_15">
      <path d="M 50.6 234.303636 
L 450 234.303636 
" clip-path="url(#p5fadf83086)" style="fill: none; stroke: #b0b0b0; stroke-opacity: 0.2; stroke-width: 0.8; stroke-linecap: square"/>
     </g>
     <g id="line2d_16">
      <g>
       <use xlink:href="#m8084805f0c" x="50.6" y="234.303636" style="stroke: #000000; stroke-width: 0.8"/>
      </g>
     </g>
     <g id="text_9">
      <!-- 0.2 -->
      <g transform="translate(27.696875 238.102855) scale(0.1 -0.1)">
       <use xlink:href="#DejaVuSans-30"/>
       <use xlink:href="#DejaVuSans-2e" x="63.623047"/>
       <use xlink:href="#DejaVuSans-32" x="95.410156"/>
      </g>
     </g>
    </g>
    <g id="ytick_3">
     <g id="line2d_17">
      <path d="M 50.6 181.714545 
L 450 181.714545 
" clip-path="url(#p5fadf83086)" style="fill: none; stroke: #b0b0b0; stroke-opacity: 0.2; stroke-width: 0.8; stroke-linecap: square"/>
     </g>
     <g id="line2d_18">
      <g>
       <use xlink:href="#m8084805f0c" x="50.6" y="181.714545" style="stroke: #000000; stroke-width: 0.8"/>
      </g>
     </g>
     <g id="text_10">
      <!-- 0.4 -->
      <g transform="translate(27.696875 185.513764) scale(0.1 -0.1)">
       <use xlink:href="#DejaVuSans-30"/>
       <use xlink:href="#DejaVuSans-2e" x="63.623047"/>
       <use xlink:href="#DejaVuSans-34" x="95.410156"/>
      </g>
     </g>
    </g>
    <g id="ytick_4">
     <g id="line2d_19">
      <path d="M 50.6 129.125455 
L 450 129.125455 
" clip-path="url(#p5fadf83086)" style="fill: none; stroke: #b0b0b0; stroke-opacity: 0.2; stroke-width: 0.8; stroke-linecap: square"/>
     </g>
     <g id="line2d_20">
      <g>
       <use xlink:href="#m8084805f0c" x="50.6" y="129.125455" style="stroke: #000000; stroke-width: 0.8"/>
      </g>
     </g>
     <g id="text_11">
      <!-- 0.6 -->
      <g transform="translate(27.696875 132.924673) scale(0.1 -0.1)">
       <defs>
        <path id="DejaVuSans-36" d="M 2113 2584 
Q 1688 2584 1439 2293 
Q 1191 2003 1191 1497 
Q 1191 994 1439 701 
Q 1688 409 2113 409 
Q 2538 409 2786 701 
Q 3034 994 3034 1497 
Q 3034 2003 2786 2293 
Q 2538 2584 2113 2584 
z
M 3366 4563 
L 3366 3988 
Q 3128 4100 2886 4159 
Q 2644 4219 2406 4219 
Q 1781 4219 1451 3797 
Q 1122 3375 1075 2522 
Q 1259 2794 1537 2939 
Q 1816 3084 2150 3084 
Q 2853 3084 3261 2657 
Q 3669 2231 3669 1497 
Q 3669 778 3244 343 
Q 2819 -91 2113 -91 
Q 1303 -91 875 529 
Q 447 1150 447 2328 
Q 447 3434 972 4092 
Q 1497 4750 2381 4750 
Q 2619 4750 2861 4703 
Q 3103 4656 3366 4563 
z
" transform="scale(0.015625)"/>
       </defs>
       <use xlink:href="#DejaVuSans-30"/>
       <use xlink:href="#DejaVuSans-2e" x="63.623047"/>
       <use xlink:href="#DejaVuSans-36" x="95.410156"/>
      </g>
     </g>
    </g>
    <g id="ytick_5">
     <g id="line2d_21">
      <path d="M 50.6 76.536364 
L 450 76.536364 
" clip-path="url(#p5fadf83086)" style="fill: none; stroke: #b0b0b0; stroke-opacity: 0.2; stroke-width: 0.8; stroke-linecap: square"/>
     </g>
     <g id="line2d_22">
      <g>
       <use xlink:href="#m8084805f0c" x="50.6" y="76.536364" style="stroke: #000000; stroke-width: 0.8"/>
      </g>
     </g>
     <g id="text_12">
      <!-- 0.8 -->
      <g transform="translate(27.696875 80.335582) scale(0.1 -0.1)">
       <defs>
        <path id="DejaVuSans-38" d="M 2034 2216 
Q 1584 2216 1326 1975 
Q 1069 1734 1069 1313 
Q 1069 891 1326 650 
Q 1584 409 2034 409 
Q 2484 409 2743 651 
Q 3003 894 3003 1313 
Q 3003 1734 2745 1975 
Q 2488 2216 2034 2216 
z
M 1403 2484 
Q 997 2584 770 2862 
Q 544 3141 544 3541 
Q 544 4100 942 4425 
Q 1341 4750 2034 4750 
Q 2731 4750 3128 4425 
Q 3525 4100 3525 3541 
Q 3525 3141 3298 2862 
Q 3072 2584 2669 2484 
Q 3125 2378 3379 2068 
Q 3634 1759 3634 1313 
Q 3634 634 3220 271 
Q 2806 -91 2034 -91 
Q 1263 -91 848 271 
Q 434 634 434 1313 
Q 434 1759 690 2068 
Q 947 2378 1403 2484 
z
M 1172 3481 
Q 1172 3119 1398 2916 
Q 1625 2713 2034 2713 
Q 2441 2713 2670 2916 
Q 2900 3119 2900 3481 
Q 2900 3844 2670 4047 
Q 2441 4250 2034 4250 
Q 1625 4250 1398 4047 
Q 1172 3844 1172 3481 
z
" transform="scale(0.015625)"/>
       </defs>
       <use xlink:href="#DejaVuSans-30"/>
       <use xlink:href="#DejaVuSans-2e" x="63.623047"/>
       <use xlink:href="#DejaVuSans-38" x="95.410156"/>
      </g>
     </g>
    </g>
    <g id="ytick_6">
     <g id="line2d_23">
      <path d="M 50.6 23.947273 
L 450 23.947273 
" clip-path="url(#p5fadf83086)" style="fill: none; stroke: #b0b0b0; stroke-opacity: 0.2; stroke-width: 0.8; stroke-linecap: square"/>
     </g>
     <g id="line2d_24">
      <g>
       <use xlink:href="#m8084805f0c" x="50.6" y="23.947273" style="stroke: #000000; stroke-width: 0.8"/>
      </g>
     </g>
     <g id="text_13">
      <!-- 1.0 -->
      <g transform="translate(27.696875 27.746491) scale(0.1 -0.1)">
       <use xlink:href="#DejaVuSans-31"/>
       <use xlink:href="#DejaVuSans-2e" x="63.623047"/>
       <use xlink:href="#DejaVuSans-30" x="95.410156"/>
      </g>
     </g>
    </g>
    <g id="text_14">
     <!-- Network Flow Capacity Robustness, NFCR -->
     <g transform="translate(21.20125 280.627813) rotate(-90) scale(0.12 -0.12)">
      <defs>
       <path id="DejaVuSans-4e" d="M 628 4666 
L 1478 4666 
L 3547 763 
L 3547 4666 
L 4159 4666 
L 4159 0 
L 3309 0 
L 1241 3903 
L 1241 0 
L 628 0 
L 628 4666 
z
" transform="scale(0.015625)"/>
       <path id="DejaVuSans-74" d="M 1172 4494 
L 1172 3500 
L 2356 3500 
L 2356 3053 
L 1172 3053 
L 1172 1153 
Q 1172 725 1289 603 
Q 1406 481 1766 481 
L 2356 481 
L 2356 0 
L 1766 0 
Q 1100 0 847 248 
Q 594 497 594 1153 
L 594 3053 
L 172 3053 
L 172 3500 
L 594 3500 
L 594 4494 
L 1172 4494 
z
" transform="scale(0.015625)"/>
       <path id="DejaVuSans-77" d="M 269 3500 
L 844 3500 
L 1563 769 
L 2278 3500 
L 2956 3500 
L 3675 769 
L 4391 3500 
L 4966 3500 
L 4050 0 
L 3372 0 
L 2619 2869 
L 1863 0 
L 1184 0 
L 269 3500 
z
" transform="scale(0.015625)"/>
       <path id="DejaVuSans-46" d="M 628 4666 
L 3309 4666 
L 3309 4134 
L 1259 4134 
L 1259 2759 
L 3109 2759 
L 3109 2228 
L 1259 2228 
L 1259 0 
L 628 0 
L 628 4666 
z
" transform="scale(0.015625)"/>
       <path id="DejaVuSans-43" d="M 4122 4306 
L 4122 3641 
Q 3803 3938 3442 4084 
Q 3081 4231 2675 4231 
Q 1875 4231 1450 3742 
Q 1025 3253 1025 2328 
Q 1025 1406 1450 917 
Q 1875 428 2675 428 
Q 3081 428 3442 575 
Q 3803 722 4122 1019 
L 4122 359 
Q 3791 134 3420 21 
Q 3050 -91 2638 -91 
Q 1578 -91 968 557 
Q 359 1206 359 2328 
Q 359 3453 968 4101 
Q 1578 4750 2638 4750 
Q 3056 4750 3426 4639 
Q 3797 4528 4122 4306 
z
" transform="scale(0.015625)"/>
       <path id="DejaVuSans-70" d="M 1159 525 
L 1159 -1331 
L 581 -1331 
L 581 3500 
L 1159 3500 
L 1159 2969 
Q 1341 3281 1617 3432 
Q 1894 3584 2278 3584 
Q 2916 3584 3314 3078 
Q 3713 2572 3713 1747 
Q 3713 922 3314 415 
Q 2916 -91 2278 -91 
Q 1894 -91 1617 61 
Q 1341 213 1159 525 
z
M 3116 1747 
Q 3116 2381 2855 2742 
Q 2594 3103 2138 3103 
Q 1681 3103 1420 2742 
Q 1159 2381 1159 1747 
Q 1159 1113 1420 752 
Q 1681 391 2138 391 
Q 2594 391 2855 752 
Q 3116 1113 3116 1747 
z
" transform="scale(0.015625)"/>
       <path id="DejaVuSans-63" d="M 3122 3366 
L 3122 2828 
Q 2878 2963 2633 3030 
Q 2388 3097 2138 3097 
Q 1578 3097 1268 2742 
Q 959 2388 959 1747 
Q 959 1106 1268 751 
Q 1578 397 2138 397 
Q 2388 397 2633 464 
Q 2878 531 3122 666 
L 3122 134 
Q 2881 22 2623 -34 
Q 2366 -91 2075 -91 
Q 1284 -91 818 406 
Q 353 903 353 1747 
Q 353 2603 823 3093 
Q 1294 3584 2113 3584 
Q 2378 3584 2631 3529 
Q 2884 3475 3122 3366 
z
" transform="scale(0.015625)"/>
       <path id="DejaVuSans-69" d="M 603 3500 
L 1178 3500 
L 1178 0 
L 603 0 
L 603 3500 
z
M 603 4863 
L 1178 4863 
L 1178 4134 
L 603 4134 
L 603 4863 
z
" transform="scale(0.015625)"/>
       <path id="DejaVuSans-79" d="M 2059 -325 
Q 1816 -950 1584 -1140 
Q 1353 -1331 966 -1331 
L 506 -1331 
L 506 -850 
L 844 -850 
Q 1081 -850 1212 -737 
Q 1344 -625 1503 -206 
L 1606 56 
L 191 3500 
L 800 3500 
L 1894 763 
L 2988 3500 
L 3597 3500 
L 2059 -325 
z
" transform="scale(0.015625)"/>
       <path id="DejaVuSans-52" d="M 2841 2188 
Q 3044 2119 3236 1894 
Q 3428 1669 3622 1275 
L 4263 0 
L 3584 0 
L 2988 1197 
Q 2756 1666 2539 1819 
Q 2322 1972 1947 1972 
L 1259 1972 
L 1259 0 
L 628 0 
L 628 4666 
L 2053 4666 
Q 2853 4666 3247 4331 
Q 3641 3997 3641 3322 
Q 3641 2881 3436 2590 
Q 3231 2300 2841 2188 
z
M 1259 4147 
L 1259 2491 
L 2053 2491 
Q 2509 2491 2742 2702 
Q 2975 2913 2975 3322 
Q 2975 3731 2742 3939 
Q 2509 4147 2053 4147 
L 1259 4147 
z
" transform="scale(0.015625)"/>
       <path id="DejaVuSans-62" d="M 3116 1747 
Q 3116 2381 2855 2742 
Q 2594 3103 2138 3103 
Q 1681 3103 1420 2742 
Q 1159 2381 1159 1747 
Q 1159 1113 1420 752 
Q 1681 391 2138 391 
Q 2594 391 2855 752 
Q 3116 1113 3116 1747 
z
M 1159 2969 
Q 1341 3281 1617 3432 
Q 1894 3584 2278 3584 
Q 2916 3584 3314 3078 
Q 3713 2572 3713 1747 
Q 3713 922 3314 415 
Q 2916 -91 2278 -91 
Q 1894 -91 1617 61 
Q 1341 213 1159 525 
L 1159 0 
L 581 0 
L 581 4863 
L 1159 4863 
L 1159 2969 
z
" transform="scale(0.015625)"/>
       <path id="DejaVuSans-75" d="M 544 1381 
L 544 3500 
L 1119 3500 
L 1119 1403 
Q 1119 906 1312 657 
Q 1506 409 1894 409 
Q 2359 409 2629 706 
Q 2900 1003 2900 1516 
L 2900 3500 
L 3475 3500 
L 3475 0 
L 2900 0 
L 2900 538 
Q 2691 219 2414 64 
Q 2138 -91 1772 -91 
Q 1169 -91 856 284 
Q 544 659 544 1381 
z
M 1991 3584 
L 1991 3584 
z
" transform="scale(0.015625)"/>
       <path id="DejaVuSans-6e" d="M 3513 2113 
L 3513 0 
L 2938 0 
L 2938 2094 
Q 2938 2591 2744 2837 
Q 2550 3084 2163 3084 
Q 1697 3084 1428 2787 
Q 1159 2491 1159 1978 
L 1159 0 
L 581 0 
L 581 3500 
L 1159 3500 
L 1159 2956 
Q 1366 3272 1645 3428 
Q 1925 3584 2291 3584 
Q 2894 3584 3203 3211 
Q 3513 2838 3513 2113 
z
" transform="scale(0.015625)"/>
       <path id="DejaVuSans-2c" d="M 750 794 
L 1409 794 
L 1409 256 
L 897 -744 
L 494 -744 
L 750 256 
L 750 794 
z
" transform="scale(0.015625)"/>
      </defs>
      <use xlink:href="#DejaVuSans-4e"/>
      <use xlink:href="#DejaVuSans-65" x="74.804688"/>
      <use xlink:href="#DejaVuSans-74" x="136.328125"/>
      <use xlink:href="#DejaVuSans-77" x="175.537109"/>
      <use xlink:href="#DejaVuSans-6f" x="257.324219"/>
      <use xlink:href="#DejaVuSans-72" x="318.505859"/>
      <use xlink:href="#DejaVuSans-6b" x="359.619141"/>
      <use xlink:href="#DejaVuSans-20" x="417.529297"/>
      <use xlink:href="#DejaVuSans-46" x="449.316406"/>
      <use xlink:href="#DejaVuSans-6c" x="506.835938"/>
      <use xlink:href="#DejaVuSans-6f" x="534.619141"/>
      <use xlink:href="#DejaVuSans-77" x="595.800781"/>
      <use xlink:href="#DejaVuSans-20" x="677.587891"/>
      <use xlink:href="#DejaVuSans-43" x="709.375"/>
      <use xlink:href="#DejaVuSans-61" x="779.199219"/>
      <use xlink:href="#DejaVuSans-70" x="840.478516"/>
      <use xlink:href="#DejaVuSans-61" x="903.955078"/>
      <use xlink:href="#DejaVuSans-63" x="965.234375"/>
      <use xlink:href="#DejaVuSans-69" x="1020.214844"/>
      <use xlink:href="#DejaVuSans-74" x="1047.998047"/>
      <use xlink:href="#DejaVuSans-79" x="1087.207031"/>
      <use xlink:href="#DejaVuSans-20" x="1146.386719"/>
      <use xlink:href="#DejaVuSans-52" x="1178.173828"/>
      <use xlink:href="#DejaVuSans-6f" x="1243.15625"/>
      <use xlink:href="#DejaVuSans-62" x="1304.337891"/>
      <use xlink:href="#DejaVuSans-75" x="1367.814453"/>
      <use xlink:href="#DejaVuSans-73" x="1431.193359"/>
      <use xlink:href="#DejaVuSans-74" x="1483.292969"/>
      <use xlink:href="#DejaVuSans-6e" x="1522.501953"/>
      <use xlink:href="#DejaVuSans-65" x="1585.880859"/>
      <use xlink:href="#DejaVuSans-73" x="1647.404297"/>
      <use xlink:href="#DejaVuSans-73" x="1699.503906"/>
      <use xlink:href="#DejaVuSans-2c" x="1751.603516"/>
      <use xlink:href="#DejaVuSans-20" x="1783.390625"/>
      <use xlink:href="#DejaVuSans-4e" x="1815.177734"/>
      <use xlink:href="#DejaVuSans-46" x="1889.982422"/>
      <use xlink:href="#DejaVuSans-43" x="1947.501953"/>
      <use xlink:href="#DejaVuSans-52" x="2017.326172"/>
     </g>
    </g>
   </g>
   <g id="line2d_25">
    <path d="M 68.754545 23.947273 
L 75.737063 23.947273 
L 82.71958 24.885522 
L 89.702098 25.011627 
L 96.684615 25.011627 
L 103.667133 26.480273 
L 110.64965 26.480273 
L 117.632168 26.575054 
L 124.614685 27.549256 
L 131.597203 32.229151 
L 138.57972 36.941923 
L 145.562238 36.941923 
L 152.544755 38.44898 
L 159.527273 38.659156 
L 166.50979 38.701191 
L 173.492308 38.702631 
L 180.474825 38.761042 
L 187.457343 39.31698 
L 194.43986 39.498284 
L 201.422378 40.789184 
L 208.404895 41.096102 
L 215.387413 41.578662 
L 222.36993 41.621083 
L 229.352448 41.6454 
L 236.334965 42.709965 
L 243.317483 42.801099 
L 250.3 43.198488 
L 257.282517 43.198488 
L 264.265035 43.241951 
L 271.247552 43.241951 
L 278.23007 44.049365 
L 285.212587 44.857118 
L 292.195105 45.027552 
L 299.177622 45.608894 
L 306.16014 45.839954 
L 313.142657 47.838328 
L 320.125175 47.84799 
L 327.107692 48.065373 
L 334.09021 48.911886 
L 341.072727 48.911886 
L 348.055245 48.911886 
L 355.037762 49.823498 
L 362.02028 49.865831 
L 369.002797 50.119395 
L 375.985315 50.300374 
L 382.967832 50.469354 
L 389.95035 50.563188 
L 396.932867 50.990635 
L 403.915385 51.227062 
L 410.897902 54.495726 
L 417.88042 54.495726 
L 424.862937 54.715387 
" clip-path="url(#p5fadf83086)" style="fill: none; stroke-dasharray: 3.7,1.6; stroke-dashoffset: 0; stroke: #1f77b4"/>
   </g>
   <g id="line2d_26">
    <path d="M 68.754545 23.947273 
L 75.737063 123.86253 
L 82.71958 133.998537 
L 89.702098 196.599869 
L 96.684615 228.195065 
L 103.667133 238.785971 
L 110.64965 238.785971 
L 117.632168 249.80081 
L 124.614685 255.56972 
L 131.597203 260.594033 
L 138.57972 264.072403 
L 145.562238 267.454152 
L 152.544755 270.639804 
L 159.527273 273.345203 
L 166.50979 274.891145 
L 173.492308 276.437088 
L 180.474825 277.886409 
L 187.457343 279.259637 
L 194.43986 280.225851 
L 201.422378 281.192065 
L 208.404895 281.965036 
L 215.387413 282.641386 
L 222.36993 283.221114 
L 229.352448 283.704221 
L 236.334965 284.187328 
L 243.317483 284.573814 
L 250.3 284.863678 
L 257.282517 285.153542 
L 264.265035 285.346785 
L 271.247552 285.540028 
L 278.23007 285.733271 
L 285.212587 285.926513 
L 292.195105 286.022815 
L 299.177622 286.119188 
L 306.16014 286.21588 
L 313.142657 286.312359 
L 320.125175 286.409087 
L 327.107692 286.505815 
L 334.09021 286.602436 
L 341.072727 286.699129 
L 348.055245 286.795892 
L 355.037762 286.892727 
" clip-path="url(#p5fadf83086)" style="fill: none; stroke: #ff7f0e; stroke-linecap: square"/>
    <defs>
     <path id="m809f31db61" d="M -2.5 2.5 
L 2.5 2.5 
L 2.5 -2.5 
L -2.5 -2.5 
z
" style="stroke: #ff7f0e; stroke-linejoin: miter"/>
    </defs>
    <g clip-path="url(#p5fadf83086)">
     <use xlink:href="#m809f31db61" x="68.754545" y="23.947273" style="fill: #ff7f0e; stroke: #ff7f0e; stroke-linejoin: miter"/>
     <use xlink:href="#m809f31db61" x="103.667133" y="238.785971" style="fill: #ff7f0e; stroke: #ff7f0e; stroke-linejoin: miter"/>
     <use xlink:href="#m809f31db61" x="138.57972" y="264.072403" style="fill: #ff7f0e; stroke: #ff7f0e; stroke-linejoin: miter"/>
     <use xlink:href="#m809f31db61" x="173.492308" y="276.437088" style="fill: #ff7f0e; stroke: #ff7f0e; stroke-linejoin: miter"/>
     <use xlink:href="#m809f31db61" x="208.404895" y="281.965036" style="fill: #ff7f0e; stroke: #ff7f0e; stroke-linejoin: miter"/>
     <use xlink:href="#m809f31db61" x="243.317483" y="284.573814" style="fill: #ff7f0e; stroke: #ff7f0e; stroke-linejoin: miter"/>
     <use xlink:href="#m809f31db61" x="278.23007" y="285.733271" style="fill: #ff7f0e; stroke: #ff7f0e; stroke-linejoin: miter"/>
     <use xlink:href="#m809f31db61" x="313.142657" y="286.312359" style="fill: #ff7f0e; stroke: #ff7f0e; stroke-linejoin: miter"/>
     <use xlink:href="#m809f31db61" x="348.055245" y="286.795892" style="fill: #ff7f0e; stroke: #ff7f0e; stroke-linejoin: miter"/>
    </g>
   </g>
   <g id="line2d_27">
    <path d="M 68.754545 23.947273 
L 75.737063 104.075124 
L 82.71958 145.199276 
L 89.702098 158.36743 
L 96.684615 189.962626 
L 103.667133 189.962626 
L 110.64965 194.262923 
L 117.632168 205.753407 
L 124.614685 214.360668 
L 131.597203 214.360668 
L 138.57972 214.360668 
L 145.562238 225.375507 
L 152.544755 244.496015 
L 159.527273 250.054031 
L 166.50979 255.290631 
L 173.492308 260.314943 
L 180.474825 263.793314 
L 187.457343 267.175062 
L 194.43986 270.360714 
L 201.422378 273.066113 
L 208.404895 274.612056 
L 215.387413 276.157998 
L 222.36993 277.607319 
L 229.352448 278.573533 
L 236.334965 279.539747 
L 243.317483 280.312718 
L 250.3 280.989068 
L 257.282517 281.632662 
L 264.265035 282.212391 
L 271.247552 282.727431 
L 278.23007 283.210538 
L 285.212587 283.693645 
L 292.195105 284.08013 
L 299.177622 284.369995 
L 306.16014 284.659859 
L 313.142657 284.738619 
L 320.125175 284.931862 
L 327.107692 285.125105 
L 334.09021 285.318347 
L 341.072727 285.51159 
L 348.055245 285.833388 
L 355.037762 285.930009 
L 362.02028 286.026312 
L 369.002797 286.119472 
L 375.985315 286.21588 
L 382.967832 286.312573 
L 389.95035 286.409265 
L 396.932867 286.505815 
L 403.915385 286.602436 
L 410.897902 286.699129 
L 417.88042 286.795928 
L 424.862937 286.892727 
" clip-path="url(#p5fadf83086)" style="fill: none; stroke: #2ca02c; stroke-linecap: square"/>
    <defs>
     <path id="m7f2e64fac6" d="M 0 -2.5 
L -2.5 2.5 
L 2.5 2.5 
z
" style="stroke: #2ca02c; stroke-linejoin: miter"/>
    </defs>
    <g clip-path="url(#p5fadf83086)">
     <use xlink:href="#m7f2e64fac6" x="68.754545" y="23.947273" style="fill: #2ca02c; stroke: #2ca02c; stroke-linejoin: miter"/>
     <use xlink:href="#m7f2e64fac6" x="103.667133" y="189.962626" style="fill: #2ca02c; stroke: #2ca02c; stroke-linejoin: miter"/>
     <use xlink:href="#m7f2e64fac6" x="138.57972" y="214.360668" style="fill: #2ca02c; stroke: #2ca02c; stroke-linejoin: miter"/>
     <use xlink:href="#m7f2e64fac6" x="173.492308" y="260.314943" style="fill: #2ca02c; stroke: #2ca02c; stroke-linejoin: miter"/>
     <use xlink:href="#m7f2e64fac6" x="208.404895" y="274.612056" style="fill: #2ca02c; stroke: #2ca02c; stroke-linejoin: miter"/>
     <use xlink:href="#m7f2e64fac6" x="243.317483" y="280.312718" style="fill: #2ca02c; stroke: #2ca02c; stroke-linejoin: miter"/>
     <use xlink:href="#m7f2e64fac6" x="278.23007" y="283.210538" style="fill: #2ca02c; stroke: #2ca02c; stroke-linejoin: miter"/>
     <use xlink:href="#m7f2e64fac6" x="313.142657" y="284.738619" style="fill: #2ca02c; stroke: #2ca02c; stroke-linejoin: miter"/>
     <use xlink:href="#m7f2e64fac6" x="348.055245" y="285.833388" style="fill: #2ca02c; stroke: #2ca02c; stroke-linejoin: miter"/>
     <use xlink:href="#m7f2e64fac6" x="382.967832" y="286.312573" style="fill: #2ca02c; stroke: #2ca02c; stroke-linejoin: miter"/>
     <use xlink:href="#m7f2e64fac6" x="417.88042" y="286.795928" style="fill: #2ca02c; stroke: #2ca02c; stroke-linejoin: miter"/>
    </g>
   </g>
   <g id="line2d_28">
    <path d="M 68.754545 23.947273 
L 75.737063 104.075124 
L 82.71958 145.199276 
L 89.702098 176.794472 
L 96.684615 189.962626 
L 103.667133 201.45311 
L 110.64965 201.45311 
L 117.632168 212.467949 
L 124.614685 231.588457 
L 131.597203 240.195719 
L 138.57972 245.908417 
L 145.562238 250.93273 
L 152.544755 253.288515 
L 159.527273 257.434129 
L 166.50979 260.912499 
L 173.492308 260.912499 
L 180.474825 264.777355 
L 187.457343 267.963007 
L 194.43986 270.668406 
L 201.422378 273.54922 
L 208.404895 275.095163 
L 215.387413 276.641105 
L 222.36993 278.090426 
L 229.352448 279.05664 
L 236.334965 280.022854 
L 243.317483 280.795825 
L 250.3 281.43942 
L 257.282517 282.019148 
L 264.265035 282.534188 
L 271.247552 283.017295 
L 278.23007 283.500402 
L 285.212587 283.886888 
L 292.195105 284.176752 
L 299.177622 284.466616 
L 306.16014 284.659859 
L 313.142657 284.853102 
L 320.125175 285.046344 
L 327.107692 285.239587 
L 334.09021 285.561384 
L 341.072727 285.657552 
L 348.055245 285.754209 
L 355.037762 285.850866 
L 362.02028 285.947175 
L 369.002797 286.043555 
L 375.985315 286.140283 
L 382.967832 286.237011 
L 389.95035 286.333534 
L 396.932867 286.430297 
L 403.915385 286.526926 
L 410.897902 286.623627 
L 417.88042 286.720461 
L 424.862937 286.813793 
L 431.845455 286.892727 
" clip-path="url(#p5fadf83086)" style="fill: none; stroke: #d62728; stroke-linecap: square"/>
    <defs>
     <path id="m656e8fe12f" d="M 0 2.5 
C 0.663008 2.5 1.29895 2.236584 1.767767 1.767767 
C 2.236584 1.29895 2.5 0.663008 2.5 0 
C 2.5 -0.663008 2.236584 -1.29895 1.767767 -1.767767 
C 1.29895 -2.236584 0.663008 -2.5 0 -2.5 
C -0.663008 -2.5 -1.29895 -2.236584 -1.767767 -1.767767 
C -2.236584 -1.29895 -2.5 -0.663008 -2.5 0 
C -2.5 0.663008 -2.236584 1.29895 -1.767767 1.767767 
C -1.29895 2.236584 -0.663008 2.5 0 2.5 
z
" style="stroke: #d62728"/>
    </defs>
    <g clip-path="url(#p5fadf83086)">
     <use xlink:href="#m656e8fe12f" x="68.754545" y="23.947273" style="fill: #d62728; stroke: #d62728"/>
     <use xlink:href="#m656e8fe12f" x="103.667133" y="201.45311" style="fill: #d62728; stroke: #d62728"/>
     <use xlink:href="#m656e8fe12f" x="138.57972" y="245.908417" style="fill: #d62728; stroke: #d62728"/>
     <use xlink:href="#m656e8fe12f" x="173.492308" y="260.912499" style="fill: #d62728; stroke: #d62728"/>
     <use xlink:href="#m656e8fe12f" x="208.404895" y="275.095163" style="fill: #d62728; stroke: #d62728"/>
     <use xlink:href="#m656e8fe12f" x="243.317483" y="280.795825" style="fill: #d62728; stroke: #d62728"/>
     <use xlink:href="#m656e8fe12f" x="278.23007" y="283.500402" style="fill: #d62728; stroke: #d62728"/>
     <use xlink:href="#m656e8fe12f" x="313.142657" y="284.853102" style="fill: #d62728; stroke: #d62728"/>
     <use xlink:href="#m656e8fe12f" x="348.055245" y="285.754209" style="fill: #d62728; stroke: #d62728"/>
     <use xlink:href="#m656e8fe12f" x="382.967832" y="286.237011" style="fill: #d62728; stroke: #d62728"/>
     <use xlink:href="#m656e8fe12f" x="417.88042" y="286.720461" style="fill: #d62728; stroke: #d62728"/>
    </g>
   </g>
   <g id="patch_3">
    <path d="M 50.6 300.04 
L 50.6 10.8 
" style="fill: none; stroke: #000000; stroke-width: 0.8; stroke-linejoin: miter; stroke-linecap: square"/>
   </g>
   <g id="patch_4">
    <path d="M 450 300.04 
L 450 10.8 
" style="fill: none; stroke: #000000; stroke-width: 0.8; stroke-linejoin: miter; stroke-linecap: square"/>
   </g>
   <g id="patch_5">
    <path d="M 50.6 300.04 
L 450 300.04 
" style="fill: none; stroke: #000000; stroke-width: 0.8; stroke-linejoin: miter; stroke-linecap: square"/>
   </g>
   <g id="patch_6">
    <path d="M 50.6 10.8 
L 450 10.8 
" style="fill: none; stroke: #000000; stroke-width: 0.8; stroke-linejoin: miter; stroke-linecap: square"/>
   </g>
   <g id="legend_1">
    <g id="patch_7">
     <path d="M 301.8 192.92 
L 443 192.92 
Q 445 192.92 445 190.92 
L 445 119.92 
Q 445 117.92 443 117.92 
L 301.8 117.92 
Q 299.8 117.92 299.8 119.92 
L 299.8 190.92 
Q 299.8 192.92 301.8 192.92 
z
" style="fill: #ffffff; opacity: 0.8; stroke: #cccccc; stroke-linejoin: miter"/>
    </g>
    <g id="line2d_29">
     <path d="M 303.8 127.52 
L 313.8 127.52 
L 323.8 127.52 
" style="fill: none; stroke-dasharray: 3.7,1.6; stroke-dashoffset: 0; stroke: #1f77b4"/>
    </g>
    <g id="text_15">
     <!-- $\varphi^{\text{NFCR}}_{G_k}, \text{random}$ -->
     <g transform="translate(331.8 131.02) scale(0.1 -0.1)">
      <defs>
       <path id="DejaVuSans-Oblique-3c6" d="M 2969 3034 
Q 2766 3034 2675 2581 
L 2259 438 
Q 2553 438 2916 763 
Q 3244 1053 3375 1750 
Q 3497 2400 3300 2750 
Q 3138 3034 2969 3034 
z
M 3063 3525 
Q 3513 3525 3819 3113 
Q 4147 2672 3981 1750 
Q 3828 903 3291 400 
Q 2784 -75 2159 -75 
L 1916 -1331 
L 1344 -1331 
L 1588 -78 
Q 963 -78 641 400 
Q 309 888 475 1747 
Q 647 2641 1166 3097 
Q 1556 3438 2084 3525 
L 1984 3016 
Q 1766 2944 1538 2700 
Q 1194 2341 1081 1747 
Q 963 1116 1156 756 
Q 1334 434 1688 434 
L 2103 2581 
Q 2288 3525 3063 3525 
z
" transform="scale(0.015625)"/>
       <path id="DejaVuSans-Oblique-47" d="M 3494 697 
L 3738 1919 
L 2700 1919 
L 2797 2438 
L 4453 2438 
L 4050 384 
Q 3634 156 3143 32 
Q 2653 -91 2156 -91 
Q 1278 -91 783 396 
Q 288 884 288 1753 
Q 288 2475 589 3126 
Q 891 3778 1422 4213 
Q 1756 4484 2153 4617 
Q 2550 4750 3034 4750 
Q 3472 4750 3873 4639 
Q 4275 4528 4641 4306 
L 4513 3634 
Q 4231 3928 3853 4083 
Q 3475 4238 3047 4238 
Q 2550 4238 2172 4048 
Q 1794 3859 1497 3463 
Q 1244 3125 1098 2667 
Q 953 2209 953 1734 
Q 953 1081 1287 751 
Q 1622 422 2284 422 
Q 2616 422 2925 492 
Q 3234 563 3494 697 
z
" transform="scale(0.015625)"/>
       <path id="DejaVuSans-Oblique-6b" d="M 1172 4863 
L 1747 4863 
L 1197 2028 
L 3169 3500 
L 3916 3500 
L 1716 1825 
L 3322 0 
L 2625 0 
L 1131 1709 
L 800 0 
L 225 0 
L 1172 4863 
z
" transform="scale(0.015625)"/>
      </defs>
      <use xlink:href="#DejaVuSans-Oblique-3c6" transform="translate(0 0.765625)"/>
      <use xlink:href="#DejaVuSans-4e" transform="translate(70.48763 39.046875) scale(0.7)"/>
      <use xlink:href="#DejaVuSans-46" transform="translate(122.850911 39.046875) scale(0.7)"/>
      <use xlink:href="#DejaVuSans-43" transform="translate(163.114583 39.046875) scale(0.7)"/>
      <use xlink:href="#DejaVuSans-52" transform="translate(211.991536 39.046875) scale(0.7)"/>
      <use xlink:href="#DejaVuSans-Oblique-47" transform="translate(65.966797 -26.578125) scale(0.7)"/>
      <use xlink:href="#DejaVuSans-Oblique-6b" transform="translate(120.209961 -38.0625) scale(0.49)"/>
      <use xlink:href="#DejaVuSans-2c" transform="translate(263.363607 0.765625)"/>
      <use xlink:href="#DejaVuSans-72" transform="translate(314.633138 0.765625)"/>
      <use xlink:href="#DejaVuSans-61" transform="translate(355.746419 0.765625)"/>
      <use xlink:href="#DejaVuSans-6e" transform="translate(417.025716 0.765625)"/>
      <use xlink:href="#DejaVuSans-64" transform="translate(480.404622 0.765625)"/>
      <use xlink:href="#DejaVuSans-6f" transform="translate(543.881185 0.765625)"/>
      <use xlink:href="#DejaVuSans-6d" transform="translate(605.062826 0.765625)"/>
     </g>
    </g>
    <g id="line2d_30">
     <path d="M 303.8 145.52 
L 313.8 145.52 
L 323.8 145.52 
" style="fill: none; stroke: #ff7f0e; stroke-linecap: square"/>
     <g>
      <use xlink:href="#m809f31db61" x="313.8" y="145.52" style="fill: #ff7f0e; stroke: #ff7f0e; stroke-linejoin: miter"/>
     </g>
    </g>
    <g id="text_16">
     <!-- $\varphi^{\text{NFCR}}_{G_k}, \text{following FC}$ -->
     <g transform="translate(331.8 149.02) scale(0.1 -0.1)">
      <defs>
       <path id="DejaVuSans-66" d="M 2375 4863 
L 2375 4384 
L 1825 4384 
Q 1516 4384 1395 4259 
Q 1275 4134 1275 3809 
L 1275 3500 
L 2222 3500 
L 2222 3053 
L 1275 3053 
L 1275 0 
L 697 0 
L 697 3053 
L 147 3053 
L 147 3500 
L 697 3500 
L 697 3744 
Q 697 4328 969 4595 
Q 1241 4863 1831 4863 
L 2375 4863 
z
" transform="scale(0.015625)"/>
      </defs>
      <use xlink:href="#DejaVuSans-Oblique-3c6" transform="translate(0 0.765625)"/>
      <use xlink:href="#DejaVuSans-4e" transform="translate(70.48763 39.046875) scale(0.7)"/>
      <use xlink:href="#DejaVuSans-46" transform="translate(122.850911 39.046875) scale(0.7)"/>
      <use xlink:href="#DejaVuSans-43" transform="translate(163.114583 39.046875) scale(0.7)"/>
      <use xlink:href="#DejaVuSans-52" transform="translate(211.991536 39.046875) scale(0.7)"/>
      <use xlink:href="#DejaVuSans-Oblique-47" transform="translate(65.966797 -26.578125) scale(0.7)"/>
      <use xlink:href="#DejaVuSans-Oblique-6b" transform="translate(120.209961 -38.0625) scale(0.49)"/>
      <use xlink:href="#DejaVuSans-2c" transform="translate(263.363607 0.765625)"/>
      <use xlink:href="#DejaVuSans-66" transform="translate(314.633138 0.765625)"/>
      <use xlink:href="#DejaVuSans-6f" transform="translate(349.838216 0.765625)"/>
      <use xlink:href="#DejaVuSans-6c" transform="translate(411.019857 0.765625)"/>
      <use xlink:href="#DejaVuSans-6c" transform="translate(438.80306 0.765625)"/>
      <use xlink:href="#DejaVuSans-6f" transform="translate(466.586263 0.765625)"/>
      <use xlink:href="#DejaVuSans-77" transform="translate(527.767904 0.765625)"/>
      <use xlink:href="#DejaVuSans-69" transform="translate(609.555013 0.765625)"/>
      <use xlink:href="#DejaVuSans-6e" transform="translate(637.338216 0.765625)"/>
      <use xlink:href="#DejaVuSans-67" transform="translate(700.717122 0.765625)"/>
      <use xlink:href="#DejaVuSans-20" transform="translate(764.193685 0.765625)"/>
      <use xlink:href="#DejaVuSans-46" transform="translate(795.980794 0.765625)"/>
      <use xlink:href="#DejaVuSans-43" transform="translate(853.500326 0.765625)"/>
     </g>
    </g>
    <g id="line2d_31">
     <path d="M 303.8 163.52 
L 313.8 163.52 
L 323.8 163.52 
" style="fill: none; stroke: #2ca02c; stroke-linecap: square"/>
     <g>
      <use xlink:href="#m7f2e64fac6" x="313.8" y="163.52" style="fill: #2ca02c; stroke: #2ca02c; stroke-linejoin: miter"/>
     </g>
    </g>
    <g id="text_17">
     <!-- $\varphi^{\text{NFCR}}_{G_k}, \text{following FCR}$ -->
     <g transform="translate(331.8 167.02) scale(0.1 -0.1)">
      <use xlink:href="#DejaVuSans-Oblique-3c6" transform="translate(0 0.765625)"/>
      <use xlink:href="#DejaVuSans-4e" transform="translate(70.48763 39.046875) scale(0.7)"/>
      <use xlink:href="#DejaVuSans-46" transform="translate(122.850911 39.046875) scale(0.7)"/>
      <use xlink:href="#DejaVuSans-43" transform="translate(163.114583 39.046875) scale(0.7)"/>
      <use xlink:href="#DejaVuSans-52" transform="translate(211.991536 39.046875) scale(0.7)"/>
      <use xlink:href="#DejaVuSans-Oblique-47" transform="translate(65.966797 -26.578125) scale(0.7)"/>
      <use xlink:href="#DejaVuSans-Oblique-6b" transform="translate(120.209961 -38.0625) scale(0.49)"/>
      <use xlink:href="#DejaVuSans-2c" transform="translate(263.363607 0.765625)"/>
      <use xlink:href="#DejaVuSans-66" transform="translate(314.633138 0.765625)"/>
      <use xlink:href="#DejaVuSans-6f" transform="translate(349.838216 0.765625)"/>
      <use xlink:href="#DejaVuSans-6c" transform="translate(411.019857 0.765625)"/>
      <use xlink:href="#DejaVuSans-6c" transform="translate(438.80306 0.765625)"/>
      <use xlink:href="#DejaVuSans-6f" transform="translate(466.586263 0.765625)"/>
      <use xlink:href="#DejaVuSans-77" transform="translate(527.767904 0.765625)"/>
      <use xlink:href="#DejaVuSans-69" transform="translate(609.555013 0.765625)"/>
      <use xlink:href="#DejaVuSans-6e" transform="translate(637.338216 0.765625)"/>
      <use xlink:href="#DejaVuSans-67" transform="translate(700.717122 0.765625)"/>
      <use xlink:href="#DejaVuSans-20" transform="translate(764.193685 0.765625)"/>
      <use xlink:href="#DejaVuSans-46" transform="translate(795.980794 0.765625)"/>
      <use xlink:href="#DejaVuSans-43" transform="translate(853.500326 0.765625)"/>
      <use xlink:href="#DejaVuSans-52" transform="translate(923.324544 0.765625)"/>
     </g>
    </g>
    <g id="line2d_32">
     <path d="M 303.8 181.52 
L 313.8 181.52 
L 323.8 181.52 
" style="fill: none; stroke: #d62728; stroke-linecap: square"/>
     <g>
      <use xlink:href="#m656e8fe12f" x="313.8" y="181.52" style="fill: #d62728; stroke: #d62728"/>
     </g>
    </g>
    <g id="text_18">
     <!-- $\varphi^{\text{NFCR}}_{G_k}, \text{following WFCR}$ -->
     <g transform="translate(331.8 185.02) scale(0.1 -0.1)">
      <defs>
       <path id="DejaVuSans-57" d="M 213 4666 
L 850 4666 
L 1831 722 
L 2809 4666 
L 3519 4666 
L 4500 722 
L 5478 4666 
L 6119 4666 
L 4947 0 
L 4153 0 
L 3169 4050 
L 2175 0 
L 1381 0 
L 213 4666 
z
" transform="scale(0.015625)"/>
      </defs>
      <use xlink:href="#DejaVuSans-Oblique-3c6" transform="translate(0 0.765625)"/>
      <use xlink:href="#DejaVuSans-4e" transform="translate(70.48763 39.046875) scale(0.7)"/>
      <use xlink:href="#DejaVuSans-46" transform="translate(122.850911 39.046875) scale(0.7)"/>
      <use xlink:href="#DejaVuSans-43" transform="translate(163.114583 39.046875) scale(0.7)"/>
      <use xlink:href="#DejaVuSans-52" transform="translate(211.991536 39.046875) scale(0.7)"/>
      <use xlink:href="#DejaVuSans-Oblique-47" transform="translate(65.966797 -26.578125) scale(0.7)"/>
      <use xlink:href="#DejaVuSans-Oblique-6b" transform="translate(120.209961 -38.0625) scale(0.49)"/>
      <use xlink:href="#DejaVuSans-2c" transform="translate(263.363607 0.765625)"/>
      <use xlink:href="#DejaVuSans-66" transform="translate(314.633138 0.765625)"/>
      <use xlink:href="#DejaVuSans-6f" transform="translate(349.838216 0.765625)"/>
      <use xlink:href="#DejaVuSans-6c" transform="translate(411.019857 0.765625)"/>
      <use xlink:href="#DejaVuSans-6c" transform="translate(438.80306 0.765625)"/>
      <use xlink:href="#DejaVuSans-6f" transform="translate(466.586263 0.765625)"/>
      <use xlink:href="#DejaVuSans-77" transform="translate(527.767904 0.765625)"/>
      <use xlink:href="#DejaVuSans-69" transform="translate(609.555013 0.765625)"/>
      <use xlink:href="#DejaVuSans-6e" transform="translate(637.338216 0.765625)"/>
      <use xlink:href="#DejaVuSans-67" transform="translate(700.717122 0.765625)"/>
      <use xlink:href="#DejaVuSans-20" transform="translate(764.193685 0.765625)"/>
      <use xlink:href="#DejaVuSans-57" transform="translate(795.980794 0.765625)"/>
      <use xlink:href="#DejaVuSans-46" transform="translate(894.857747 0.765625)"/>
      <use xlink:href="#DejaVuSans-43" transform="translate(952.377279 0.765625)"/>
      <use xlink:href="#DejaVuSans-52" transform="translate(1022.201497 0.765625)"/>
     </g>
    </g>
   </g>
  </g>
  <g id="text_19">
   <g id="patch_8">
    <path d="M 180.32 230.719687 
L 260.634063 230.719687 
L 260.634063 201.84375 
L 180.32 201.84375 
z
" style="fill: #ffffff; stroke: #d3d3d3; stroke-linejoin: miter"/>
   </g>
   <!-- markers every -->
   <g style="opacity: 0.5" transform="translate(184.32 213.442187) scale(0.1 -0.1)">
    <use xlink:href="#DejaVuSans-6d"/>
    <use xlink:href="#DejaVuSans-61" x="97.412109"/>
    <use xlink:href="#DejaVuSans-72" x="158.691406"/>
    <use xlink:href="#DejaVuSans-6b" x="199.804688"/>
    <use xlink:href="#DejaVuSans-65" x="254.089844"/>
    <use xlink:href="#DejaVuSans-72" x="315.613281"/>
    <use xlink:href="#DejaVuSans-73" x="356.726562"/>
    <use xlink:href="#DejaVuSans-20" x="408.826172"/>
    <use xlink:href="#DejaVuSans-65" x="440.613281"/>
    <use xlink:href="#DejaVuSans-76" x="502.136719"/>
    <use xlink:href="#DejaVuSans-65" x="561.316406"/>
    <use xlink:href="#DejaVuSans-72" x="622.839844"/>
    <use xlink:href="#DejaVuSans-79" x="663.953125"/>
   </g>
   <!-- 5 iterations -->
   <g style="opacity: 0.5" transform="translate(184.32 224.64) scale(0.1 -0.1)">
    <use xlink:href="#DejaVuSans-35"/>
    <use xlink:href="#DejaVuSans-20" x="63.623047"/>
    <use xlink:href="#DejaVuSans-69" x="95.410156"/>
    <use xlink:href="#DejaVuSans-74" x="123.193359"/>
    <use xlink:href="#DejaVuSans-65" x="162.402344"/>
    <use xlink:href="#DejaVuSans-72" x="223.925781"/>
    <use xlink:href="#DejaVuSans-61" x="265.039062"/>
    <use xlink:href="#DejaVuSans-74" x="326.318359"/>
    <use xlink:href="#DejaVuSans-69" x="365.527344"/>
    <use xlink:href="#DejaVuSans-6f" x="393.310547"/>
    <use xlink:href="#DejaVuSans-6e" x="454.492188"/>
    <use xlink:href="#DejaVuSans-73" x="517.871094"/>
   </g>
  </g>
 </g>
 <defs>
  <clipPath id="p5fadf83086">
   <rect x="50.6" y="10.8" width="399.4" height="289.24"/>
  </clipPath>
 </defs>
</svg>
